<svg width="286" height="42" viewBox="0 0 286 42" fill="none" xmlns="http://www.w3.org/2000/svg">
<path d="M73.546 15.0071C75.4534 16.8656 76.407 19.6266 76.407 23.2901V37.6219H69.1444V24.4105C69.1444 22.4231 68.6998 20.9404 67.8106 19.9622C67.327 19.4589 66.7391 19.0673 66.0882 18.815C65.4373 18.5627 64.7391 18.4558 64.0426 18.5017C63.2355 18.4631 62.4293 18.5939 61.6758 18.8856C60.9223 19.1774 60.2383 19.6236 59.6677 20.1957C58.5784 21.3294 58.036 23.0122 58.0404 25.2441V37.6219H50.8178V12.5929H57.747V15.5206C58.7393 14.4449 59.9642 13.6101 61.3283 13.0798C62.8151 12.4974 64.3998 12.2053 65.9966 12.2195C69.1222 12.2195 71.6386 13.1487 73.546 15.0071Z" fill="#0637A3"/>
<path d="M88.0551 36.3482C86.025 35.3067 84.3253 33.7202 83.1467 31.7665C81.9495 29.7509 81.3375 27.4415 81.3794 25.0975C81.3364 22.7533 81.9485 20.4436 83.1467 18.4284C84.3271 16.4745 86.0262 14.8863 88.0551 13.8401C90.2601 12.7565 92.6842 12.193 95.141 12.193C97.5978 12.193 100.022 12.7565 102.227 13.8401C104.244 14.8928 105.933 16.4801 107.109 18.4284C108.307 20.4436 108.919 22.7533 108.876 25.0975C108.918 27.4415 108.306 29.7509 107.109 31.7665C105.935 33.7145 104.245 35.3001 102.227 36.3482C100.023 37.4362 97.5986 38.0021 95.141 38.0021C92.6834 38.0021 90.2588 37.4362 88.0551 36.3482ZM99.7327 30.1593C100.975 28.78 101.62 26.9647 101.527 25.1108C101.618 23.2572 100.973 21.4427 99.7327 20.0623C99.1449 19.4433 98.4328 18.9557 97.6431 18.6316C96.8535 18.3074 96.0042 18.1541 95.151 18.1816C94.2935 18.154 93.4397 18.3065 92.6448 18.6293C91.8499 18.952 91.1315 19.438 90.536 20.0556C89.9161 20.7362 89.4367 21.5325 89.1254 22.3989C88.8141 23.2653 88.677 24.1846 88.722 25.1041C88.6759 26.0237 88.8124 26.9434 89.1238 27.8099C89.4352 28.6764 89.9151 29.4727 90.536 30.1526C91.1288 30.7729 91.8454 31.2614 92.6394 31.5866C93.4333 31.9118 94.2868 32.0662 95.1443 32.04C95.9995 32.0706 96.8513 31.9181 97.6426 31.5926C98.434 31.267 99.1466 30.7761 99.7327 30.1526V30.1593Z" fill="#0637A3"/>
<path d="M129.882 36.4149C129.078 36.9806 128.172 37.3838 127.214 37.602C126.143 37.8677 125.043 37.9998 123.94 37.9955C120.956 37.9955 118.653 37.2352 117.03 35.7147C115.408 34.1941 114.592 31.9711 114.583 29.0456V18.7352H110.721V13.1465H114.583V7.05099H121.879V13.1465H128.114V18.7352H121.879V28.9189C121.818 29.8099 122.11 30.689 122.692 31.3664C122.994 31.6637 123.355 31.8939 123.751 32.0422C124.147 32.1904 124.571 32.2533 124.993 32.2267C126.049 32.2564 127.083 31.9272 127.928 31.2931L129.882 36.4149Z" fill="#0637A3"/>
<path d="M134.322 7.93799C133.917 7.57527 133.596 7.1295 133.379 6.63115C133.163 6.13281 133.057 5.59362 133.068 5.05044C133.058 4.50838 133.165 3.97048 133.381 3.47336C133.597 2.97623 133.918 2.53155 134.322 2.16956C135.217 1.37315 136.386 0.954816 137.583 1.00254C138.77 0.951894 139.933 1.35211 140.837 2.12288C141.239 2.46562 141.561 2.8935 141.778 3.37559C141.994 3.85767 142.101 4.38191 142.091 4.9104C142.108 5.47112 142.005 6.02908 141.789 6.54671C141.573 7.06435 141.248 7.52965 140.837 7.91131C139.952 8.72205 138.782 9.14891 137.583 9.09834C136.387 9.14789 135.218 8.73199 134.322 7.93799ZM133.955 12.6061H141.217V37.6204H133.955V12.6061Z" fill="#0637A3"/>
<path d="M155.889 13.1462H162.311V18.7346H156.076V37.6204H148.84V18.7346H144.979V13.1462H148.84V12.0326C148.84 9.17835 149.685 6.91322 151.375 5.23715C153.064 3.56108 155.445 2.72527 158.517 2.72972C159.558 2.72331 160.597 2.8397 161.611 3.07649C162.478 3.26248 163.304 3.6012 164.052 4.0768L162.145 9.33173C161.287 8.73925 160.266 8.4313 159.224 8.45146C157.001 8.45146 155.889 9.66072 155.889 12.0792V13.1462ZM170.034 7.93797C169.629 7.57525 169.308 7.12949 169.091 6.63114C168.875 6.13279 168.769 5.59361 168.78 5.05043C168.77 4.50836 168.876 3.97047 169.093 3.47334C169.309 2.97622 169.63 2.53153 170.034 2.16955C170.934 1.36822 172.111 0.949545 173.315 1.00253C174.5 0.953579 175.659 1.35369 176.562 2.12287C176.965 2.46561 177.286 2.89349 177.503 3.37557C177.72 3.85765 177.827 4.38189 177.816 4.91038C177.833 5.47111 177.731 6.02906 177.514 6.5467C177.298 7.06433 176.973 7.52964 176.562 7.9113C175.677 8.72204 174.507 9.1489 173.308 9.09833C172.114 9.14613 170.948 8.73035 170.054 7.93797H170.034ZM169.66 12.6061H176.922V37.6204H169.68L169.66 12.6061Z" fill="#0637A3"/>
<path d="M188.598 36.348C186.543 35.3145 184.818 33.7277 183.616 31.7664C182.405 29.7556 181.783 27.4446 181.823 25.0973C181.775 22.7754 182.386 20.4876 183.585 18.4987C184.785 16.5099 186.523 14.9015 188.598 13.8599C190.823 12.7353 193.288 12.1699 195.781 12.2127C198.188 12.155 200.568 12.7225 202.69 13.8599C204.613 14.9113 206.13 16.5757 206.998 18.5883L201.37 21.6094C200.062 19.3152 198.184 18.1681 195.734 18.1681C194.871 18.1454 194.011 18.2987 193.209 18.6186C192.406 18.9384 191.677 19.4183 191.066 20.0288C190.428 20.7033 189.934 21.5004 189.614 22.3718C189.295 23.2431 189.155 24.1704 189.205 25.0973C189.156 26.0252 189.295 26.9534 189.615 27.8258C189.935 28.6982 190.428 29.4966 191.066 30.1725C191.677 30.783 192.406 31.2628 193.209 31.5827C194.011 31.9026 194.871 32.0558 195.734 32.0331C196.905 32.0606 198.058 31.7508 199.058 31.1406C200.057 30.5304 200.859 29.6457 201.37 28.5919L206.998 31.6597C206.108 33.6425 204.595 35.2813 202.69 36.328C200.573 37.4805 198.191 38.0576 195.781 38.002C193.288 38.0426 190.822 37.4749 188.598 36.348Z" fill="#0637A3"/>
<path d="M215.674 36.3481C213.643 35.3084 211.943 33.7214 210.766 31.7664C209.568 29.7507 208.956 27.4414 208.998 25.0973C208.955 22.7532 209.567 20.4435 210.766 18.4283C211.944 16.4729 213.644 14.8841 215.674 13.84C217.878 12.7564 220.301 12.193 222.757 12.193C225.212 12.193 227.635 12.7564 229.839 13.84C231.86 14.8906 233.551 16.4783 234.728 18.4283C235.922 20.445 236.534 22.7536 236.495 25.0973C236.534 27.441 235.922 29.7497 234.728 31.7664C233.553 33.7162 231.861 35.3021 229.839 36.3481C227.636 37.435 225.213 38.0004 222.757 38.0004C220.3 38.0004 217.877 37.435 215.674 36.3481ZM227.352 30.1592C228.594 28.7799 229.239 26.9646 229.146 25.1107C229.237 23.2571 228.592 21.4426 227.352 20.0622C226.764 19.4432 226.052 18.9556 225.262 18.6315C224.472 18.3073 223.623 18.154 222.77 18.1815C221.913 18.1552 221.06 18.309 220.266 18.633C219.473 18.9569 218.756 19.4438 218.162 20.0622C217.542 20.7428 217.062 21.5391 216.751 22.4055C216.44 23.2718 216.303 24.1912 216.348 25.1107C216.302 26.0303 216.438 26.9499 216.749 27.8165C217.061 28.683 217.541 29.4792 218.162 30.1592C218.754 30.7798 219.471 31.2686 220.265 31.5937C221.059 31.9189 221.912 32.0732 222.77 32.0465C223.625 32.0754 224.475 31.9213 225.266 31.5947C226.056 31.268 226.767 30.7763 227.352 30.1525V30.1592Z" fill="#0637A3"/>
<path d="M251.779 13.1463C253.398 12.4989 255.131 12.1836 256.874 12.2193V18.8884C256.067 18.8284 255.54 18.795 255.24 18.795C254.351 18.7456 253.461 18.8747 252.623 19.1748C251.784 19.4749 251.014 19.9399 250.359 20.5423C249.176 21.7205 248.585 23.4745 248.585 25.8042V37.6218H241.329V12.5928H248.264V15.894C249.155 14.6668 250.373 13.7147 251.779 13.1463Z" fill="#0637A3"/>
<path d="M285.344 27.1513H266.41C266.709 28.6441 267.577 29.9619 268.831 30.826C270.232 31.758 271.891 32.2247 273.573 32.1598C274.754 32.1805 275.93 31.9839 277.041 31.5796C278.093 31.1609 279.05 30.535 279.855 29.7389L283.716 33.9271C281.36 36.6303 277.916 37.9797 273.386 37.9752C270.805 38.0292 268.248 37.4716 265.923 36.348C263.844 35.3346 262.101 33.744 260.901 31.7663C259.702 29.7512 259.088 27.4419 259.127 25.0972C259.098 22.77 259.702 20.4786 260.875 18.4682C262.018 16.5195 263.677 14.9247 265.67 13.8598C267.75 12.7888 270.054 12.2245 272.394 12.2129C274.734 12.2013 277.044 12.7428 279.135 13.7932C281.093 14.8267 282.713 16.4007 283.803 18.3281C284.963 20.4263 285.547 22.7938 285.497 25.1906C285.484 25.2906 285.437 25.9442 285.344 27.1513ZM268.364 19.1017C267.226 20.0706 266.495 21.4327 266.317 22.9164H278.648C278.453 21.444 277.721 20.0953 276.594 19.1284C275.448 18.1714 273.991 17.6662 272.499 17.7079C270.998 17.6612 269.53 18.1559 268.364 19.1017Z" fill="#0637A3"/>
<path d="M14.882 11.8679C15.5577 11.7584 16.2497 11.8108 16.9012 12.0206C17.5527 12.2304 18.1452 12.5918 18.63 13.075L25.1857 19.5974L30.7077 8.58009C28.3125 6.77282 25.4607 5.66935 22.4729 5.39371C19.485 5.11806 16.4795 5.68116 13.7941 7.01972C11.1086 8.35827 8.84975 10.4192 7.27122 12.971C5.6927 15.5228 4.85711 18.4642 4.85837 21.4647C4.85886 23.1394 5.11755 24.804 5.62531 26.3998L11.7142 14.2021C12.0206 13.5907 12.4674 13.0606 13.018 12.6549C13.5685 12.2492 14.2073 11.9795 14.882 11.8679Z" fill="#0637A3"/>
<path d="M27.058 31.1477C26.3839 31.2564 25.6937 31.2044 25.0435 30.9958C24.3934 30.7871 23.8017 30.4279 23.3167 29.9473L16.7743 23.4249L11.3057 34.3489C14.0993 36.4489 17.5009 37.582 20.9959 37.5767H37.1884V21.8644L37.1483 21.9044C37.1483 21.7577 37.1483 21.611 37.1483 21.4642C37.1496 19.8009 36.8931 18.1473 36.3881 16.5625L30.2325 28.8202C29.9255 29.4318 29.4776 29.9617 28.9257 30.3664C28.3738 30.771 27.7337 31.0388 27.058 31.1477Z" fill="#0637A3"/>
<path d="M5.62383 26.3983L0.95522 35.7356C0.701664 36.2435 0.550645 36.7965 0.510789 37.3629C0.470932 37.9292 0.543017 38.4979 0.722928 39.0364C0.902839 39.5749 1.18705 40.0726 1.55934 40.5013C1.93163 40.9299 2.3847 41.2811 2.89269 41.5346C3.40068 41.7882 3.95364 41.9392 4.51999 41.9791C5.08635 42.0189 5.655 41.9468 6.1935 41.7669C6.73199 41.587 7.22978 41.3028 7.65843 40.9305C8.08709 40.5582 8.43822 40.1052 8.69178 39.5972L11.3062 34.3483C8.63893 32.3464 6.6545 29.57 5.62383 26.3983Z" fill="#66CFFA"/>
<path d="M39.1099 1.4628C38.6024 1.20816 38.0497 1.05602 37.4833 1.01508C36.917 0.974138 36.3481 1.0452 35.8093 1.2242C35.2704 1.4032 34.7721 1.68663 34.3428 2.0583C33.9136 2.42996 33.5617 2.88258 33.3075 3.39027L30.7064 8.5791C33.3802 10.5946 35.3613 13.3914 36.3754 16.5824L41.044 7.28523C41.3016 6.77636 41.4558 6.22154 41.4979 5.65277C41.54 5.084 41.4691 4.51252 41.2893 3.97128C41.1096 3.43003 40.8244 2.92972 40.4503 2.4992C40.0763 2.06867 39.6207 1.71644 39.1099 1.4628Z" fill="#66CFFA"/>
<path d="M30.7045 8.5782L25.1825 19.5955L18.6268 13.0732C18.143 12.5888 17.5509 12.2265 16.8994 12.0162C16.2479 11.806 15.5557 11.7537 14.88 11.8638C14.2043 11.9739 13.5645 12.2433 13.0135 12.6495C12.4624 13.0558 12.016 13.5873 11.711 14.2002L5.62213 26.398C6.64299 29.589 8.62815 32.385 11.3042 34.4008L16.7728 23.4502L23.3152 29.9459C23.8003 30.4275 24.3927 30.7873 25.0437 30.9959C25.6947 31.2045 26.3858 31.2559 27.0605 31.1459C27.7352 31.036 28.3742 30.7678 28.9253 30.3633C29.4764 29.9588 29.9238 29.4295 30.231 28.8188L36.3732 16.5611C35.3554 13.3775 33.3748 10.5883 30.7045 8.5782Z" fill="#B8E56B"/>
</svg>
