<svg width="286" height="54" viewBox="0 0 286 54" fill="none" xmlns="http://www.w3.org/2000/svg">
<path d="M49.7248 15.7467C49.5834 15.4629 49.5834 15.0371 49.7248 14.6114C50.0075 13.476 51.2799 12.7664 52.4108 13.0502L60.7516 15.321C61.8826 15.6048 62.5894 16.8821 62.3067 18.0175C62.1653 18.3013 62.024 18.5851 61.8826 18.869C61.8826 18.869 61.7412 19.0109 61.4585 19.1528C60.1862 20.0044 55.9451 22.9847 55.9451 22.9847C55.3796 23.4105 54.6727 23.5524 54.1073 23.2685C53.4004 23.1266 52.8349 22.5589 52.6936 21.9912V22.1332L49.8662 16.0306C49.7248 15.6048 49.5834 15.0371 49.7248 14.4694C50.0075 13.3341 51.2799 12.6245 52.4108 12.9083L60.7516 15.1791C61.8826 15.4629 62.5894 16.7402 62.3067 17.8755C62.1653 18.4432 61.8826 18.869 61.4585 19.1528" fill="#F8BA00"/>
<path d="M105 38.454L93.408 22.7008C91.2874 19.7205 88.1773 17.4498 84.6431 16.4563C83.5121 16.1725 82.3812 16.0306 81.1088 15.8886C79.9779 14.1856 78.1401 12.7664 75.8782 12.0568L41.1013 2.69002C38.698 1.98041 36.2947 2.40618 34.3155 3.54154C33.0432 2.83194 31.7709 2.26426 30.2158 1.83849C26.6816 0.845048 22.8646 1.27081 19.6131 2.83194L1.65918 10.6376C0.66959 11.0633 0.24548 12.1987 0.669589 13.1921C0.952328 13.7598 1.37644 14.1856 1.94192 14.3275C2.36602 14.4694 2.79013 14.4694 3.21424 14.1856L21.1682 6.37995C23.7128 5.24459 26.5402 4.96075 29.0849 5.67035C29.7917 5.81227 30.4986 6.09611 31.064 6.37995C30.4986 7.23148 30.2158 8.083 29.9331 8.93453L23.5714 32.9191C22.2991 37.7444 25.1265 42.7117 29.9331 43.9889L64.71 53.3557C69.5165 54.633 74.4645 51.7946 75.7368 46.9693L82.0984 22.9847C82.3812 21.9912 82.5225 20.9978 82.3812 20.0043C82.8053 20.0043 83.088 20.1463 83.5121 20.2882C86.1981 20.9978 88.46 22.7008 90.0151 24.9716L101.607 40.7248C101.89 41.1505 102.314 41.2924 102.738 41.4344C103.304 41.5763 103.869 41.4344 104.435 41.1505C105.566 40.5828 105.707 39.3056 105 38.454ZM74.8886 15.8886C75.5954 16.0306 76.3023 16.4563 76.7264 16.8821L56.3692 25.8231C56.3692 25.8231 56.2278 25.8231 56.2278 25.965C55.3796 26.3908 54.39 26.5327 53.4004 26.2488C52.4108 25.965 51.5626 25.3973 50.9971 24.5458C50.9971 24.5458 50.9971 24.4039 50.8558 24.4039L37.7084 6.52188C38.4152 6.37995 39.2635 6.37995 39.9703 6.52188L74.8886 15.8886ZM72.0612 46.1177C71.3543 48.8142 68.5269 50.3754 65.8409 49.6658L31.064 40.299C28.378 39.5894 26.8229 36.751 27.5298 34.0545L33.8914 10.0699C34.0328 9.50221 34.3155 9.07645 34.5983 8.65069L47.887 26.6746C49.018 28.3777 50.573 29.513 52.4108 29.9388C54.2486 30.5065 56.3692 30.2226 58.0656 29.3711L78.5642 20.4301C78.5642 20.9978 78.5642 21.5655 78.4228 22.1332L72.0612 46.1177Z" fill="#1062AA"/>
<path d="M19.6131 12.1987L7.73809 17.3079C6.74851 17.7336 6.3244 18.869 6.74851 19.8624C7.03125 20.4301 7.45536 20.8559 8.02083 20.9978C8.44494 21.1397 8.86905 21.1397 9.29316 20.8559L21.1682 15.7467C22.1578 15.321 22.5819 14.1856 22.1578 13.1922C21.7337 12.1987 20.6027 11.773 19.6131 12.1987Z" fill="#1062AA"/>
<path d="M16.6444 22.5589L13.5342 23.8362C12.5447 24.262 12.1205 25.3973 12.5446 26.3908C12.8274 26.9585 13.2515 27.3842 13.817 27.5262C14.2411 27.6681 14.6652 27.6681 15.0893 27.3842L18.1994 26.1069C19.189 25.6812 19.6131 24.5458 19.189 23.5524C18.7649 22.5589 17.634 22.1332 16.6444 22.5589Z" fill="#1062AA"/>
<path d="M88.6014 30.9322L96.2354 41.4344C96.9422 42.2859 96.6595 43.5632 95.8113 44.1309C95.2458 44.5566 94.6803 44.5566 94.1148 44.4147C93.6907 44.2728 93.2666 43.9889 93.1252 43.7051L85.4913 33.203C84.7844 32.3514 85.0672 31.0741 85.9154 30.5065C86.7636 29.7969 88.0359 30.0807 88.6014 30.9322Z" fill="#1062AA"/>
<path d="M86.0568 41.5763L88.0359 44.2728C88.7428 45.1243 88.4601 46.4016 87.6118 46.9693C87.0464 47.3951 86.4809 47.3951 85.9154 47.2531C85.4913 47.1112 85.0672 46.8274 84.9258 46.5435L82.9466 43.989C82.2398 43.1374 82.5225 41.8601 83.3708 41.2925C84.219 40.5829 85.3499 40.7248 86.0568 41.5763Z" fill="#1062AA"/>
<path d="M147.126 25.2676C146.906 25.3117 146.553 25.3558 146.068 25.4C145.605 25.4661 145.053 25.5212 144.414 25.5653C143.775 25.6315 143.058 25.6866 142.264 25.7307C141.47 25.7748 140.643 25.7969 139.783 25.7969C138.063 25.7969 136.652 25.6425 135.55 25.3338C134.469 25.0471 133.609 24.6613 132.97 24.1761C132.352 23.669 131.922 23.0957 131.68 22.4562C131.459 21.7947 131.349 21.1222 131.349 20.4386C131.349 19.5345 131.481 18.7407 131.746 18.0571C132.033 17.3736 132.485 16.8003 133.102 16.3372C133.742 15.8741 134.568 15.5324 135.583 15.3118C136.597 15.0693 137.832 14.948 139.287 14.948C140.125 14.948 140.919 14.9811 141.669 15.0472C142.418 15.0913 142.981 15.1354 143.356 15.1795C143.356 14.4078 143.223 13.7683 142.959 13.2611C142.716 12.754 142.374 12.3571 141.933 12.0704C141.492 11.7838 140.963 11.5853 140.346 11.4751C139.728 11.3648 139.045 11.3097 138.295 11.3097C137.038 11.3097 136.024 11.453 135.252 11.7397C134.502 12.0263 134.006 12.2689 133.764 12.4673C133.631 12.3571 133.444 12.1476 133.201 11.8389C132.981 11.5302 132.871 11.1553 132.871 10.7143C132.871 10.4056 132.948 10.1079 133.102 9.82127C133.278 9.51257 133.576 9.24796 133.995 9.02745C134.414 8.7849 134.976 8.59747 135.682 8.46516C136.388 8.33286 137.281 8.26671 138.361 8.26671C139.662 8.26671 140.842 8.39901 141.9 8.66362C142.981 8.90618 143.907 9.30308 144.679 9.85435C145.45 10.4056 146.046 11.1333 146.465 12.0373C146.906 12.9414 147.126 14.0329 147.126 15.3118V25.2676ZM143.389 17.9248C143.168 17.8807 142.749 17.8146 142.132 17.7264C141.536 17.6382 140.632 17.5941 139.42 17.5941C137.92 17.5941 136.829 17.8256 136.145 18.2887C135.461 18.7297 135.12 19.4353 135.12 20.4055C135.12 20.8024 135.186 21.1663 135.318 21.497C135.472 21.8278 135.726 22.1144 136.079 22.357C136.432 22.5775 136.906 22.7539 137.501 22.8862C138.119 22.9964 138.879 23.0516 139.783 23.0516C140.798 23.0516 141.603 23.0185 142.198 22.9523C142.793 22.8641 143.19 22.798 143.389 22.7539V17.9248Z" fill="black"/>
<path d="M151.106 5.78603C151.106 5.16862 151.283 4.72761 151.636 4.463C151.988 4.17634 152.474 4.03301 153.091 4.03301C153.488 4.03301 153.852 4.08814 154.182 4.19839C154.535 4.2866 154.767 4.35275 154.877 4.39685V8.72977H159.673C160.401 8.72977 160.908 8.88412 161.194 9.19283C161.503 9.47949 161.658 9.90947 161.658 10.4828C161.658 10.8576 161.602 11.2105 161.492 11.5412C161.382 11.8499 161.294 12.0704 161.228 12.2027H154.877V19.5786C154.877 20.1519 154.954 20.626 155.109 21.0009C155.263 21.3537 155.472 21.6403 155.737 21.8608C156.024 22.0813 156.343 22.2357 156.696 22.3239C157.071 22.4121 157.457 22.4562 157.854 22.4562C158.493 22.4562 159.089 22.357 159.64 22.1585C160.191 21.9601 160.588 21.7726 160.831 21.5962L162.352 24.11C162.176 24.2423 161.922 24.4077 161.591 24.6061C161.283 24.8046 160.897 24.992 160.434 25.1684C159.971 25.3448 159.452 25.4882 158.879 25.5984C158.306 25.7307 157.677 25.7969 156.994 25.7969C155.053 25.7969 153.587 25.3007 152.595 24.3084C151.603 23.2941 151.106 21.9711 151.106 20.3394V5.78603Z" fill="black"/>
<path d="M172.749 8.26671C174.028 8.26671 175.219 8.48722 176.321 8.92823C177.446 9.36924 178.416 9.98665 179.232 10.7805C180.048 11.5522 180.687 12.4784 181.151 13.5588C181.614 14.6173 181.845 15.7749 181.845 17.0318C181.845 18.2666 181.614 19.4243 181.151 20.5047C180.687 21.5632 180.048 22.4893 179.232 23.2831C178.416 24.0549 177.446 24.6723 176.321 25.1353C175.219 25.5764 174.028 25.7969 172.749 25.7969C171.47 25.7969 170.269 25.5764 169.144 25.1353C168.042 24.6723 167.082 24.0549 166.266 23.2831C165.451 22.4893 164.811 21.5632 164.348 20.5047C163.885 19.4243 163.653 18.2666 163.653 17.0318C163.653 15.7749 163.885 14.6173 164.348 13.5588C164.811 12.4784 165.451 11.5522 166.266 10.7805C167.082 9.98665 168.042 9.36924 169.144 8.92823C170.269 8.48722 171.47 8.26671 172.749 8.26671ZM172.749 22.4562C173.499 22.4562 174.194 22.3239 174.833 22.0593C175.473 21.7726 176.013 21.3868 176.454 20.9016C176.917 20.3945 177.27 19.8212 177.512 19.1817C177.777 18.5202 177.909 17.8036 177.909 17.0318C177.909 16.26 177.777 15.5434 177.512 14.8819C177.27 14.1983 176.917 13.614 176.454 13.1288C176.013 12.6437 175.473 12.2689 174.833 12.0043C174.194 11.7176 173.499 11.5743 172.749 11.5743C171.978 11.5743 171.272 11.7176 170.632 12.0043C170.015 12.2689 169.475 12.6437 169.012 13.1288C168.571 13.614 168.218 14.1983 167.953 14.8819C167.711 15.5434 167.589 16.26 167.589 17.0318C167.589 17.8036 167.711 18.5202 167.953 19.1817C168.218 19.8212 168.571 20.3945 169.012 20.9016C169.475 21.3868 170.015 21.7726 170.632 22.0593C171.272 22.3239 171.978 22.4562 172.749 22.4562Z" fill="black"/>
<path d="M185.02 14.6503C185.02 13.5919 185.207 12.6658 185.582 11.872C185.957 11.0781 186.464 10.4166 187.103 9.88742C187.765 9.35821 188.537 8.9613 189.419 8.6967C190.301 8.41004 191.26 8.26671 192.296 8.26671C193.663 8.26671 194.887 8.52029 195.968 9.02745C197.048 9.53461 197.908 10.2843 198.548 11.2766C199.187 10.2843 200.036 9.53461 201.094 9.02745C202.153 8.52029 203.355 8.26671 204.7 8.26671C205.714 8.26671 206.662 8.39901 207.544 8.66362C208.426 8.92823 209.187 9.32514 209.826 9.85435C210.466 10.3836 210.973 11.0451 211.348 11.8389C211.723 12.6327 211.91 13.5588 211.91 14.6173V25.3338H208.14V15.9072C208.14 14.3857 207.798 13.3053 207.114 12.6658C206.431 12.0043 205.505 11.6735 204.336 11.6735C203.211 11.6735 202.263 12.0373 201.491 12.765C200.742 13.4927 200.367 14.6724 200.367 16.3041V25.3338H196.596V16.3041C196.596 14.6724 196.21 13.4927 195.438 12.765C194.689 12.0373 193.752 11.6735 192.627 11.6735C191.48 11.6735 190.554 12.0043 189.849 12.6658C189.143 13.3273 188.79 14.4188 188.79 15.9403V25.3338H185.02V14.6503Z" fill="black"/>
<path d="M215.341 17.7925C215.341 16.249 215.561 14.8929 216.002 13.7242C216.443 12.5335 217.06 11.5412 217.854 10.7474C218.648 9.93152 219.607 9.31411 220.732 8.89515C221.856 8.47619 223.102 8.26671 224.469 8.26671C225.726 8.26671 226.884 8.48722 227.942 8.92823C229.001 9.36924 229.916 9.97563 230.688 10.7474C231.481 11.5192 232.099 12.4453 232.54 13.5258C232.981 14.6062 233.201 15.7749 233.201 17.0318C233.201 18.3107 232.981 19.4904 232.54 20.5709C232.121 21.6293 231.526 22.5444 230.754 23.3162C230.004 24.0879 229.111 24.6943 228.075 25.1353C227.06 25.5543 225.947 25.7638 224.734 25.7638C223.477 25.7638 222.364 25.5212 221.393 25.0361C220.423 24.551 219.662 23.9556 219.111 23.25V31.9489H215.341V17.7925ZM224.205 22.4231C224.955 22.4231 225.638 22.2908 226.256 22.0262C226.895 21.7396 227.435 21.3537 227.876 20.8686C228.339 20.3835 228.692 19.8101 228.935 19.1486C229.177 18.4871 229.298 17.7705 229.298 16.9987C229.298 16.249 229.177 15.5544 228.935 14.9149C228.692 14.2534 228.339 13.6911 227.876 13.2281C227.435 12.743 226.895 12.3681 226.256 12.1035C225.638 11.8168 224.955 11.6735 224.205 11.6735C223.455 11.6735 222.761 11.8058 222.121 12.0704C221.504 12.335 220.963 12.6989 220.5 13.1619C220.059 13.625 219.707 14.1873 219.442 14.8488C219.199 15.4883 219.078 16.2049 219.078 16.9987C219.078 17.7705 219.199 18.4871 219.442 19.1486C219.707 19.8101 220.059 20.3835 220.5 20.8686C220.941 21.3537 221.471 21.7396 222.088 22.0262C222.727 22.2908 223.433 22.4231 224.205 22.4231Z" fill="black"/>
<path d="M251.36 25.2676C251.14 25.3117 250.787 25.3558 250.302 25.4C249.839 25.4661 249.287 25.5212 248.648 25.5653C248.008 25.6315 247.292 25.6866 246.498 25.7307C245.704 25.7748 244.877 25.7969 244.017 25.7969C242.297 25.7969 240.886 25.6425 239.784 25.3338C238.703 25.0471 237.843 24.6613 237.204 24.1761C236.586 23.669 236.156 23.0957 235.914 22.4562C235.693 21.7947 235.583 21.1222 235.583 20.4386C235.583 19.5345 235.715 18.7407 235.98 18.0571C236.266 17.3736 236.718 16.8003 237.336 16.3372C237.975 15.8741 238.802 15.5324 239.817 15.3118C240.831 15.0693 242.066 14.948 243.521 14.948C244.359 14.948 245.153 14.9811 245.903 15.0472C246.652 15.0913 247.215 15.1354 247.589 15.1795C247.589 14.4078 247.457 13.7683 247.192 13.2611C246.95 12.754 246.608 12.3571 246.167 12.0704C245.726 11.7838 245.197 11.5853 244.579 11.4751C243.962 11.3648 243.278 11.3097 242.529 11.3097C241.272 11.3097 240.258 11.453 239.486 11.7397C238.736 12.0263 238.24 12.2689 237.997 12.4673C237.865 12.3571 237.678 12.1476 237.435 11.8389C237.215 11.5302 237.104 11.1553 237.104 10.7143C237.104 10.4056 237.182 10.1079 237.336 9.82127C237.512 9.51257 237.81 9.24796 238.229 9.02745C238.648 8.7849 239.21 8.59747 239.916 8.46516C240.621 8.33286 241.514 8.26671 242.595 8.26671C243.896 8.26671 245.076 8.39901 246.134 8.66362C247.215 8.90618 248.141 9.30308 248.912 9.85435C249.684 10.4056 250.28 11.1333 250.698 12.0373C251.14 12.9414 251.36 14.0329 251.36 15.3118V25.2676ZM247.622 17.9248C247.402 17.8807 246.983 17.8146 246.366 17.7264C245.77 17.6382 244.866 17.5941 243.653 17.5941C242.154 17.5941 241.062 17.8256 240.379 18.2887C239.695 18.7297 239.354 19.4353 239.354 20.4055C239.354 20.8024 239.42 21.1663 239.552 21.497C239.706 21.8278 239.96 22.1144 240.313 22.357C240.666 22.5775 241.14 22.7539 241.735 22.8862C242.352 22.9964 243.113 23.0516 244.017 23.0516C245.032 23.0516 245.836 23.0185 246.432 22.9523C247.027 22.8641 247.424 22.798 247.622 22.7539V17.9248Z" fill="black"/>
<path d="M255.241 14.6503C255.241 12.6217 255.858 11.0561 257.093 9.95357C258.35 8.829 260.081 8.26671 262.286 8.26671C263.675 8.26671 264.8 8.46517 265.66 8.86207C266.542 9.23693 266.983 9.82127 266.983 10.6151C266.983 10.9899 266.873 11.3538 266.652 11.7066C266.454 12.0594 266.288 12.2799 266.156 12.3681C265.781 12.1917 265.318 12.0263 264.767 11.872C264.216 11.7176 263.587 11.6404 262.881 11.6404C260.302 11.6404 259.012 13.0076 259.012 15.7418V25.3338H255.241V14.6503Z" fill="black"/>
<path d="M269.001 2.70999C269.001 2.11462 269.177 1.67361 269.53 1.38696C269.883 1.1003 270.379 0.95697 271.019 0.95697C271.416 0.95697 271.779 1.0121 272.11 1.12235C272.441 1.21055 272.661 1.2767 272.772 1.3208V14.8488C273.058 14.6503 273.455 14.3637 273.962 13.9888C274.492 13.5919 275.076 13.1619 275.715 12.6989C276.355 12.2358 277.016 11.7507 277.7 11.2435C278.383 10.7364 279.034 10.2623 279.651 9.82127C280.137 9.46846 280.578 9.20386 280.974 9.02745C281.371 8.829 281.89 8.72977 282.529 8.72977C283.124 8.72977 283.632 8.89515 284.05 9.22591C284.469 9.53462 284.734 9.79922 284.844 10.0197C284.381 10.4387 283.742 10.9569 282.926 11.5743C282.132 12.1696 281.316 12.776 280.478 13.3935C279.64 13.9888 278.847 14.5511 278.097 15.0803C277.347 15.5875 276.807 15.9623 276.476 16.2049C278.35 17.5941 280.059 19.1045 281.603 20.7363C283.146 22.346 284.447 23.8785 285.506 25.3338H280.809C280.302 24.7164 279.729 24.0769 279.089 23.4154C278.472 22.7318 277.799 22.0703 277.071 21.4309C276.366 20.7693 275.638 20.1409 274.888 19.5455C274.161 18.9281 273.455 18.3658 272.772 17.8587V25.3338H269.001V2.70999Z" fill="black"/>
<path d="M132.33 49.2447C132.408 49.3004 132.547 49.3727 132.747 49.4618C132.948 49.5508 133.193 49.6454 133.482 49.7456C133.782 49.8346 134.122 49.9125 134.5 49.9793C134.879 50.0461 135.291 50.0795 135.736 50.0795C136.314 50.0795 136.787 50.0071 137.155 49.8624C137.522 49.7066 137.706 49.4451 137.706 49.0778C137.706 48.7662 137.589 48.5324 137.355 48.3766C137.121 48.2097 136.704 48.0928 136.103 48.026L134.801 47.8758C134.356 47.8313 133.944 47.7534 133.565 47.6421C133.198 47.5196 132.881 47.3583 132.614 47.1579C132.347 46.9576 132.135 46.7128 131.979 46.4234C131.835 46.1229 131.762 45.7667 131.762 45.3549C131.762 44.9988 131.829 44.6649 131.963 44.3533C132.107 44.0305 132.33 43.7467 132.631 43.5019C132.931 43.257 133.321 43.0678 133.799 42.9343C134.289 42.7896 134.879 42.7172 135.569 42.7172C136.726 42.7172 137.622 42.8452 138.257 43.1012C138.902 43.3572 139.225 43.6911 139.225 44.1029C139.225 44.2364 139.197 44.3533 139.141 44.4534C139.097 44.5536 139.041 44.6426 138.974 44.7206C138.919 44.7985 138.858 44.8652 138.791 44.9209C138.724 44.9654 138.674 44.9932 138.641 45.0044C138.596 44.9598 138.496 44.8931 138.34 44.804C138.195 44.7039 137.995 44.6093 137.739 44.5202C137.483 44.4201 137.177 44.3366 136.821 44.2698C136.465 44.1919 136.053 44.1529 135.585 44.1529C134.294 44.1529 133.649 44.4924 133.649 45.1713C133.649 45.4607 133.771 45.6833 134.016 45.8391C134.261 45.9838 134.612 46.0839 135.068 46.1396L136.771 46.3566C137.695 46.479 138.412 46.735 138.924 47.1245C139.436 47.503 139.692 48.065 139.692 48.8107C139.692 49.6454 139.358 50.3132 138.691 50.814C138.034 51.3148 137.082 51.5653 135.836 51.5653C135.235 51.5653 134.69 51.5207 134.2 51.4317C133.71 51.3427 133.282 51.2425 132.914 51.1312C132.558 51.0088 132.269 50.8919 132.046 50.7806C131.824 50.6693 131.679 50.5859 131.612 50.5302L132.33 49.2447Z" fill="#F8BA00"/>
<path d="M153.045 42.7172C153.69 42.7172 154.291 42.8285 154.848 43.0511C155.416 43.2737 155.905 43.5853 156.317 43.986C156.729 44.3755 157.052 44.843 157.285 45.3883C157.519 45.9226 157.636 46.5069 157.636 47.1412C157.636 47.7645 157.519 48.3488 157.285 48.8942C157.052 49.4284 156.729 49.8958 156.317 50.2965C155.905 50.686 155.416 50.9976 154.848 51.2314C154.291 51.454 153.69 51.5653 153.045 51.5653C152.399 51.5653 151.793 51.454 151.225 51.2314C150.669 50.9976 150.185 50.686 149.773 50.2965C149.361 49.8958 149.038 49.4284 148.805 48.8942C148.571 48.3488 148.454 47.7645 148.454 47.1412C148.454 46.5069 148.571 45.9226 148.805 45.3883C149.038 44.843 149.361 44.3755 149.773 43.986C150.185 43.5853 150.669 43.2737 151.225 43.0511C151.793 42.8285 152.399 42.7172 153.045 42.7172ZM153.045 49.8791C153.423 49.8791 153.774 49.8123 154.097 49.6788C154.419 49.5341 154.692 49.3393 154.915 49.0945C155.148 48.8385 155.326 48.5491 155.449 48.2264C155.582 47.8925 155.649 47.5308 155.649 47.1412C155.649 46.7517 155.582 46.39 155.449 46.0561C155.326 45.7111 155.148 45.4162 154.915 45.1713C154.692 44.9265 154.419 44.7373 154.097 44.6037C153.774 44.459 153.423 44.3867 153.045 44.3867C152.655 44.3867 152.299 44.459 151.976 44.6037C151.665 44.7373 151.392 44.9265 151.158 45.1713C150.936 45.4162 150.758 45.7111 150.624 46.0561C150.502 46.39 150.441 46.7517 150.441 47.1412C150.441 47.5308 150.502 47.8925 150.624 48.2264C150.758 48.5491 150.936 48.8385 151.158 49.0945C151.392 49.3393 151.665 49.5341 151.976 49.6788C152.299 49.8123 152.655 49.8791 153.045 49.8791Z" fill="#F8BA00"/>
<path d="M166.801 42.4334C166.801 41.8324 166.884 41.3149 167.051 40.8808C167.218 40.4468 167.452 40.0962 167.752 39.8291C168.064 39.5509 168.426 39.3505 168.837 39.2281C169.26 39.0945 169.722 39.0278 170.223 39.0278C171.136 39.0278 171.781 39.1391 172.16 39.3617C172.538 39.5731 172.727 39.8458 172.727 40.1797C172.727 40.3689 172.672 40.5358 172.56 40.6805C172.46 40.8252 172.349 40.9365 172.226 41.0144C172.048 40.8697 171.803 40.7529 171.492 40.6638C171.191 40.5748 170.869 40.5303 170.524 40.5303C169.867 40.5303 169.399 40.6972 169.121 41.0311C168.843 41.365 168.704 41.838 168.704 42.4501V42.951H171.208C171.575 42.951 171.831 43.0289 171.976 43.1847C172.132 43.3294 172.21 43.5464 172.21 43.8358C172.21 44.025 172.182 44.203 172.126 44.37C172.071 44.5258 172.026 44.6371 171.993 44.7039H168.704V51.3315H166.801V42.4334Z" fill="#F8BA00"/>
<path d="M180.574 41.4652C180.574 41.1535 180.663 40.9309 180.841 40.7974C181.019 40.6527 181.264 40.5803 181.575 40.5803C181.776 40.5803 181.959 40.6082 182.126 40.6638C182.304 40.7083 182.421 40.7417 182.477 40.764V42.951H184.897C185.265 42.951 185.521 43.0289 185.665 43.1847C185.821 43.3294 185.899 43.5464 185.899 43.8358C185.899 44.025 185.871 44.203 185.816 44.37C185.76 44.5258 185.715 44.6371 185.682 44.7039H182.477V48.4267C182.477 48.7161 182.516 48.9554 182.594 49.1446C182.672 49.3226 182.777 49.4673 182.911 49.5786C183.055 49.6899 183.217 49.7678 183.395 49.8123C183.584 49.8569 183.779 49.8791 183.979 49.8791C184.302 49.8791 184.602 49.829 184.881 49.7289C185.159 49.6287 185.359 49.5341 185.482 49.4451L186.25 50.7138C186.161 50.7806 186.033 50.8641 185.866 50.9643C185.71 51.0644 185.515 51.159 185.281 51.2481C185.048 51.3371 184.786 51.4094 184.497 51.4651C184.207 51.5319 183.89 51.5653 183.545 51.5653C182.566 51.5653 181.826 51.3148 181.325 50.814C180.824 50.302 180.574 49.6343 180.574 48.8107V41.4652Z" fill="#F8BA00"/>
<path d="M196.673 51.3315C196.127 50.0516 195.677 48.9665 195.32 48.0761C194.975 47.1858 194.697 46.4512 194.486 45.8725C194.285 45.2826 194.141 44.8319 194.052 44.5202C193.974 44.1975 193.935 43.9693 193.935 43.8358C193.935 43.602 194.013 43.3961 194.169 43.2181C194.324 43.04 194.564 42.951 194.886 42.951C195.131 42.951 195.32 42.9732 195.454 43.0177C195.599 43.0622 195.693 43.0956 195.738 43.1179C195.871 43.6076 196.022 44.1307 196.189 44.6872C196.356 45.2325 196.528 45.7779 196.706 46.3232C196.884 46.8686 197.057 47.3917 197.224 47.8925C197.402 48.3822 197.558 48.8218 197.691 49.2113C197.813 48.8663 197.941 48.4712 198.075 48.026C198.22 47.5809 198.364 47.1245 198.509 46.6571C198.665 46.1785 198.815 45.7 198.96 45.2214C199.105 44.7317 199.238 44.2698 199.36 43.8358C199.45 43.5464 199.572 43.3294 199.728 43.1847C199.895 43.0289 200.156 42.951 200.512 42.951C200.735 42.951 200.935 42.9843 201.113 43.0511C201.291 43.1068 201.403 43.1457 201.447 43.168C201.592 43.6688 201.748 44.1975 201.915 44.7539C202.082 45.2993 202.249 45.8391 202.416 46.3733C202.583 46.9075 202.744 47.4195 202.9 47.9092C203.067 48.3989 203.217 48.8329 203.35 49.2113C203.64 48.4434 203.935 47.6031 204.235 46.6905C204.547 45.7779 204.831 44.8652 205.087 43.9526C205.187 43.6076 205.315 43.3572 205.471 43.2014C205.638 43.0344 205.888 42.951 206.222 42.951C206.522 42.951 206.767 43.001 206.956 43.1012C207.146 43.2014 207.251 43.2626 207.274 43.2848C207.185 43.6521 207.029 44.1585 206.806 44.804C206.584 45.4495 206.333 46.1507 206.055 46.9075C205.777 47.6532 205.482 48.4211 205.17 49.2113C204.859 49.9904 204.564 50.6971 204.285 51.3315H202.315C202.226 51.0978 202.104 50.7584 201.948 50.3132C201.803 49.8569 201.642 49.3616 201.464 48.8274C201.286 48.2932 201.108 47.7478 200.93 47.1913C200.763 46.6237 200.607 46.1062 200.462 45.6387C200.318 46.1062 200.156 46.6237 199.978 47.1913C199.811 47.7478 199.639 48.2932 199.461 48.8274C199.294 49.3616 199.138 49.8569 198.993 50.3132C198.849 50.7584 198.732 51.0978 198.643 51.3315H196.673Z" fill="#F8BA00"/>
<path d="M223.441 51.2981C223.329 51.3204 223.151 51.3427 222.906 51.3649C222.673 51.3983 222.394 51.4261 222.072 51.4484C221.749 51.4818 221.387 51.5096 220.987 51.5319C220.586 51.5541 220.168 51.5653 219.734 51.5653C218.866 51.5653 218.154 51.4873 217.598 51.3315C217.052 51.1868 216.618 50.9921 216.295 50.7472C215.984 50.4912 215.767 50.2019 215.644 49.8791C215.533 49.5452 215.477 49.2058 215.477 48.8608C215.477 48.4045 215.544 48.0038 215.678 47.6588C215.822 47.3138 216.051 47.0244 216.362 46.7907C216.685 46.5569 217.102 46.3844 217.614 46.2731C218.126 46.1507 218.749 46.0895 219.484 46.0895C219.907 46.0895 220.308 46.1062 220.686 46.1396C221.064 46.1618 221.348 46.1841 221.537 46.2064C221.537 45.8168 221.471 45.4941 221.337 45.2381C221.215 44.9821 221.042 44.7818 220.82 44.6371C220.597 44.4924 220.33 44.3922 220.018 44.3366C219.707 44.2809 219.362 44.2531 218.983 44.2531C218.349 44.2531 217.837 44.3255 217.447 44.4701C217.069 44.6148 216.818 44.7373 216.696 44.8374C216.629 44.7818 216.535 44.676 216.412 44.5202C216.301 44.3644 216.245 44.1752 216.245 43.9526C216.245 43.7968 216.284 43.6466 216.362 43.5019C216.451 43.3461 216.601 43.2125 216.813 43.1012C217.024 42.9788 217.308 42.8842 217.664 42.8174C218.02 42.7506 218.471 42.7172 219.017 42.7172C219.673 42.7172 220.269 42.784 220.803 42.9176C221.348 43.04 221.816 43.2403 222.205 43.5186C222.595 43.7968 222.895 44.1641 223.107 44.6204C223.329 45.0767 223.441 45.6276 223.441 46.2731V51.2981ZM221.554 47.592C221.443 47.5697 221.231 47.5363 220.92 47.4918C220.619 47.4473 220.163 47.425 219.551 47.425C218.794 47.425 218.243 47.5419 217.898 47.7756C217.553 47.9982 217.381 48.3544 217.381 48.8441C217.381 49.0444 217.414 49.228 217.481 49.395C217.559 49.5619 217.687 49.7066 217.865 49.829C218.043 49.9403 218.282 50.0294 218.583 50.0961C218.894 50.1518 219.278 50.1796 219.734 50.1796C220.246 50.1796 220.653 50.1629 220.953 50.1295C221.254 50.085 221.454 50.0516 221.554 50.0294V47.592Z" fill="#F8BA00"/>
<path d="M232.912 45.9392C232.912 44.9153 233.224 44.1251 233.847 43.5686C234.481 43.001 235.355 42.7172 236.468 42.7172C237.169 42.7172 237.737 42.8174 238.171 43.0177C238.616 43.2069 238.838 43.5019 238.838 43.9025C238.838 44.0917 238.783 44.2754 238.671 44.4534C238.571 44.6315 238.488 44.7428 238.421 44.7873C238.232 44.6983 237.998 44.6148 237.72 44.5369C237.442 44.459 237.124 44.4201 236.768 44.4201C235.466 44.4201 234.815 45.1101 234.815 46.4902V51.3315H232.912V45.9392Z" fill="#F8BA00"/>
<path d="M254.669 50.7138C254.58 50.7695 254.441 50.8474 254.252 50.9476C254.062 51.0477 253.823 51.1423 253.534 51.2314C253.255 51.3204 252.927 51.3983 252.549 51.4651C252.181 51.5319 251.775 51.5653 251.33 51.5653C250.707 51.5653 250.122 51.4707 249.577 51.2814C249.043 51.0922 248.57 50.814 248.158 50.4467C247.757 50.0683 247.44 49.612 247.206 49.0778C246.973 48.5324 246.856 47.9092 246.856 47.208C246.856 46.5402 246.967 45.9337 247.19 45.3883C247.424 44.8319 247.741 44.3588 248.141 43.9693C248.553 43.5686 249.032 43.2626 249.577 43.0511C250.134 42.8285 250.74 42.7172 251.397 42.7172C251.976 42.7172 252.487 42.7951 252.933 42.951C253.378 43.0956 253.751 43.296 254.051 43.5519C254.363 43.7968 254.597 44.0862 254.752 44.4201C254.908 44.7539 254.986 45.1101 254.986 45.4885C254.986 45.878 254.914 46.2342 254.769 46.5569C254.624 46.8686 254.368 47.1412 254.001 47.375C253.634 47.5976 253.139 47.7756 252.515 47.9092C251.892 48.0316 251.102 48.0928 250.145 48.0928C249.922 48.0928 249.711 48.0928 249.51 48.0928C249.321 48.0817 249.115 48.0706 248.893 48.0594C248.982 48.627 249.254 49.0889 249.711 49.4451C250.178 49.7901 250.84 49.9626 251.697 49.9626C251.987 49.9626 252.254 49.9403 252.499 49.8958C252.743 49.8513 252.96 49.7956 253.15 49.7289C253.35 49.6621 253.517 49.5953 253.651 49.5285C253.795 49.4618 253.901 49.4117 253.968 49.3783L254.669 50.7138ZM248.809 46.7573C249.065 46.7684 249.31 46.774 249.544 46.774C249.777 46.774 250.011 46.774 250.245 46.774C250.857 46.774 251.352 46.735 251.731 46.6571C252.109 46.5792 252.404 46.479 252.615 46.3566C252.827 46.2342 252.966 46.0951 253.033 45.9392C253.1 45.7834 253.133 45.6221 253.133 45.4551C253.133 45.0322 252.96 44.715 252.615 44.5035C252.282 44.2921 251.864 44.1863 251.363 44.1863C250.952 44.1863 250.59 44.2587 250.278 44.4034C249.967 44.548 249.705 44.7428 249.494 44.9877C249.282 45.2214 249.115 45.4941 248.993 45.8057C248.881 46.1173 248.82 46.4345 248.809 46.7573Z" fill="#F8BA00"/>
</svg>
