<svg width="51" height="51" viewBox="0 0 51 51" fill="none" xmlns="http://www.w3.org/2000/svg">
<path d="M15.8028 10.3534C17.9577 10.0179 20.1606 10.6889 21.7408 12.2707L32.0845 22.5282L40.8 5.12876C36.538 1.91729 31.2225 0 25.4761 0C11.3972 0 0 11.4079 0 25.5C0 28.2321 0.430986 30.8205 1.19718 33.265L10.8225 13.9962C11.7803 12.0789 13.6479 10.6889 15.8028 10.3534Z" fill="white"/>
<path d="M35.0535 40.7903C32.8985 41.1258 30.6957 40.4548 29.1633 38.873L18.8197 28.5676L10.2 45.8711C14.4619 49.0826 19.7295 50.952 25.476 50.952H50.9999V26.123L50.9521 26.171C50.9521 25.9313 50.9521 25.6916 50.9521 25.4999C50.9521 22.8157 50.5211 20.1794 49.7549 17.7349L40.0338 37.0995C39.076 39.0648 37.2084 40.4548 35.0535 40.7903Z" fill="white"/>
</svg>
