<svg width="30" height="31" viewBox="0 0 30 31" fill="none" xmlns="http://www.w3.org/2000/svg">
<path d="M3.42042 7.34558C1.56769 7.34558 0 5.77949 0 3.92865C0 2.07781 1.56769 0.511719 3.42042 0.511719C5.27315 0.511719 6.84084 2.07781 6.84084 3.92865C6.84084 5.77949 5.27315 7.34558 3.42042 7.34558Z" fill="#B8E56B"/>
<path d="M26.5796 7.34558H13.753C11.9003 7.34558 10.3326 5.77949 10.3326 3.92865C10.3326 2.07781 11.9003 0.511719 13.753 0.511719H26.5796C28.4323 0.511719 30 2.07781 30 3.92865C30 5.77949 28.4323 7.34558 26.5796 7.34558Z" fill="#0637A3"/>
<path d="M3.42042 18.6532C1.56769 18.6532 0 17.0871 0 15.2363C0 13.3854 1.56769 11.8193 3.42042 11.8193C5.27315 11.8193 6.84084 13.3854 6.84084 15.2363C6.84084 17.0871 5.27315 18.6532 3.42042 18.6532Z" fill="#0A1179"/>
<path d="M26.5796 18.6532H13.753C11.9003 18.6532 10.3326 17.0871 10.3326 15.2363C10.3326 13.3854 11.9003 11.8193 13.753 11.8193H26.5796C28.4323 11.8193 30 13.3854 30 15.2363C30 17.0871 28.4323 18.6532 26.5796 18.6532Z" fill="#0637A3"/>
<path d="M3.42042 30.5121C1.56769 30.5121 0 28.946 0 27.0952C0 25.2443 1.56769 23.6782 3.42042 23.6782C5.27315 23.6782 6.84084 25.2443 6.84084 27.0952C6.84084 28.946 5.27315 30.5121 3.42042 30.5121Z" fill="#66CFFA"/>
<path d="M26.5796 30.5121H13.753C11.9003 30.5121 10.3326 28.946 10.3326 27.0952C10.3326 25.2443 11.9003 23.6782 13.753 23.6782H26.5796C28.4323 23.6782 30 25.2443 30 27.0952C30 28.946 28.4323 30.5121 26.5796 30.5121Z" fill="#0637A3"/>
</svg>
