<svg width="25" height="26" viewBox="0 0 25 26" fill="none" xmlns="http://www.w3.org/2000/svg">
<path d="M25 13.3408C25 6.43726 19.4036 0.84082 12.5 0.84082C5.59644 0.84082 0 6.43726 0 13.3408V25.8408H12.5C19.4036 25.8408 25 20.2444 25 13.3408Z" fill="#66CFFA"/>
<path d="M9.95227 12.1942C9.47223 12.4343 9.26726 13.0104 9.48786 13.4997C10.1622 14.9953 11.366 16.1991 12.8616 16.8735C13.3509 17.0941 13.9271 16.8891 14.1671 16.4091L14.5691 15.6051L16.1875 16.1446V17.5072C16.1875 17.5302 16.1688 17.5488 16.1458 17.5488H15.625C11.8626 17.5488 8.8125 14.4988 8.8125 10.7363V10.2155C8.8125 10.1925 8.83116 10.1738 8.85417 10.1738H10.2167L10.7562 11.7923L9.95227 12.1942ZM16.5151 16.2538C16.515 16.2538 16.5149 16.2537 16.5148 16.2537L16.5151 16.2538Z" stroke="white" stroke-width="2" stroke-linecap="round" stroke-linejoin="round"/>
</svg>
