<svg width="400" height="347" viewBox="0 0 400 347" fill="none" xmlns="http://www.w3.org/2000/svg">
<path d="M0.214966 59.3496C0.214966 39.4674 16.3327 23.3496 36.215 23.3496C56.0972 23.3496 72.215 39.4674 72.215 59.3496V95.3496H36.215C16.3327 95.3496 0.214966 79.2319 0.214966 59.3496Z" fill="#66CFFA"/>
<g clip-path="url(#clip0)">
<path d="M35.9293 46.2935C29.5007 46.2935 24.215 51.4463 24.215 57.7132V65.0942H47.6435V57.7132C47.6435 51.4463 42.3578 46.2935 35.9293 46.2935Z" fill="white"/>
<path d="M44.4293 61.4038V56.808C44.4293 53.2568 41.5007 50.4019 37.8578 50.4019" stroke="#6DC5EE" stroke-width="2" stroke-miterlimit="10" stroke-linecap="round" stroke-linejoin="round"/>
<path d="M36.0007 48.0343C34.1435 48.0343 32.5721 46.5024 32.5721 44.692C32.5721 42.8815 34.0721 41.3496 36.0007 41.3496C37.8578 41.3496 39.4292 42.8815 39.4292 44.692C39.4292 46.5024 37.8578 48.0343 36.0007 48.0343Z" fill="#B8E56B"/>
<path d="M36.0007 77.3498C34.1435 77.3498 32.5721 75.8178 32.5721 74.0074C32.5721 72.197 34.1435 70.665 36.0007 70.665C37.8578 70.665 39.4292 72.197 39.4292 74.0074C39.4292 75.8178 37.8578 77.3498 36.0007 77.3498Z" fill="white"/>
<path d="M47.7864 73.5895H24.6435C22.7864 73.5895 21.215 72.0576 21.215 70.2471C21.215 68.4367 22.7864 66.9048 24.6435 66.9048H47.7864C49.6435 66.9048 51.215 68.4367 51.215 70.2471C51.215 72.0576 49.6435 73.5895 47.7864 73.5895Z" fill="#0637A3"/>
</g>
<circle r="4.33371" transform="matrix(1 0 0 -1 4.54868 280.702)" fill="#66CFFA" fill-opacity="0.2"/>
<circle r="4.33371" transform="matrix(1 0 0 -1 19.7914 280.702)" fill="#66CFFA" fill-opacity="0.2"/>
<circle r="4.33371" transform="matrix(1 0 0 -1 35.0341 280.702)" fill="#66CFFA" fill-opacity="0.2"/>
<circle r="4.33371" transform="matrix(1 0 0 -1 50.2768 280.702)" fill="#66CFFA" fill-opacity="0.2"/>
<circle r="4.33371" transform="matrix(1 0 0 -1 65.5194 280.702)" fill="#66CFFA" fill-opacity="0.2"/>
<circle r="4.33371" transform="matrix(1 0 0 -1 4.54868 266.026)" fill="#66CFFA" fill-opacity="0.2"/>
<circle r="4.33371" transform="matrix(1 0 0 -1 19.7914 266.026)" fill="#66CFFA" fill-opacity="0.2"/>
<circle r="4.33371" transform="matrix(1 0 0 -1 35.0341 266.026)" fill="#66CFFA" fill-opacity="0.2"/>
<circle r="4.33371" transform="matrix(1 0 0 -1 50.2768 266.026)" fill="#66CFFA" fill-opacity="0.2"/>
<circle r="4.33371" transform="matrix(1 0 0 -1 65.5194 266.026)" fill="#66CFFA" fill-opacity="0.2"/>
<circle r="4.33371" transform="matrix(1 0 0 -1 4.54868 251.35)" fill="#66CFFA" fill-opacity="0.2"/>
<circle r="4.33371" transform="matrix(1 0 0 -1 19.7914 251.35)" fill="#66CFFA" fill-opacity="0.2"/>
<circle r="4.33371" transform="matrix(1 0 0 -1 35.0341 251.35)" fill="#66CFFA" fill-opacity="0.2"/>
<circle r="4.33371" transform="matrix(1 0 0 -1 50.2768 251.35)" fill="#66CFFA" fill-opacity="0.2"/>
<circle r="4.33371" transform="matrix(1 0 0 -1 65.5194 251.35)" fill="#66CFFA" fill-opacity="0.2"/>
<circle r="4.33371" transform="matrix(1 0 0 -1 4.54868 236.674)" fill="#66CFFA" fill-opacity="0.2"/>
<circle r="4.33371" transform="matrix(1 0 0 -1 19.7914 236.674)" fill="#66CFFA" fill-opacity="0.2"/>
<circle r="4.33371" transform="matrix(1 0 0 -1 35.0341 236.674)" fill="#66CFFA" fill-opacity="0.2"/>
<circle r="4.33371" transform="matrix(1 0 0 -1 50.2768 236.674)" fill="#66CFFA" fill-opacity="0.2"/>
<circle r="4.33371" transform="matrix(1 0 0 -1 65.5194 236.674)" fill="#66CFFA" fill-opacity="0.2"/>
<circle r="4.33371" transform="matrix(1 0 0 -1 4.54868 221.997)" fill="#66CFFA" fill-opacity="0.2"/>
<circle r="4.33371" transform="matrix(1 0 0 -1 19.7914 221.997)" fill="#66CFFA" fill-opacity="0.2"/>
<circle r="4.33371" transform="matrix(1 0 0 -1 35.0341 221.997)" fill="#66CFFA" fill-opacity="0.2"/>
<circle r="4.33371" transform="matrix(1 0 0 -1 50.2768 221.997)" fill="#66CFFA" fill-opacity="0.2"/>
<circle r="4.33371" transform="matrix(1 0 0 -1 65.5194 221.997)" fill="#66CFFA" fill-opacity="0.2"/>
<circle cx="314.767" cy="80.4554" r="21.1058" fill="#0A1179"/>
<path d="M357.775 151.966L389.133 120.608L338.825 137.39C337.79 137.72 337.059 138.645 336.977 139.728C336.9 140.812 337.49 141.834 338.466 142.311L357.775 151.966Z" fill="white"/>
<path d="M361.546 155.737L371.201 175.045C371.582 175.816 372.313 176.356 373.162 176.494C374.011 176.633 374.874 176.353 375.481 175.743C375.774 175.446 375.994 175.085 376.122 174.687L392.904 124.379L361.546 155.737Z" fill="white"/>
<circle cx="111.69" cy="95.3497" r="8.7125" stroke="white" stroke-width="3"/>
<path d="M298.601 281.378L335.872 259.512C333.694 256.289 330.07 254.344 326.18 254.311H271.021C267.111 254.309 263.453 256.242 261.25 259.472L298.601 281.378Z" fill="#F4F5F7"/>
<path d="M302.541 288.155C301.344 288.85 299.985 289.216 298.601 289.219C297.22 289.228 295.862 288.875 294.661 288.195L259.202 267.431V305.53C259.202 312.058 264.494 317.35 271.021 317.35H326.18C332.708 317.35 338 312.058 338 305.53V267.431L302.541 288.155Z" fill="#F4F5F7"/>
<path d="M221.095 32.2446C222.568 24.0391 212.077 19.333 206.929 25.89L84.6509 181.616C80.529 186.865 84.2686 194.557 90.9429 194.557H135.172C140.156 194.557 143.927 199.065 143.046 203.971L123.192 314.529C121.718 322.735 132.209 327.441 137.358 320.884L259.636 165.158C263.758 159.909 260.018 152.217 253.344 152.217H209.115C204.131 152.217 200.36 147.709 201.241 142.803L221.095 32.2446Z" fill="#0A1179"/>
<path d="M347.621 164.513C342.931 227.756 257.337 253.268 230.458 227.756C203.578 202.244 211.38 167.648 225.633 147.093C239.887 126.539 285.4 128.92 273.877 167.648C262.354 206.375 170.209 209.805 125.011 145.053" stroke="#B8E56B" stroke-width="3" stroke-linecap="round"/>
<defs>
<clipPath id="clip0">
<rect width="30" height="36" fill="white" transform="translate(21.215 41.3496)"/>
</clipPath>
</defs>
</svg>
