<svg width="286" height="304" viewBox="0 0 286 304" fill="none" xmlns="http://www.w3.org/2000/svg">
<path d="M134.418 37.1104C138.041 29.5192 148.846 29.5192 152.469 37.1104L182.165 99.3429C183.622 102.398 186.527 104.508 189.883 104.951L258.246 113.962C266.585 115.061 269.924 125.338 263.824 131.129L213.814 178.602C211.359 180.933 210.249 184.347 210.866 187.676L223.42 255.477C224.952 263.748 216.21 270.099 208.817 266.087L148.214 233.195C145.239 231.58 141.649 231.58 138.673 233.195L78.0697 266.087C70.6772 270.099 61.9353 263.748 63.4667 255.477L76.0216 187.676C76.6379 184.347 75.5285 180.933 73.0735 178.602L23.0634 131.129C16.9631 125.338 20.3023 115.061 28.6413 113.962L97.0044 104.951C100.36 104.508 103.265 102.398 104.723 99.3429L134.418 37.1104Z" fill="#66CFFA"/>
<path d="M173.524 146.424C172.708 138.41 165.927 132.157 157.683 132.157C151.075 132.157 145.41 136.174 143 141.893C140.59 136.174 134.924 132.157 128.317 132.157C120.073 132.157 113.292 138.41 112.476 146.424C112.422 146.958 112.394 147.5 112.394 148.049C112.394 163.518 127.633 172.444 137.223 182.004C140.057 184.829 145.943 184.829 148.777 182.004C158.367 172.444 173.606 163.519 173.606 148.049C173.606 147.5 173.578 146.958 173.524 146.424Z" fill="#0A1179"/>
<circle cx="31.2215" cy="31.1158" r="30.7208" fill="#B8E56B"/>
<path d="M42.762 28.5176C44.762 29.6723 44.762 32.5591 42.762 33.7138L27.7012 42.4091C25.7012 43.5638 23.2012 42.1204 23.2012 39.811L23.2012 22.4204C23.2012 20.111 25.7012 18.6676 27.7012 19.8223L42.762 28.5176Z" fill="white"/>
<path fill-rule="evenodd" clip-rule="evenodd" d="M91.2908 71.1093L93.1518 71.7202C93.7305 71.9156 94.1194 72.459 94.1179 73.0698V78.5108C94.1492 79.1513 93.7476 79.7333 93.1376 79.9314L91.2908 80.5422L92.3279 82.2612C92.6079 82.808 92.5048 83.4729 92.0722 83.9091L88.1655 87.8158C87.7292 88.2484 87.0644 88.3516 86.5176 88.0715L84.7844 87.1907L84.1735 89.0375C83.9755 89.6475 83.3934 90.0491 82.7529 90.0178H77.2409C76.6004 90.0491 76.0183 89.6475 75.8203 89.0375L75.2094 87.1907L73.4763 88.0857C72.9295 88.3658 72.2646 88.2626 71.8283 87.83L67.9358 84.0654C67.5033 83.6291 67.4001 82.9643 67.6801 82.4175L68.5609 80.6843L66.7141 80.0734C66.1042 79.8754 65.7025 79.2933 65.7339 78.6528V73.1408C65.7025 72.5003 66.1042 71.9182 66.7141 71.7202L68.5609 71.1093L67.6659 69.3762C67.3859 68.8294 67.489 68.1645 67.9216 67.7282L71.8283 63.8215C72.2646 63.3889 72.9295 63.2858 73.4763 63.5658L75.2094 64.4608L75.7493 62.614C75.9473 62.0041 76.5294 61.6025 77.1699 61.6338H82.6108C83.2514 61.6025 83.8334 62.0041 84.0315 62.614L84.6423 64.4608L86.3755 63.5658C86.9223 63.2858 87.5872 63.3889 88.0234 63.8215L91.9159 67.7282C92.3485 68.1645 92.4517 68.8294 92.1716 69.3762L91.2908 71.1093ZM72.8227 75.8257C72.8227 79.7486 76.0029 82.9288 79.9258 82.9288C83.8487 82.9288 87.0289 79.7486 87.0289 75.8257C87.0289 71.9028 83.8487 68.7226 79.9258 68.7226C76.0029 68.7226 72.8227 71.9028 72.8227 75.8257Z" fill="#0637A3"/>
<circle cx="79.9259" cy="75.8258" r="4.26186" fill="#0637A3"/>
<path d="M244.314 80.7403C244.641 80.7403 245.05 80.7403 245.377 80.7403C267.463 80.7403 285.377 62.8445 285.377 40.7811C285.377 18.7178 267.545 0.740234 245.377 0.740234C223.292 0.740234 205.377 18.6361 205.377 40.6994V80.7403H244.396H244.314Z" fill="#0637A3"/>
<path d="M257.484 46.5012H230.981C228.854 46.5012 227.054 44.7035 227.054 42.5789C227.054 40.4542 228.854 38.6565 230.981 38.6565H257.484C259.611 38.6565 261.41 40.4542 261.41 42.5789C261.41 44.7852 259.611 46.5012 257.484 46.5012Z" fill="white"/>
<path d="M230.899 59.9029C228.772 59.9029 226.973 58.1051 226.973 55.9805C226.973 53.8559 228.772 52.0581 230.899 52.0581C233.026 52.0581 234.825 53.8559 234.825 55.9805C234.825 58.1051 233.026 59.9029 230.899 59.9029Z" fill="#B8E56B"/>
<path d="M257.484 59.9029H242.76C240.633 59.9029 238.833 58.1051 238.833 55.9805C238.833 53.8559 240.633 52.0581 242.76 52.0581H257.484C259.611 52.0581 261.41 53.8559 261.41 55.9805C261.41 58.1051 259.611 59.9029 257.484 59.9029Z" fill="white"/>
<path d="M257.484 25.582C259.611 25.582 261.41 27.3798 261.41 29.5044C261.41 31.629 259.611 33.4268 257.484 33.4268C255.357 33.4268 253.557 31.629 253.557 29.5044C253.557 27.3798 255.275 25.582 257.484 25.582Z" fill="#66CFFA"/>
<path d="M230.981 25.582H245.705C247.832 25.582 249.631 27.3798 249.631 29.5044C249.631 31.629 247.832 33.4268 245.705 33.4268H230.981C228.854 33.4268 227.055 31.629 227.055 29.5044C227.055 27.3798 228.854 25.582 230.981 25.582Z" fill="white"/>
</svg>
