<svg width="286" height="269" viewBox="0 0 286 269" fill="none" xmlns="http://www.w3.org/2000/svg">
<path d="M23.3003 91.5732C19.2696 95.3846 19.1116 101.748 22.9481 105.755L135.501 223.3C139.438 227.412 146.009 227.412 149.946 223.3L262.499 105.755C266.336 101.748 266.178 95.3846 262.147 91.5732L212.362 44.497C210.506 42.7412 208.047 41.7629 205.492 41.7629H79.9558C77.4004 41.7629 74.9419 42.7412 73.0851 44.497L23.3003 91.5732Z" fill="#0637A3"/>
<path d="M157.733 104.596C157.733 100.338 155.987 96.487 153.172 93.7207C150.421 91.0174 146.649 89.3499 142.487 89.3499C134.066 89.3499 127.24 96.1759 127.24 104.596C127.24 113.017 134.066 119.843 142.487 119.843" stroke="white" stroke-width="10" stroke-linecap="round"/>
<path d="M127.714 135.089C127.714 143.51 134.54 150.336 142.96 150.336C151.381 150.336 158.207 143.51 158.207 135.089C158.207 126.669 151.381 119.843 142.96 119.843" stroke="white" stroke-width="10" stroke-linecap="round"/>
<path d="M143.031 89.3505L143.031 79.8684" stroke="white" stroke-width="10" stroke-linecap="round"/>
<path d="M143.031 159.818L143.031 150.336" stroke="white" stroke-width="10" stroke-linecap="round"/>
<path d="M232.844 1.98367C233.036 0.371653 235.375 0.371653 235.566 1.98367L237.171 15.507C239.243 32.9694 253.011 46.7371 270.473 48.8091L283.996 50.4137C285.608 50.6051 285.608 52.9443 283.996 53.1357L270.473 54.7403C253.011 56.8123 239.243 70.58 237.171 88.0422L235.566 101.566C235.375 103.178 233.036 103.178 232.844 101.566L231.24 88.0422C229.168 70.58 215.4 56.8123 197.938 54.7403L184.414 53.1357C182.802 52.9443 182.802 50.6051 184.414 50.4137L197.938 48.8091C215.4 46.7371 229.168 32.9694 231.24 15.507L232.844 1.98367Z" fill="#66CFFA"/>
<path d="M201.987 83.9357C202.059 83.3258 202.944 83.3258 203.017 83.9357L203.624 89.0525C204.408 95.6596 209.617 100.869 216.224 101.653L221.341 102.26C221.951 102.332 221.951 103.217 221.341 103.29L216.224 103.897C209.617 104.681 204.408 109.89 203.624 116.497L203.017 121.614C202.944 122.224 202.059 122.224 201.987 121.614L201.38 116.497C200.596 109.89 195.387 104.681 188.78 103.897L183.663 103.29C183.053 103.217 183.053 102.332 183.663 102.26L188.78 101.653C195.387 100.869 200.596 95.6596 201.38 89.0525L201.987 83.9357Z" fill="#66CFFA"/>
<path d="M148.764 263.321L203.371 205.769L228.732 230.088L273.375 185.445" stroke="#0A1179" stroke-width="10" stroke-linecap="round" stroke-linejoin="round"/>
<path d="M256.49 178.538H280.284V202.855" stroke="#0A1179" stroke-width="10" stroke-linecap="round" stroke-linejoin="round"/>
<path d="M41.2573 187.788C40.9301 187.788 40.5211 187.788 40.1939 187.788C18.108 187.788 0.193853 205.684 0.193851 227.748C0.193849 249.811 18.0262 267.789 40.1938 267.789C62.2797 267.789 80.1938 249.893 80.1939 227.829L80.1939 187.788L41.1754 187.788L41.2573 187.788Z" fill="#B8E56B"/>
<circle cx="20.7574" cy="11.8507" r="11.1549" fill="#0A1179"/>
<path d="M22.4895 229.201C22.4895 226.848 24.397 224.94 26.7499 224.94C29.1029 224.94 31.0103 226.848 31.0103 229.201V246.851H22.4895V229.201Z" fill="white"/>
<path d="M35.9333 220.566C35.9333 218.213 37.8408 216.305 40.1938 216.305C42.5467 216.305 44.4542 218.213 44.4542 220.566V246.851H35.9333V220.566Z" fill="white"/>
<path d="M49.3774 212.986C49.3774 210.633 51.2849 208.726 53.6379 208.726C55.9908 208.726 57.8983 210.633 57.8983 212.986V246.851H49.3774V212.986Z" fill="white"/>
<path d="M44.4542 98.0118L81.0848 61.3813" stroke="#0A1179" stroke-width="10" stroke-linecap="round" stroke-linejoin="round"/>
</svg>
