<svg width="287" height="269" viewBox="0 0 287 269" fill="none" xmlns="http://www.w3.org/2000/svg">
<path d="M124.789 19.4975C55.9594 19.4975 0.162229 75.2947 0.16223 144.124C0.16223 180.352 0.420471 268.767 0.420471 268.767C0.420471 268.767 92.1877 268.75 124.789 268.75C193.618 268.75 249.415 212.953 249.415 144.124C249.415 75.2947 193.618 19.4975 124.789 19.4975Z" fill="#0637A3"/>
<circle cx="124.789" cy="144.406" r="87.44" fill="white"/>
<circle cx="124.789" cy="144.406" r="57.3081" fill="#0637A3"/>
<path d="M245.219 79.8988C245.545 79.8988 245.953 79.8988 246.279 79.8988C268.3 79.8988 286.162 62.0552 286.162 40.0563C286.162 18.0574 268.382 0.132324 246.279 0.132324C224.258 0.132324 206.396 17.9759 206.396 39.9748V79.8988H245.3H245.219Z" fill="#B8E56B"/>
<circle cx="124.789" cy="144.406" r="29.1209" fill="#66CFFA"/>
<g clip-path="url(#clip0)">
<path d="M124.456 140.694C128.286 140.694 131.392 137.619 131.392 133.826C131.392 130.032 128.286 126.957 124.456 126.957C120.625 126.957 117.519 130.032 117.519 133.826C117.519 137.619 120.625 140.694 124.456 140.694Z" fill="white"/>
<path d="M129.15 161.855H120.041C115.417 161.855 111.634 158.108 111.634 153.529C111.634 148.95 115.417 145.204 120.041 145.204H129.15C133.774 145.204 137.558 148.95 137.558 153.529C137.558 158.108 133.774 161.855 129.15 161.855Z" fill="#0A1179"/>
</g>
<g clip-path="url(#clip1)">
<path d="M246.279 54.4732C245.129 54.4732 243.978 53.9966 243.134 53.1228L233.624 43.2725C231.86 41.4454 231.86 38.5062 233.624 36.7586C235.388 34.9315 238.226 34.9315 239.913 36.7586L245.052 42.0015L251.801 28.0999C252.875 25.7962 255.56 24.9224 257.784 26.0345C260.008 27.1466 260.852 29.927 259.778 32.2307L250.267 51.9312C249.654 53.2816 248.427 54.1554 246.969 54.3938C246.739 54.3938 246.509 54.4732 246.279 54.4732Z" fill="#0637A3"/>
</g>
<defs>
<clipPath id="clip0">
<rect width="25.9241" height="34.8978" fill="white" transform="translate(111.634 126.957)"/>
</clipPath>
<clipPath id="clip1">
<rect width="27.9182" height="28.9153" fill="white" transform="translate(232.32 25.5579)"/>
</clipPath>
</defs>
</svg>
