<svg width="31" height="30" viewBox="0 0 31 30" fill="none" xmlns="http://www.w3.org/2000/svg">
<path d="M6.39566 28.6475C7.17078 29.2104 8.07069 29.4821 8.96404 29.4821C10.3085 29.4821 11.6353 28.8666 12.4892 27.71C12.4917 27.7076 12.494 27.705 12.4962 27.7023C12.4982 27.6996 12.5003 27.6969 12.5022 27.6942L12.5052 27.6899C12.5072 27.6871 12.5092 27.6843 12.5111 27.6816L15.5327 23.5265L18.5544 27.6816C18.5573 27.6861 18.5604 27.6895 18.5634 27.6934C18.5648 27.6952 18.5661 27.697 18.5675 27.6991C19.9908 29.6376 22.7255 30.0647 24.6721 28.6497C26.6208 27.2348 27.0565 24.499 25.6507 22.5452L25.6476 22.5404C25.6451 22.5362 25.643 22.5331 25.6398 22.5299L22.6247 18.3725L27.5097 16.7824C29.8044 16.0355 31.0656 13.5582 30.3189 11.2627C29.5724 8.9672 27.0981 7.70556 24.8012 8.45029L19.9164 10.0339L19.9142 4.89316C19.9118 2.47938 17.9478 0.514648 15.5349 0.514648C13.122 0.514648 11.158 2.47938 11.1558 4.89535L11.1514 10.0317L6.26649 8.44809C6.26649 8.44809 6.26221 8.44767 6.25984 8.447C6.25676 8.44617 6.25361 8.44494 6.25115 8.44371C3.95867 7.70776 1.4932 8.96939 0.74875 11.2606C0.00428534 13.5517 1.25674 16.0202 3.54046 16.7736C3.54257 16.7743 3.54627 16.7758 3.54627 16.7758L3.55432 16.7789L3.55799 16.7802L8.44073 18.3703L5.42567 22.5277C5.42457 22.5299 5.42295 22.5321 5.42132 22.5343C5.41966 22.5365 5.41803 22.5387 5.41694 22.5409C4.00902 24.4946 4.44695 27.2326 6.39566 28.6475Z" fill="#66CFFA"/>
</svg>
