<svg width="32" height="32" viewBox="0 0 32 32" fill="none" xmlns="http://www.w3.org/2000/svg">
<path d="M14.1052 5.70118L8.11195 28.0684C7.63243 29.858 5.71395 30.9669 3.92617 30.4879C2.1384 30.0089 1.03142 28.0892 1.51094 26.2996L7.50422 3.93244C7.98374 2.14285 9.90222 1.03391 11.69 1.51294C13.4778 1.99197 14.5847 3.91158 14.1052 5.70118Z" fill="#0637A3"/>
<path d="M22.6263 4.42201L22.6263 27.5771C22.6263 29.4299 21.0602 30.9976 19.2093 30.9976C17.3585 30.9976 15.7924 29.4299 15.7924 27.5771L15.7924 4.42201C15.7924 2.56928 17.3585 1.00159 19.2093 1.00159C21.0602 1.00159 22.6263 2.56928 22.6263 4.42201Z" fill="#B8E56B"/>
<path d="M31.3743 4.42628L31.3743 27.5791C31.3743 29.4318 29.8082 30.9995 27.9574 30.9995C26.1066 30.9995 24.5405 29.4318 24.5405 27.5791L24.5405 4.42628C24.5405 2.57355 26.1066 1.00586 27.9574 1.00586C29.8082 1.00586 31.3743 2.57355 31.3743 4.42628Z" fill="#0A1179"/>
</svg>
