<svg width="30" height="30" viewBox="0 0 30 30" fill="none" xmlns="http://www.w3.org/2000/svg">
<circle cx="15" cy="15" r="15" fill="#F4F5F7"/>
<circle cx="15" cy="15" r="10" fill="#0A1179" fill-opacity="0.3"/>
<path d="M15 4V26" stroke="#F4F5F7"/>
<path d="M26 15L4 15" stroke="#F4F5F7"/>
<path d="M26 9C22 10.5 19.3135 11 15 11C10.6865 11 8.03742 10.5183 4 9" stroke="#F4F5F7"/>
<path d="M4 21C8 19.5 10.6865 19 15 19C19.3135 19 21.9626 19.4817 26 21" stroke="#F4F5F7"/>
<path d="M21 26C19.5 22 19 19.3135 19 15C19 10.6865 19.4817 8.03742 21 4" stroke="#F4F5F7"/>
<path d="M9 4C10.5 8 11 10.6865 11 15C11 19.3135 10.5183 21.9626 9 26" stroke="#F4F5F7"/>
</svg>
