<svg width="49" height="49" viewBox="0 0 49 49" fill="none" xmlns="http://www.w3.org/2000/svg">
<path d="M16.8779 13.6922C18.5183 13.4578 20.0806 13.9265 21.2523 15.0982L28.9073 22.7533L35.3907 9.86464C32.1881 7.44314 28.2824 6.03711 23.9862 6.03711C13.5972 6.03711 5.08289 14.4733 5.08289 24.9404C5.08289 26.9714 5.39534 28.9242 6.02024 30.7208L13.1285 16.4261C13.8315 14.942 15.2376 13.9265 16.8779 13.6922Z" fill="white"/>
<path d="M31.0951 36.2669C29.4547 36.5012 27.8924 36.0326 26.7207 34.8609L19.0657 27.2058L12.6604 40.0163C15.7849 42.3597 19.7687 43.7657 23.9868 43.7657H42.9682V25.4092L42.8901 25.4873C42.8901 25.3311 42.8901 25.1749 42.8901 24.9405C42.8901 22.9096 42.5777 21.0349 42.0309 19.2383L34.8445 33.6111C34.0633 35.0171 32.7354 36.0326 31.0951 36.2669Z" fill="white"/>
<path d="M6.02022 30.7217L0.552311 41.6575C-0.697496 44.1571 0.317972 47.2035 2.81759 48.4533C3.5206 48.8439 4.30173 49.0001 5.08286 49.0001C6.95757 49.0001 8.75417 47.9846 9.61341 46.188L12.6598 40.0952C9.5353 37.7518 7.19191 34.4711 6.02022 30.7217Z" fill="white"/>
<path d="M45.2332 1.50653C42.7336 0.256728 39.6872 1.2722 38.4374 3.77181L35.391 9.86462C38.5155 12.208 40.8589 15.4888 42.0306 19.2382L47.4985 8.38047C48.7483 5.80275 47.7328 2.75634 45.2332 1.50653Z" fill="white"/>
</svg>
