<svg width="160" height="24" viewBox="0 0 160 24" fill="none" xmlns="http://www.w3.org/2000/svg">
<path d="M41.0013 8.35894C42.0719 9.40209 42.6072 10.9518 42.6072 13.0082V21.0527H38.5307V13.6371C38.5307 12.5216 38.2811 11.6893 37.782 11.1403C37.5105 10.8577 37.1806 10.6379 36.8152 10.4963C36.4499 10.3547 36.058 10.2947 35.667 10.3205C35.214 10.2988 34.7615 10.3722 34.3385 10.536C33.9156 10.6997 33.5316 10.9502 33.2113 11.2713C32.5999 11.9077 32.2955 12.8522 32.298 14.105V21.0527H28.2439V7.00385H32.1333V8.64718C32.6902 8.04339 33.3778 7.57478 34.1434 7.27711C34.978 6.95023 35.8675 6.7863 36.7638 6.79422C38.5182 6.79422 39.9307 7.31579 41.0013 8.35894Z" fill="#0637A3"/>
<path d="M49.1453 20.3376C48.0058 19.7531 47.0518 18.8625 46.3902 17.766C45.7182 16.6346 45.3747 15.3383 45.3982 14.0226C45.3741 12.7068 45.7177 11.4104 46.3902 10.2792C47.0528 9.18252 48.0065 8.29102 49.1453 7.70379C50.383 7.09557 51.7436 6.7793 53.1227 6.7793C54.5017 6.7793 55.8623 7.09557 57.1 7.70379C58.2323 8.2947 59.1802 9.18567 59.8401 10.2792C60.5127 11.4104 60.8562 12.7068 60.8321 14.0226C60.8556 15.3383 60.5121 16.6346 59.8401 17.766C59.1812 18.8594 58.2329 19.7494 57.1 20.3376C55.8631 20.9483 54.5021 21.266 53.1227 21.266C51.7432 21.266 50.3822 20.9483 49.1453 20.3376ZM55.7 16.8638C56.3973 16.0896 56.7594 15.0707 56.7069 14.0301C56.7581 12.9897 56.3962 11.9712 55.7 11.1964C55.37 10.8489 54.9703 10.5752 54.5271 10.3933C54.0839 10.2113 53.6071 10.1253 53.1283 10.1407C52.6469 10.1252 52.1677 10.2108 51.7215 10.392C51.2753 10.5732 50.8721 10.8459 50.5379 11.1926C50.1899 11.5746 49.9208 12.0216 49.7461 12.5079C49.5713 12.9942 49.4944 13.5102 49.5197 14.0263C49.4938 14.5425 49.5704 15.0587 49.7452 15.5451C49.9199 16.0315 50.1894 16.4784 50.5379 16.8601C50.8706 17.2082 51.2728 17.4824 51.7185 17.665C52.1641 17.8475 52.6432 17.9342 53.1245 17.9194C53.6045 17.9366 54.0826 17.851 54.5268 17.6683C54.971 17.4856 55.371 17.21 55.7 16.8601V16.8638Z" fill="#0637A3"/>
<path d="M72.6228 20.3752C72.1718 20.6927 71.6632 20.9191 71.1254 21.0415C70.5242 21.1906 69.9069 21.2648 69.2874 21.2624C67.6129 21.2624 66.3202 20.8356 65.4093 19.9822C64.4984 19.1287 64.0405 17.8809 64.0355 16.2388V10.4516H61.8681V7.31462H64.0355V3.89319H68.1307V7.31462H71.6308V10.4516H68.1307V16.1677C68.0967 16.6678 68.2607 17.1613 68.5874 17.5415C68.7566 17.7083 68.9591 17.8376 69.1816 17.9208C69.4042 18.004 69.6418 18.0393 69.8789 18.0244C70.4714 18.041 71.052 17.8563 71.526 17.5003L72.6228 20.3752Z" fill="#0637A3"/>
<path d="M75.1149 4.39101C74.8879 4.18741 74.7075 3.93721 74.586 3.65748C74.4646 3.37776 74.405 3.07511 74.4112 2.77023C74.4055 2.46596 74.4654 2.16404 74.5868 1.885C74.7083 1.60597 74.8884 1.35636 75.1149 1.15318C75.6173 0.706153 76.2734 0.471342 76.9453 0.498131C77.6118 0.469702 78.2643 0.694343 78.772 1.12698C78.9979 1.31936 79.1782 1.55953 79.2999 1.83013C79.4216 2.10072 79.4816 2.39498 79.4757 2.69162C79.4855 3.00635 79.4278 3.31953 79.3064 3.61008C79.185 3.90063 79.0028 4.16181 78.772 4.37604C78.2753 4.83111 77.6184 5.0707 76.9453 5.04232C76.2739 5.07013 75.6179 4.83669 75.1149 4.39101ZM74.9091 7.01122H78.9853V21.0518H74.9091V7.01122Z" fill="#0637A3"/>
<path d="M87.2207 7.3144H90.8254V10.4512H87.3255V21.0518H83.2642V10.4512H81.0969V7.3144H83.2642V6.6893C83.2642 5.08723 83.7383 3.8158 84.6866 2.87502C85.6349 1.93424 86.9712 1.4651 88.6955 1.4676C89.2801 1.464 89.8631 1.52933 90.4324 1.66224C90.9187 1.76664 91.3826 1.95676 91.8023 2.22371L90.7318 5.17332C90.2506 4.84076 89.6771 4.66791 89.0923 4.67922C87.8446 4.67922 87.2207 5.35798 87.2207 6.7155V7.3144ZM95.16 4.391C94.9329 4.1874 94.7525 3.93719 94.6311 3.65747C94.5096 3.37775 94.45 3.0751 94.4562 2.77021C94.4505 2.46595 94.5104 2.16403 94.6318 1.88499C94.7533 1.60596 94.9334 1.35635 95.16 1.15317C95.6651 0.703386 96.3258 0.468381 97.0016 0.49812C97.6667 0.470645 98.3178 0.695227 98.8245 1.12697C99.0504 1.31935 99.2307 1.55952 99.3524 1.83011C99.4741 2.10071 99.5342 2.39496 99.5282 2.69161C99.538 3.00634 99.4803 3.31952 99.3589 3.61007C99.2375 3.90062 99.0553 4.1618 98.8245 4.37603C98.3278 4.8311 97.6709 5.07069 96.9978 5.04231C96.3277 5.06914 95.6732 4.83576 95.1712 4.391H95.16ZM94.9503 7.01121H99.0266V21.0518H94.9616L94.9503 7.01121Z" fill="#0637A3"/>
<path d="M105.58 20.3377C104.427 19.7575 103.459 18.8669 102.784 17.766C102.104 16.6373 101.755 15.3402 101.777 14.0226C101.751 12.7193 102.094 11.4352 102.767 10.3188C103.44 9.20251 104.415 8.29973 105.58 7.71506C106.829 7.08383 108.213 6.76647 109.612 6.79045C110.963 6.75807 112.299 7.07665 113.49 7.71506C114.57 8.30518 115.421 9.23941 115.908 10.3691L112.749 12.0649C112.015 10.7771 110.961 10.1333 109.586 10.1333C109.101 10.1205 108.619 10.2065 108.168 10.3861C107.718 10.5656 107.309 10.835 106.966 11.1777C106.608 11.5562 106.33 12.0037 106.151 12.4928C105.971 12.9819 105.893 13.5024 105.921 14.0226C105.893 14.5434 105.972 15.0645 106.151 15.5541C106.331 16.0438 106.608 16.4919 106.966 16.8713C107.309 17.214 107.718 17.4834 108.168 17.6629C108.619 17.8425 109.101 17.9285 109.586 17.9157C110.243 17.9311 110.89 17.7572 111.451 17.4147C112.012 17.0722 112.463 16.5756 112.749 15.9842L115.908 17.7061C115.408 18.8191 114.56 19.7389 113.49 20.3265C112.302 20.9733 110.965 21.2973 109.612 21.266C108.213 21.2889 106.829 20.9702 105.58 20.3377Z" fill="#0637A3"/>
<path d="M120.778 20.3376C119.638 19.754 118.684 18.8632 118.023 17.7659C117.351 16.6345 117.008 15.3382 117.031 14.0225C117.007 12.7067 117.351 11.4103 118.023 10.2792C118.685 9.18158 119.639 8.28982 120.778 7.70373C122.015 7.09555 123.375 6.7793 124.754 6.7793C126.132 6.7793 127.492 7.09555 128.729 7.70373C129.863 8.29344 130.813 9.18461 131.473 10.2792C132.144 11.4112 132.487 12.707 132.465 14.0225C132.487 15.338 132.144 16.6339 131.473 17.7659C130.814 18.8603 129.864 19.7505 128.729 20.3376C127.493 20.9477 126.132 21.265 124.754 21.265C123.375 21.265 122.015 20.9477 120.778 20.3376ZM127.333 16.8637C128.03 16.0896 128.392 15.0706 128.34 14.03C128.391 12.9896 128.029 11.9711 127.333 11.1963C127.003 10.8488 126.603 10.5751 126.16 10.3932C125.717 10.2113 125.24 10.1252 124.761 10.1407C124.28 10.1259 123.801 10.2122 123.356 10.3941C122.91 10.5759 122.508 10.8492 122.174 11.1963C121.826 11.5783 121.557 12.0253 121.383 12.5116C121.208 12.9979 121.131 13.5139 121.156 14.03C121.13 14.5462 121.207 15.0624 121.382 15.5488C121.557 16.0352 121.826 16.4821 122.174 16.8637C122.507 17.2121 122.909 17.4864 123.355 17.669C123.801 17.8515 124.28 17.9381 124.761 17.9231C125.241 17.9393 125.718 17.8528 126.162 17.6695C126.605 17.4861 127.005 17.2101 127.333 16.86V16.8637Z" fill="#0637A3"/>
<path d="M141.044 7.31446C141.953 6.95104 142.925 6.77409 143.904 6.79413V10.5375C143.451 10.5038 143.155 10.4851 142.987 10.4851C142.488 10.4573 141.988 10.5298 141.518 10.6983C141.047 10.8667 140.615 11.1277 140.247 11.4659C139.583 12.1272 139.251 13.1117 139.251 14.4194V21.0526H135.178V7.00376H139.071V8.85673C139.571 8.1679 140.255 7.63348 141.044 7.31446Z" fill="#0637A3"/>
<path d="M159.884 15.1755H149.256C149.424 16.0134 149.912 16.7531 150.615 17.238C151.402 17.7612 152.333 18.0232 153.277 17.9867C153.94 17.9984 154.6 17.888 155.223 17.661C155.814 17.4261 156.351 17.0747 156.803 16.6279L158.97 18.9787C157.648 20.496 155.715 21.2534 153.172 21.2509C151.723 21.2813 150.288 20.9683 148.983 20.3376C147.816 19.7688 146.838 18.876 146.164 17.7659C145.491 16.6348 145.147 15.3385 145.169 14.0225C145.152 12.7162 145.491 11.4301 146.149 10.3016C146.791 9.20782 147.723 8.31265 148.841 7.71493C150.009 7.11376 151.302 6.79701 152.615 6.79051C153.929 6.784 155.225 7.08792 156.399 7.6775C157.498 8.25763 158.407 9.14112 159.019 10.223C159.67 11.4007 159.998 12.7296 159.97 14.0749C159.962 14.1311 159.936 14.4979 159.884 15.1755ZM150.353 10.6572C149.715 11.201 149.304 11.9656 149.204 12.7984H156.126C156.016 11.9719 155.605 11.2149 154.973 10.6722C154.329 10.135 153.512 9.85147 152.674 9.87485C151.832 9.84863 151.008 10.1263 150.353 10.6572Z" fill="#0637A3"/>
<path d="M8.07317 6.59685C8.45243 6.53539 8.84086 6.56476 9.20657 6.68254C9.57228 6.80032 9.90484 7.00316 10.1769 7.2744L13.8567 10.9354L16.9562 4.75137C15.6117 3.73695 14.011 3.11758 12.334 2.96286C10.6569 2.80814 8.96986 3.1242 7.46253 3.87554C5.95519 4.62687 4.68727 5.78369 3.80124 7.216C2.91521 8.64831 2.4462 10.2993 2.4469 11.9836C2.44718 12.9236 2.59238 13.8579 2.87739 14.7536L6.29508 7.90703C6.4671 7.56387 6.71787 7.26627 7.0269 7.03857C7.33593 6.81086 7.69446 6.6595 8.07317 6.59685Z" fill="#0637A3"/>
<path d="M14.9077 17.4187C14.5294 17.4797 14.1419 17.4505 13.777 17.3334C13.4121 17.2163 13.08 17.0146 12.8077 16.7449L9.13548 13.0839L6.06592 19.2155C7.63399 20.3943 9.54331 21.0303 11.505 21.0273H20.5939V12.2079L20.5714 12.2304C20.5714 12.148 20.5714 12.0657 20.5714 11.9833C20.5721 11.0496 20.4282 10.1215 20.1447 9.23193L16.6896 16.1122C16.5172 16.4555 16.2658 16.753 15.956 16.9801C15.6463 17.2072 15.287 17.3575 14.9077 17.4187Z" fill="#0637A3"/>
<path d="M2.87656 14.7528L0.256058 19.9938C0.113736 20.2789 0.0289692 20.5893 0.00659752 20.9072C-0.0157742 21.2251 0.0246873 21.5443 0.125672 21.8466C0.226656 22.1488 0.386186 22.4282 0.595152 22.6688C0.804119 22.9094 1.05843 23.1065 1.34357 23.2488C1.6287 23.3912 1.93908 23.4759 2.25697 23.4983C2.57487 23.5207 2.89406 23.4802 3.19631 23.3792C3.49857 23.2782 3.77798 23.1187 4.01858 22.9097C4.25919 22.7008 4.45628 22.4465 4.5986 22.1613L6.06608 19.2151C4.56894 18.0915 3.45508 16.5331 2.87656 14.7528Z" fill="#66CFFA"/>
<path d="M21.6723 0.756524C21.3874 0.613592 21.0772 0.528196 20.7593 0.505216C20.4414 0.482235 20.1221 0.522121 19.8196 0.622595C19.5172 0.723068 19.2375 0.882159 18.9965 1.09078C18.7556 1.29939 18.5581 1.55345 18.4154 1.83842L16.9554 4.75092C18.4562 5.8822 19.5682 7.45207 20.1374 9.2432L22.7579 4.02466C22.9025 3.73903 22.9891 3.42761 23.0127 3.10836C23.0363 2.78911 22.9965 2.46834 22.8956 2.16453C22.7947 1.86073 22.6346 1.57991 22.4247 1.33825C22.2147 1.0966 21.959 0.898889 21.6723 0.756524Z" fill="#66CFFA"/>
<path d="M16.9545 4.75037L13.855 10.9344L10.1753 7.27339C9.90372 7.00152 9.57136 6.79817 9.20567 6.68014C8.83998 6.56211 8.45145 6.53279 8.07218 6.5946C7.69292 6.6564 7.3338 6.80757 7.02451 7.0356C6.71521 7.26364 6.46462 7.56199 6.29342 7.90602L2.87573 14.7526C3.44874 16.5438 4.56302 18.1132 6.06508 19.2447L9.13463 13.0981L12.8069 16.7441C13.0792 17.0144 13.4117 17.2164 13.7771 17.3334C14.1425 17.4505 14.5304 17.4794 14.9091 17.4177C15.2878 17.3559 15.6465 17.2054 15.9559 16.9784C16.2652 16.7513 16.5163 16.4543 16.6887 16.1115L20.1364 9.23117C19.5651 7.44424 18.4533 5.87863 16.9545 4.75037Z" fill="#B8E56B"/>
</svg>
