<svg width="585" height="314" viewBox="0 0 585 314" fill="none" xmlns="http://www.w3.org/2000/svg">
<g clip-path="url(#clip0)">
<path d="M0.589228 121.756C0.587816 140.735 6.21451 159.288 16.7578 175.069C27.301 190.851 42.2873 203.151 59.8213 210.415C77.3554 217.679 96.6498 219.581 115.264 215.879C133.879 212.177 150.978 203.038 164.399 189.618C177.82 176.199 186.96 159.1 190.663 140.486C194.366 121.872 192.466 102.577 185.203 85.0424C177.941 67.5078 165.641 52.5206 149.861 41.9762C134.08 31.4318 115.527 25.8037 96.5482 25.8037H0.425049V119.4C0.425049 119.4 0.589228 120.892 0.589228 121.756Z" fill="#B8E56B"/>
<path d="M523.249 203.495C523.249 202.481 523.327 201.475 523.327 200.454C523.327 178.139 516.71 156.325 504.313 137.771C491.915 119.217 474.294 104.755 453.678 96.2159C433.061 87.6763 410.376 85.442 388.49 89.7954C366.603 94.1489 346.5 104.895 330.72 120.674C314.941 136.453 304.196 156.556 299.842 178.443C295.489 200.329 297.723 223.015 306.263 243.631C314.802 264.247 329.264 281.868 347.818 294.266C366.372 306.663 388.186 313.281 410.501 313.281H523.52V203.231L523.249 203.495Z" fill="#B8E56B"/>
<path d="M297.417 105.487C302.999 115.317 318.475 125.474 329.482 128.044C389.186 141.864 395.154 110.613 416.625 110.613C424.599 110.613 417.218 109.52 423.335 114.631C429.646 119.892 429.381 142.792 427.904 150.872C427.147 155.034 426.162 159.274 423.814 162.793C420.687 167.468 448.797 172.23 414.463 174.928C377.994 177.783 365.923 179.768 337.627 171.023C300.308 159.488 286.446 134.711 279.443 114.11L297.417 105.487Z" fill="#0637A3"/>
<path d="M262.283 178.626C262.926 177.484 264.225 175.356 264.803 174.179C265.377 173.172 265.762 172.069 265.938 170.924C266.019 170.35 265.946 169.764 265.725 169.228C265.504 168.692 265.144 168.225 264.682 167.875C263.618 167.162 262.205 167.454 261.077 167.997C256.337 170.267 254.167 176.663 249.049 177.84" stroke="#0637A3" stroke-linecap="round" stroke-linejoin="round"/>
<path d="M253.632 197.913C254.859 197.378 257.85 195.879 259.028 195.179C265.238 191.46 271.491 186.492 272.548 179.132C272.639 178.554 272.614 177.963 272.475 177.394C272.335 176.826 272.083 176.29 271.734 175.82C270 173.579 267.123 174.521 265.196 175.977C263.972 176.937 262.844 178.013 261.826 179.189C260.188 180.995 258.257 182.513 256.116 183.679V183.679" stroke="#0637A3" stroke-linecap="round" stroke-linejoin="round"/>
<path d="M259.835 168.646C260.548 166.876 260.755 164.87 259.549 163.5C257.986 161.73 255.066 162.251 253.011 163.407C250.155 165.02 247.885 167.526 245.059 169.203C240.426 171.951 234.73 172.216 229.761 174.3C225.671 176.013 222.002 179.14 220.482 183.308C220.273 183.894 220.113 184.495 220.003 185.107" stroke="#0637A3" stroke-miterlimit="10"/>
<path d="M224.565 197.884C229.226 199.754 233.995 201.66 239.013 201.86C243.457 201.952 247.855 200.931 251.804 198.891C255.787 196.913 259.514 193.951 261.234 189.847C261.444 189.458 261.51 189.008 261.42 188.576C261.263 188.196 260.981 187.881 260.62 187.684C259.28 186.809 257.73 186.308 256.131 186.233C254.532 186.158 252.943 186.511 251.526 187.255C250.277 187.926 249.006 188.947 247.614 188.683C246.379 188.433 245.601 187.255 244.795 186.299C243.734 185.031 242.424 183.994 240.947 183.253C239.47 182.511 237.856 182.08 236.206 181.986C234.556 181.893 232.904 182.138 231.352 182.708C229.8 183.278 228.382 184.16 227.185 185.3" stroke="#0637A3" stroke-linecap="round" stroke-linejoin="round"/>
<path d="M0.682001 121.733C0.682001 140.697 6.30529 159.234 16.8408 175.002C27.3763 190.769 42.3507 203.058 59.8706 210.315C77.3905 217.572 96.6688 219.471 115.268 215.772C133.867 212.072 150.951 202.94 164.36 189.531C177.769 176.122 186.901 159.038 190.601 140.439C194.3 121.84 192.401 102.561 185.144 85.0416C177.887 67.5218 165.598 52.5473 149.831 42.0118C134.063 31.4763 115.526 25.853 96.5625 25.853H0.517822V119.364C0.517822 119.364 0.682001 120.87 0.682001 121.733Z" fill="#0637A3"/>
<path d="M407.482 102.061C418.098 102.061 426.705 93.4546 426.705 82.838C426.705 72.2213 418.098 63.6147 407.482 63.6147C396.865 63.6147 388.258 72.2213 388.258 82.838C388.258 93.4546 396.865 102.061 407.482 102.061Z" fill="white" stroke="#0637A3" stroke-miterlimit="10"/>
<path d="M433.686 73.8224C444.303 73.8224 452.909 65.2159 452.909 54.5992C452.909 43.9825 444.303 35.376 433.686 35.376C423.069 35.376 414.463 43.9825 414.463 54.5992C414.463 65.2159 423.069 73.8224 433.686 73.8224Z" fill="#0A1179"/>
<path d="M407.482 63.6216C405.13 63.6217 402.797 64.0523 400.6 64.8922C400.516 65.6029 400.473 66.3179 400.472 67.0337C400.468 70.1537 401.224 73.2278 402.674 75.9906C404.124 78.7535 406.224 81.122 408.794 82.8919C411.363 84.6618 414.325 85.78 417.423 86.1498C420.521 86.5197 423.662 86.1301 426.576 85.0148C426.655 84.3037 426.696 83.5888 426.698 82.8733C426.702 80.3468 426.209 77.8442 425.245 75.5087C424.282 73.1732 422.867 71.0506 421.082 69.2625C419.297 67.4743 417.177 66.0557 414.844 65.0877C412.51 64.1198 410.008 63.6216 407.482 63.6216Z" fill="#0A1179"/>
<path d="M584.331 15.2035C584.331 15.0821 584.331 14.9536 584.331 14.8251C584.331 11.0885 582.849 7.5044 580.21 4.85887C577.571 2.21333 573.991 0.722341 570.254 0.712891H514.198C510.455 0.712891 506.865 2.19971 504.219 4.84627C501.572 7.49283 500.085 11.0823 500.085 14.8251C500.085 18.5679 501.572 22.1574 504.219 24.804C506.865 27.4506 510.455 28.9374 514.198 28.9374H584.381V15.1749L584.331 15.2035Z" fill="#66CFFA"/>
<path d="M514.548 18.9509C516.724 18.9509 518.488 17.1868 518.488 15.0106C518.488 12.8344 516.724 11.0703 514.548 11.0703C512.371 11.0703 510.607 12.8344 510.607 15.0106C510.607 17.1868 512.371 18.9509 514.548 18.9509Z" fill="#0A1179"/>
<path d="M569.505 11.1558H527.189C525.104 11.1558 523.413 12.8448 523.413 14.9283C523.413 17.0118 525.104 18.7009 527.189 18.7009H569.505C571.59 18.7009 573.281 17.0118 573.281 14.9283C573.281 12.8448 571.59 11.1558 569.505 11.1558Z" fill="white"/>
<path d="M178.448 243.605L182.272 242.281C192.14 238.864 202.961 239.507 212.355 244.068C221.749 248.63 228.946 256.736 232.363 266.604L243.68 299.285L202.648 313.493L178.448 243.605Z" fill="#B8E56B"/>
<path d="M184.785 241.673C195.667 237.905 207.601 238.614 217.96 243.644C228.319 248.674 236.256 257.614 240.025 268.496L250.015 297.345L208.983 311.554L184.785 241.673Z" fill="#0A1179"/>
<path d="M233.923 2.21893L236.207 6.84449C236.399 7.23317 236.683 7.56941 237.033 7.82431C237.384 8.07921 237.791 8.24514 238.22 8.30782L243.324 9.02164C243.817 9.09351 244.28 9.30184 244.661 9.62309C245.041 9.94434 245.325 10.3657 245.478 10.8395C245.632 11.3133 245.65 11.8207 245.531 12.3042C245.411 12.7878 245.159 13.2283 244.802 13.5758L241.111 17.1449C240.801 17.4467 240.568 17.8195 240.434 18.2311C240.3 18.6427 240.268 19.0809 240.34 19.5077L241.211 24.5972C241.294 25.0874 241.239 25.5911 241.051 26.0515C240.864 26.512 240.551 26.9108 240.149 27.2032C239.747 27.4956 239.271 27.6698 238.775 27.7063C238.279 27.7428 237.783 27.64 237.342 27.4097L232.774 25.0112C232.391 24.8105 231.964 24.7056 231.532 24.7056C231.099 24.7056 230.673 24.8105 230.29 25.0112L225.721 27.4097C225.28 27.642 224.783 27.7463 224.286 27.7108C223.789 27.6753 223.312 27.5013 222.909 27.2087C222.505 26.916 222.192 26.5163 222.004 26.0548C221.816 25.5933 221.761 25.0884 221.845 24.5972L222.716 19.5077C222.79 19.0814 222.759 18.6437 222.626 18.2321C222.493 17.8205 222.262 17.4474 221.952 17.1449L218.255 13.5758C217.898 13.2278 217.645 12.7868 217.526 12.3027C217.407 11.8186 217.426 11.3108 217.58 10.8368C217.735 10.3628 218.019 9.94156 218.401 9.62075C218.782 9.29995 219.246 9.09241 219.739 9.02164L224.843 8.30782C225.272 8.24581 225.678 8.08007 226.028 7.82503C226.377 7.56999 226.659 7.23338 226.849 6.84449L229.133 2.21893C229.354 1.77176 229.695 1.3952 230.118 1.13188C230.541 0.868565 231.03 0.729004 231.528 0.729004C232.027 0.729004 232.515 0.868565 232.939 1.13188C233.362 1.3952 233.703 1.77176 233.923 2.21893Z" fill="#B8E56B"/>
<path d="M268.865 2.21893L271.149 6.84449C271.341 7.23317 271.624 7.56941 271.975 7.82431C272.326 8.07921 272.733 8.24514 273.162 8.30782L278.266 9.02164C278.759 9.09351 279.222 9.30184 279.602 9.62309C279.983 9.94434 280.266 10.3657 280.42 10.8395C280.574 11.3133 280.592 11.8207 280.472 12.3042C280.353 12.7878 280.1 13.2283 279.743 13.5758L276.053 17.1449C275.742 17.4467 275.51 17.8195 275.376 18.2311C275.241 18.6427 275.209 19.0809 275.282 19.5077L276.153 24.5972C276.236 25.0874 276.181 25.5911 275.993 26.0515C275.805 26.512 275.493 26.9108 275.091 27.2032C274.688 27.4956 274.213 27.6698 273.717 27.7063C273.221 27.7428 272.725 27.64 272.284 27.4097L267.716 25.0112C267.332 24.8105 266.906 24.7056 266.473 24.7056C266.041 24.7056 265.615 24.8105 265.231 25.0112L260.663 27.4097C260.222 27.642 259.725 27.7463 259.228 27.7108C258.731 27.6753 258.254 27.5013 257.85 27.2087C257.447 26.916 257.134 26.5163 256.946 26.0548C256.758 25.5933 256.703 25.0884 256.787 24.5972L257.658 19.5077C257.731 19.0814 257.7 18.6437 257.567 18.2321C257.434 17.8205 257.203 17.4474 256.894 17.1449L253.196 13.5758C252.839 13.2278 252.587 12.7868 252.468 12.3027C252.349 11.8186 252.367 11.3108 252.522 10.8368C252.676 10.3628 252.961 9.94156 253.342 9.62075C253.724 9.29995 254.188 9.09241 254.681 9.02164L259.785 8.30782C260.214 8.24514 260.621 8.07921 260.972 7.82431C261.322 7.56941 261.606 7.23317 261.798 6.84449L264.075 2.21893C264.295 1.77176 264.636 1.3952 265.06 1.13188C265.483 0.868565 265.971 0.729004 266.47 0.729004C266.968 0.729004 267.457 0.868565 267.88 1.13188C268.303 1.3952 268.644 1.77176 268.865 2.21893Z" fill="#B8E56B"/>
<path d="M303.799 2.21923L306.083 6.84479C306.274 7.23168 306.555 7.56678 306.903 7.82156C307.251 8.07635 307.656 8.24327 308.082 8.30813L313.186 9.02195C313.679 9.09381 314.142 9.30215 314.522 9.6234C314.903 9.94464 315.186 10.366 315.34 10.8398C315.494 11.3136 315.512 11.821 315.392 12.3045C315.273 12.7881 315.02 13.2286 314.663 13.5761L310.973 17.1452C310.657 17.455 310.424 17.8382 310.293 18.2606C310.162 18.683 310.138 19.1312 310.223 19.5651L311.094 24.6546C311.177 25.1448 311.122 25.6485 310.934 26.109C310.747 26.5694 310.434 26.9682 310.032 27.2606C309.63 27.553 309.154 27.7272 308.658 27.7637C308.162 27.8002 307.666 27.6974 307.225 27.4671L302.657 25.0686C302.274 24.8679 301.848 24.763 301.415 24.763C300.982 24.763 300.556 24.8679 300.173 25.0686L295.604 27.4671C295.164 27.6994 294.666 27.8037 294.169 27.7682C293.672 27.7327 293.195 27.5587 292.792 27.2661C292.389 26.9734 292.075 26.5737 291.887 26.1122C291.699 25.6507 291.644 25.1458 291.728 24.6546L292.599 19.5651C292.673 19.1388 292.642 18.7011 292.509 18.2895C292.376 17.8779 292.145 17.5048 291.835 17.2023L288.138 13.6332C287.781 13.2852 287.528 12.8442 287.409 12.3601C287.29 11.876 287.309 11.3682 287.463 10.8942C287.618 10.4202 287.902 9.99896 288.284 9.67816C288.665 9.35735 289.129 9.14982 289.623 9.07905L294.726 8.36523C295.155 8.30254 295.563 8.13662 295.913 7.88172C296.264 7.62682 296.547 7.29058 296.739 6.9019L299.016 2.27634C299.232 1.82837 299.569 1.44952 299.988 1.18247C300.407 0.915415 300.893 0.770775 301.39 0.764839C301.887 0.758903 302.376 0.891907 302.802 1.14887C303.227 1.40583 303.573 1.77654 303.799 2.21923Z" fill="#B8E56B"/>
<path d="M338.776 2.2189L341.061 6.84446C341.251 7.23135 341.532 7.56645 341.88 7.82124C342.228 8.07602 342.633 8.24294 343.059 8.3078L348.163 9.02162C348.656 9.09348 349.119 9.30182 349.5 9.62307C349.88 9.94432 350.164 10.3657 350.317 10.8395C350.471 11.3133 350.489 11.8207 350.37 12.3042C350.25 12.7878 349.998 13.2282 349.641 13.5758L345.95 17.1449C345.636 17.4557 345.404 17.8391 345.273 18.2611C345.142 18.6831 345.117 19.1309 345.201 19.5648L346.079 24.6543C346.163 25.1455 346.108 25.6504 345.92 26.1119C345.732 26.5734 345.419 26.9731 345.015 27.2658C344.612 27.5584 344.135 27.7323 343.638 27.7679C343.141 27.8034 342.644 27.6991 342.203 27.4668L337.634 25.0683C337.251 24.8676 336.825 24.7627 336.392 24.7627C335.96 24.7627 335.533 24.8676 335.15 25.0683L330.582 27.4668C330.139 27.7174 329.634 27.8365 329.126 27.8099C328.619 27.7834 328.129 27.6123 327.715 27.3168C327.301 27.0214 326.98 26.6138 326.79 26.1421C326.6 25.6704 326.548 25.1543 326.641 24.6543L327.519 19.5648C327.59 19.138 327.557 18.7004 327.423 18.2891C327.289 17.8777 327.057 17.5049 326.748 17.202L323.051 13.6329C322.694 13.2849 322.442 12.8438 322.322 12.3598C322.203 11.8757 322.222 11.3679 322.376 10.8939C322.531 10.4199 322.815 9.99863 323.197 9.67783C323.578 9.35702 324.042 9.14949 324.536 9.07872L329.639 8.3649C330.068 8.30221 330.476 8.13629 330.826 7.88139C331.177 7.62649 331.46 7.29025 331.652 6.90157L333.929 2.27601C334.138 1.8107 334.475 1.41478 334.901 1.13504C335.327 0.855304 335.825 0.703457 336.335 0.697451C336.844 0.691445 337.345 0.83153 337.778 1.10115C338.211 1.37076 338.557 1.75863 338.776 2.2189Z" fill="#B8E56B"/>
<path d="M373.689 2.21876L375.973 6.84432C376.165 7.233 376.449 7.56924 376.799 7.82414C377.15 8.07904 377.557 8.24496 377.986 8.30765L383.09 9.02147C383.584 9.09224 384.048 9.29977 384.429 9.62058C384.811 9.94138 385.095 10.3626 385.249 10.8366C385.404 11.3106 385.423 11.8184 385.304 12.3025C385.184 12.7866 384.932 13.2276 384.575 13.5757L380.877 17.1448C380.568 17.4476 380.337 17.8205 380.203 18.2318C380.069 18.6431 380.036 19.0807 380.106 19.5075L380.984 24.597C381.069 25.0882 381.014 25.5931 380.826 26.0546C380.638 26.5162 380.324 26.9159 379.921 27.2085C379.518 27.5012 379.04 27.6751 378.543 27.7106C378.046 27.7461 377.549 27.6418 377.108 27.4095L372.54 25.0111C372.157 24.8103 371.731 24.7055 371.298 24.7055C370.865 24.7055 370.439 24.8103 370.056 25.0111L365.487 27.4095C365.051 27.6351 364.562 27.7362 364.072 27.7015C363.582 27.6669 363.112 27.4979 362.712 27.2131C362.312 26.9283 361.998 26.5388 361.805 26.0873C361.612 25.6359 361.548 25.14 361.618 24.6542L362.496 19.5646C362.567 19.1378 362.534 18.7002 362.4 18.2889C362.266 17.8776 362.034 17.5047 361.726 17.2019L358.028 13.6328C357.663 13.2883 357.403 12.848 357.277 12.3623C357.151 11.8767 357.164 11.3654 357.316 10.8871C357.467 10.4087 357.75 9.98265 358.132 9.65774C358.514 9.33283 358.981 9.12221 359.477 9.05002L364.581 8.3362C365.016 8.2739 365.43 8.10517 365.785 7.84495C366.14 7.58473 366.425 7.24105 366.615 6.84432L368.899 2.21876C369.118 1.76936 369.458 1.39047 369.882 1.12539C370.305 0.860303 370.795 0.719727 371.294 0.719727C371.794 0.719727 372.283 0.860303 372.707 1.12539C373.13 1.39047 373.471 1.76936 373.689 2.21876Z" fill="#B8E56B"/>
<path d="M247.3 149.923C256.154 149.923 263.332 142.745 263.332 133.89C263.332 125.036 256.154 117.858 247.3 117.858C238.446 117.858 231.268 125.036 231.268 133.89C231.268 142.745 238.446 149.923 247.3 149.923Z" fill="#66CFFA"/>
<path d="M247.3 140.251C250.813 140.251 253.66 137.403 253.66 133.89C253.66 130.378 250.813 127.53 247.3 127.53C243.787 127.53 240.94 130.378 240.94 133.89C240.94 137.403 243.787 140.251 247.3 140.251Z" fill="white"/>
<path d="M246.879 144.491V170.788" stroke="#66CFFA" stroke-width="5" stroke-linecap="round" stroke-linejoin="round"/>
<path d="M246.665 162.008H237.571" stroke="#66CFFA" stroke-width="5" stroke-linecap="round" stroke-linejoin="round"/>
<path d="M246.665 168.111H230.632" stroke="#66CFFA" stroke-width="5" stroke-linecap="round" stroke-linejoin="round"/>
<path d="M247.007 132.67C243.346 131.09 240.31 128.342 238.373 124.856C236.437 121.369 235.708 117.34 236.301 113.396C236.894 109.453 238.775 105.816 241.651 103.053C244.528 100.29 248.237 98.5568 252.201 98.1229C256.166 97.689 260.162 98.579 263.568 100.654C266.974 102.729 269.597 105.873 271.029 109.595C272.461 113.317 272.621 117.409 271.485 121.231C270.348 125.054 267.979 128.393 264.746 130.728" stroke="#0637A3" stroke-linecap="round" stroke-linejoin="round"/>
<path d="M251.969 274.342L412.935 219.385" stroke="#66CFFA" stroke-width="43" stroke-miterlimit="10"/>
<path d="M265.838 115.31C264.944 115.721 263.967 115.921 262.983 115.895C262.497 115.872 262.032 115.693 261.656 115.384C261.281 115.076 261.015 114.654 260.898 114.182C260.894 113.742 260.982 113.306 261.155 112.902C261.328 112.498 261.584 112.134 261.905 111.833C265.337 107.826 269.865 104.908 274.932 103.439C271.07 104.731 265.317 108.107 261.791 110.12C260.94 110.692 259.984 111.09 258.978 111.291C258.475 111.382 257.956 111.313 257.494 111.094C257.032 110.875 256.65 110.517 256.401 110.07C256.009 109.164 256.401 108.114 256.944 107.272C259.735 102.711 267.123 98.8276 272.127 96.9288C266.595 98.642 261.719 101.926 256.98 105.259C256.442 105.728 255.764 106.007 255.052 106.051C254.559 105.972 254.109 105.722 253.78 105.345C253.452 104.968 253.265 104.488 253.253 103.988C253.268 102.982 253.597 102.006 254.196 101.197C256.523 97.5641 260.37 95.2228 264.082 93.0171C270.064 89.448 276.624 85.7575 283.541 86.5927C285.042 86.7002 286.489 87.1918 287.745 88.0203C288.741 88.702 289.649 89.5026 290.451 90.4045C292.087 92.2515 293.435 94.3357 294.448 96.5862C295.35 98.9275 295.999 101.359 296.383 103.839L265.838 115.31Z" fill="white" stroke="#0637A3" stroke-linecap="round" stroke-linejoin="round"/>
<path d="M96.0342 101.212C106.651 101.212 115.257 92.605 115.257 81.9883C115.257 71.3717 106.651 62.7651 96.0342 62.7651C85.4176 62.7651 76.811 71.3717 76.811 81.9883C76.811 92.605 85.4176 101.212 96.0342 101.212Z" fill="white" stroke="#0637A3" stroke-miterlimit="10"/>
<path d="M73.0993 86.2998C73.3461 87.6453 73.7115 88.9663 74.1914 90.2473C78.3659 91.6397 82.8493 91.8211 87.1226 90.7704C91.3959 89.7198 95.2841 87.4801 98.337 84.3107C101.39 81.1413 103.482 77.172 104.372 72.8624C105.262 68.5528 104.913 64.0792 103.365 59.9598C99.5243 58.6832 95.4169 58.4291 91.4479 59.2228C87.4788 60.0165 83.785 61.8304 80.7303 64.486C77.6756 67.1416 75.3654 70.5472 74.0273 74.3672C72.6892 78.1873 72.3693 82.29 73.0993 86.2713V86.2998Z" fill="#0A1179"/>
<path d="M98.8954 86.9552C100.422 85.7915 100.463 83.2772 98.9865 81.3394C97.5097 79.4016 95.0747 78.7741 93.5477 79.9378C92.0206 81.1015 91.9799 83.6158 93.4566 85.5536C94.9333 87.4914 97.3684 88.1189 98.8954 86.9552Z" fill="white"/>
<path d="M103.137 113.953C90.1237 114.667 78.9738 125.581 75.933 138.223C72.8921 150.865 77.0108 164.577 84.7986 175.028C88.6318 180.174 94.4709 187.805 102.359 193.908C110.396 200.133 180.165 247.852 236.15 200.818L222.588 187.898C221.802 187.141 219.775 185.292 219.775 185.292C219.775 185.292 217.962 186.613 217.113 187.056C207.747 191.888 196.897 195.757 186.832 192.659C180.486 190.71 175.24 186.192 170.778 181.281C151.641 160.259 137.95 112.069 103.137 113.953Z" fill="#B8E56B"/>
<path d="M132.482 210.847C116.607 204.116 105.357 196.221 102.373 193.937C94.4853 187.834 88.6462 180.203 84.813 175.056C80.8486 169.773 77.9535 163.767 76.29 157.375C74.691 151.1 75.4476 156.661 75.5761 157.468C77.2536 167.533 81.2082 180.745 89.3672 192.095C99.1251 205.658 113.009 216.315 113.009 216.315C113.009 216.315 119.697 215.03 122.538 214.231C125.972 213.267 132.482 210.847 132.482 210.847Z" fill="#0637A3"/>
<path d="M584.402 159.895C584.402 159.081 584.466 158.267 584.466 157.446C584.465 133.603 575.077 110.718 558.334 93.7423C541.59 76.7665 518.837 67.0642 494.996 66.734C445.193 66.0559 403.898 106.415 403.034 155.89V313.566L584.645 313.438V159.681L584.402 159.895Z" fill="#0A1179"/>
<path d="M542.95 148.395H447.877C443.146 148.395 439.311 152.23 439.311 156.961V183.337C439.311 188.067 443.146 191.902 447.877 191.902H542.95C547.681 191.902 551.516 188.067 551.516 183.337V156.961C551.516 152.23 547.681 148.395 542.95 148.395Z" fill="white" stroke="#0637A3" stroke-miterlimit="10"/>
<path d="M471.419 177.293C470.287 177.293 469.199 177.111 468.154 176.749C467.124 176.386 466.326 175.907 465.76 175.312L466.391 174.072C466.943 174.623 467.675 175.073 468.589 175.421C469.503 175.755 470.447 175.922 471.419 175.922C472.783 175.922 473.806 175.675 474.488 175.182C475.169 174.674 475.51 174.021 475.51 173.223C475.51 172.613 475.322 172.127 474.945 171.764C474.582 171.402 474.132 171.126 473.595 170.937C473.058 170.734 472.311 170.517 471.353 170.285C470.207 169.994 469.293 169.719 468.611 169.457C467.929 169.182 467.342 168.768 466.848 168.217C466.369 167.666 466.13 166.918 466.13 165.975C466.13 165.206 466.333 164.51 466.739 163.886C467.146 163.247 467.77 162.74 468.611 162.362C469.453 161.985 470.497 161.796 471.745 161.796C472.616 161.796 473.465 161.92 474.292 162.166C475.133 162.399 475.859 162.725 476.468 163.146L475.924 164.43C475.286 164.009 474.604 163.697 473.878 163.494C473.153 163.276 472.442 163.168 471.745 163.168C470.41 163.168 469.402 163.429 468.72 163.951C468.053 164.459 467.719 165.119 467.719 165.932C467.719 166.541 467.9 167.034 468.263 167.412C468.64 167.774 469.104 168.057 469.656 168.26C470.222 168.449 470.976 168.659 471.919 168.892C473.037 169.167 473.936 169.443 474.618 169.719C475.315 169.98 475.902 170.386 476.381 170.937C476.86 171.474 477.099 172.207 477.099 173.136C477.099 173.905 476.889 174.608 476.468 175.247C476.062 175.871 475.431 176.371 474.575 176.749C473.719 177.111 472.667 177.293 471.419 177.293Z" fill="#0A1179"/>
<path d="M487.268 177.293C485.759 177.293 484.388 176.959 483.155 176.292C481.936 175.61 480.978 174.681 480.282 173.506C479.6 172.33 479.259 171.01 479.259 169.545C479.259 168.079 479.6 166.759 480.282 165.583C480.978 164.408 481.936 163.487 483.155 162.819C484.388 162.137 485.759 161.796 487.268 161.796C488.777 161.796 490.134 162.13 491.338 162.798C492.557 163.465 493.515 164.394 494.211 165.583C494.908 166.759 495.256 168.079 495.256 169.545C495.256 171.01 494.908 172.338 494.211 173.527C493.515 174.703 492.557 175.624 491.338 176.292C490.134 176.959 488.777 177.293 487.268 177.293ZM487.268 175.856C488.473 175.856 489.561 175.588 490.533 175.051C491.505 174.5 492.267 173.745 492.818 172.787C493.37 171.815 493.645 170.734 493.645 169.545C493.645 168.355 493.37 167.281 492.818 166.323C492.267 165.351 491.505 164.597 490.533 164.06C489.561 163.509 488.473 163.233 487.268 163.233C486.064 163.233 484.969 163.509 483.982 164.06C483.01 164.597 482.241 165.351 481.675 166.323C481.124 167.281 480.848 168.355 480.848 169.545C480.848 170.734 481.124 171.815 481.675 172.787C482.241 173.745 483.01 174.5 483.982 175.051C484.969 175.588 486.064 175.856 487.268 175.856Z" fill="#0A1179"/>
<path d="M498.866 161.927H500.476V175.769H509.008V177.162H498.866V161.927Z" fill="#0A1179"/>
<path d="M511.682 161.927H517.885C519.496 161.927 520.918 162.253 522.151 162.906C523.384 163.545 524.342 164.444 525.024 165.605C525.706 166.751 526.047 168.065 526.047 169.545C526.047 171.025 525.706 172.345 525.024 173.506C524.342 174.652 523.384 175.552 522.151 176.204C520.918 176.843 519.496 177.162 517.885 177.162H511.682V161.927ZM517.798 175.769C519.133 175.769 520.301 175.508 521.302 174.986C522.303 174.449 523.08 173.716 523.631 172.787C524.182 171.844 524.458 170.763 524.458 169.545C524.458 168.326 524.182 167.252 523.631 166.323C523.08 165.38 522.303 164.648 521.302 164.125C520.301 163.588 519.133 163.32 517.798 163.32H513.293V175.769H517.798Z" fill="#0A1179"/>
<path d="M443.722 216.836V246.86" stroke="white" stroke-width="5" stroke-linecap="round" stroke-linejoin="round"/>
<path d="M37.1441 268.488H0.589355V313.438H37.1441V268.488Z" fill="#0A1179"/>
<path d="M83.3639 268.488H46.8091V313.438H83.3639V268.488Z" fill="#0A1179"/>
<path d="M60.8072 235.153H24.2524V313.43H60.8072V235.153Z" fill="#66CFFA"/>
<path d="M96.5911 293.336C105.584 293.336 112.873 281.339 112.873 266.54C112.873 251.74 105.584 239.743 96.5911 239.743C87.5986 239.743 80.3088 251.74 80.3088 266.54C80.3088 281.339 87.5986 293.336 96.5911 293.336Z" fill="#B8E56B"/>
<path d="M124.751 297.741C133.744 297.741 141.034 291.135 141.034 282.986C141.034 274.837 133.744 268.231 124.751 268.231C115.759 268.231 108.469 274.837 108.469 282.986C108.469 291.135 115.759 297.741 124.751 297.741Z" fill="#B8E56B"/>
<path d="M98.1184 261.364H95.2346V313.438H98.1184V261.364Z" fill="#0A1179"/>
<path d="M125.851 288.076H122.967V313.431H125.851V288.076Z" fill="#0A1179"/>
<path d="M110.094 262.088L108.055 260.048L95.9713 272.132L98.0104 274.171L110.094 262.088Z" fill="#0A1179"/>
<path d="M95.3561 282.876L97.3953 280.836L90.0057 273.447L87.9666 275.486L95.3561 282.876Z" fill="#0A1179"/>
<path d="M36.6373 241.898H29.2563V249.279H36.6373V241.898Z" fill="#0637A3"/>
<path d="M46.1311 241.898H38.7502V249.279H46.1311V241.898Z" fill="#0637A3"/>
<path d="M55.6319 241.898H48.251V249.279H55.6319V241.898Z" fill="#0637A3"/>
<path d="M36.6373 251.442H29.2563V258.823H36.6373V251.442Z" fill="#0637A3"/>
<path d="M46.1311 251.442H38.7502V258.823H46.1311V251.442Z" fill="#0637A3"/>
<path d="M55.6319 251.442H48.251V258.823H55.6319V251.442Z" fill="#0637A3"/>
<path d="M36.6373 260.979H29.2563V268.36H36.6373V260.979Z" fill="#0637A3"/>
<path d="M46.1311 260.979H38.7502V268.36H46.1311V260.979Z" fill="#0637A3"/>
<path d="M55.6319 260.979H48.251V268.36H55.6319V260.979Z" fill="#0637A3"/>
<path d="M36.6373 270.523H29.2563V277.904H36.6373V270.523Z" fill="#0637A3"/>
<path d="M46.1311 270.523H38.7502V277.904H46.1311V270.523Z" fill="#0637A3"/>
<path d="M55.6319 270.523H48.251V277.904H55.6319V270.523Z" fill="#0637A3"/>
<path d="M36.6373 280.067H29.2563V287.448H36.6373V280.067Z" fill="#0637A3"/>
<path d="M46.1311 280.067H38.7502V287.448H46.1311V280.067Z" fill="#0637A3"/>
<path d="M55.6319 280.067H48.251V287.448H55.6319V280.067Z" fill="#0637A3"/>
<path d="M36.6373 289.604H29.2563V296.984H36.6373V289.604Z" fill="#0637A3"/>
<path d="M46.1311 289.604H38.7502V296.984H46.1311V289.604Z" fill="#0637A3"/>
<path d="M55.6319 289.604H48.251V296.984H55.6319V289.604Z" fill="#0637A3"/>
<mask id="mask0" mask-type="alpha" maskUnits="userSpaceOnUse" x="37" y="110" width="121" height="121">
<ellipse cx="97.2301" cy="170.249" rx="60.0861" ry="60.0861" fill="#B8E56B"/>
</mask>
<g mask="url(#mask0)">
<path d="M1.43176 122.319C1.43176 141.282 7.05505 159.82 17.5905 175.587C28.126 191.355 43.1005 203.644 60.6203 210.901C78.1402 218.158 97.4186 220.057 116.018 216.357C134.617 212.658 151.701 203.526 165.11 190.117C178.519 176.708 187.651 159.623 191.35 141.024C195.05 122.425 193.151 103.147 185.894 85.6271C178.637 68.1072 166.348 53.1327 150.581 42.5972C134.813 32.0618 116.276 26.4385 97.3122 26.4385H1.26758V119.949C1.26758 119.949 1.43176 121.455 1.43176 122.319Z" fill="#B8E56B"/>
</g>
<g clip-path="url(#clip1)">
<path d="M133.267 211.29C117.42 204.581 106.142 196.657 103.144 194.373C95.2919 188.234 89.4385 180.668 85.5839 175.528C81.7293 170.246 78.7312 164.178 77.0894 157.825C75.519 151.544 76.2329 157.111 76.3756 157.897C78.0888 167.962 82.0148 181.167 90.1524 192.517C99.9317 206.08 113.78 216.716 113.78 216.716C113.78 216.716 120.49 215.431 123.345 214.645C126.771 213.717 133.267 211.29 133.267 211.29Z" fill="#0637A3"/>
</g>
</g>
<defs>
<clipPath id="clip0">
<rect width="584.198" height="312.854" fill="white" transform="translate(0.425049 0.712891)"/>
</clipPath>
<clipPath id="clip1">
<rect width="57.177" height="61.8883" fill="white" transform="translate(76.0901 154.898)"/>
</clipPath>
</defs>
</svg>
