<svg width="584" height="314" viewBox="0 0 584 314" fill="none" xmlns="http://www.w3.org/2000/svg">
<g clip-path="url(#clip0)">
<path d="M468.962 250.953L208.838 273.203V313.566H531.5C531.5 278.979 503.507 250.953 468.962 250.953Z" fill="#0A1179"/>
<path d="M340.752 77.8745C338.757 75.949 337.76 73.1678 336.834 70.5292C335.908 67.8906 334.982 65.1094 333.059 63.1126C332.276 62.3281 331.278 61.615 330.139 61.5437C328.216 61.4724 326.72 63.3978 326.292 65.3233C325.295 69.5308 327.575 73.7383 329.925 77.304C331.635 79.9426 333.486 82.5812 335.41 85.1485C337.261 87.6445 339.327 90.1405 342.105 91.5668C347.732 94.5619 355.353 91.9233 358.63 86.4322C360.553 83.223 361.123 79.4434 361.194 75.7351C361.408 69.3169 360.339 62.8986 358.131 56.9083C357.633 55.6246 357.134 54.341 356.137 53.4139C355.211 52.4868 353.715 51.9163 352.433 52.4155C353.217 58.9764 353.644 65.6086 353.715 72.2407C353.359 65.1807 352.504 57.2648 347.02 52.8434C346.521 52.4868 345.951 52.1303 345.381 52.2729C344.812 52.4155 344.527 53.0573 344.384 53.6278C342.96 58.9764 348.017 63.8257 349.157 69.2456C347.803 65.3233 346.094 61.5437 343.957 57.978C342.604 55.6246 340.182 53.0573 337.689 54.0557C336.407 56.9083 338.544 59.9748 340.253 62.4707C342.889 66.3217 345.31 70.6718 346.664 75.1646C348.373 80.4418 344.456 81.5115 340.752 77.8745Z" fill="white" stroke="#0637A3" stroke-miterlimit="10" stroke-linecap="round" stroke-linejoin="round"/>
<path d="M582.926 203.815C582.926 202.816 582.998 201.818 582.998 200.748C582.998 138.491 532.568 88.001 470.386 88.001C408.205 88.001 357.775 138.491 357.775 200.748C357.775 263.005 408.205 313.495 470.386 313.495H583.14V203.529L582.926 203.815Z" fill="#B8E56B"/>
<path d="M484.988 15.6891C484.988 15.5464 484.988 15.4038 484.988 15.3325C484.988 7.5593 478.72 1.28369 470.956 1.28369C463.192 1.28369 456.924 7.5593 456.924 15.3325C456.924 23.1057 463.192 29.3813 470.956 29.3813H485.059L484.988 15.6891Z" fill="#66CFFA"/>
<path d="M0.567505 122.16C0.567505 175.075 43.3754 217.934 96.2265 217.934C149.078 217.934 191.886 175.075 191.886 122.16C191.957 69.2453 149.078 26.3857 96.2265 26.3857H0.425049V119.807C0.425049 119.807 0.567505 121.304 0.567505 122.16Z" fill="#0637A3"/>
<path d="M486.484 110.108C497.066 110.108 505.644 101.519 505.644 90.9246C505.644 80.3299 497.066 71.7412 486.484 71.7412C475.902 71.7412 467.324 80.3299 467.324 90.9246C467.324 101.519 475.902 110.108 486.484 110.108Z" fill="white" stroke="#0637A3" stroke-miterlimit="10"/>
<path d="M505.594 92.9076C510.879 87.6162 508.647 76.802 500.608 68.7535C492.569 60.705 481.768 58.4699 476.483 63.7614C471.198 69.0528 473.43 79.8669 481.469 87.9154C489.508 95.9639 500.309 98.199 505.594 92.9076Z" fill="#0637A3"/>
<path d="M582.998 15.546C582.998 15.4034 582.998 15.2608 582.998 15.1895C582.998 7.41626 576.658 1.06934 568.894 1.06934H512.981C505.217 1.06934 498.877 7.41626 498.877 15.1895C498.877 22.9627 505.217 29.3096 512.981 29.3096H583.069L582.998 15.546Z" fill="white" stroke="#0637A3" stroke-miterlimit="10"/>
<path d="M513.337 19.2542C515.5 19.2542 517.254 17.4981 517.254 15.3319C517.254 13.1657 515.5 11.4097 513.337 11.4097C511.173 11.4097 509.419 13.1657 509.419 15.3319C509.419 17.4981 511.173 19.2542 513.337 19.2542Z" fill="#B8E56B"/>
<path d="M568.182 19.0402H525.944C523.878 19.0402 522.169 17.3287 522.169 15.2606C522.169 13.1925 523.878 11.481 525.944 11.481H568.182C570.248 11.481 571.957 13.1925 571.957 15.2606C571.957 17.3287 570.248 19.0402 568.182 19.0402Z" fill="#6DC5EE"/>
<path d="M84.2602 60.9731C43.9452 60.9731 10.0407 88.7142 0.638672 126.225C1.84955 175.075 41.8084 214.298 90.8844 214.298C122.581 214.298 150.431 197.967 166.528 173.15C169.093 164.949 170.446 156.32 170.446 147.263C170.517 99.6252 131.912 60.9731 84.2602 60.9731Z" fill="#66CFFA"/>
<path d="M79.7728 82.5811H100.073H124.077C169.805 82.5811 206.843 119.664 206.843 165.448C206.843 165.947 206.843 166.446 206.843 166.945L255.848 117.881" stroke="#66CFFA" stroke-width="40" stroke-miterlimit="10" stroke-linejoin="round"/>
<path d="M112.538 43.7862C123.12 43.7862 131.698 35.1975 131.698 24.6028C131.698 14.0081 123.12 5.41943 112.538 5.41943C101.956 5.41943 93.3774 14.0081 93.3774 24.6028C93.3774 35.1975 101.956 43.7862 112.538 43.7862Z" fill="white" stroke="#0637A3" stroke-miterlimit="10"/>
<path d="M93.5199 77.7315C73.2199 69.5304 63.4617 46.2821 71.6529 25.9577C79.8441 5.63329 103.064 -4.20801 123.364 4.06439" fill="#0A1179"/>
<path d="M85.9698 217.436L48.9313 162.738L61.3249 119.522" fill="#0637A3"/>
<path d="M326.649 130.219H243.383V213.585H326.649V130.219Z" fill="white" stroke="#0637A3" stroke-miterlimit="10"/>
<path d="M326.791 143.554C325.509 143.483 324.227 143.412 322.874 143.412C288.969 143.412 261.475 170.939 261.475 204.884C261.475 207.879 261.689 210.874 262.116 213.727H326.791V143.554Z" fill="#0637A3"/>
<path d="M298.086 194.33C297.018 194.33 295.949 193.902 295.166 193.118L286.334 184.346C284.695 182.706 284.695 180.067 286.334 178.498C287.972 176.858 290.607 176.858 292.174 178.498L296.947 183.205L303.215 170.725C304.212 168.657 306.705 167.873 308.77 168.871C310.836 169.869 311.62 172.365 310.622 174.433L301.79 192.048C301.22 193.26 300.081 194.045 298.727 194.259C298.514 194.33 298.3 194.33 298.086 194.33Z" fill="white"/>
<path d="M260.834 129.862V112.247C260.834 99.9815 270.806 89.9976 283.057 89.9976C295.308 89.9976 305.28 99.9815 305.28 112.247V130.147" stroke="#0637A3" stroke-miterlimit="10"/>
<path d="M265.108 129.862V112.247C265.108 99.9815 275.08 89.9976 287.331 89.9976C299.582 89.9976 309.554 99.9815 309.554 112.247V130.147" stroke="#0637A3" stroke-miterlimit="10"/>
<path d="M243.526 105.901C250.221 97.9135 259.053 91.7805 268.883 88.2861C270.806 87.6443 272.729 87.0025 274.724 86.7886C282.844 85.7188 291.32 90.7108 294.311 98.3414C297.303 105.972 294.596 115.385 287.972 120.235C286.69 121.162 285.265 121.946 283.627 121.661C282.701 121.518 281.918 120.948 281.561 120.163C280.778 118.381 282.274 116.74 283.485 115.314C285.55 112.961 287.046 110.108 287.901 107.042C286.334 109.68 284.695 112.39 282.487 114.53C280.992 115.956 279.211 117.168 277.288 117.739C275.507 118.309 274.011 116.384 274.866 114.815C276.433 111.82 280.137 109.252 280.351 105.687C279.425 110.037 276.148 113.888 271.874 115.385C270.45 115.885 268.812 115.385 268.099 114.102C266.888 111.962 269.025 110.108 270.521 108.611C271.874 107.256 272.943 105.544 273.655 103.761C274.51 101.55 272.943 99.0545 270.592 99.0545C270.592 99.0545 270.592 99.0545 270.521 99.0545C268.883 99.0545 267.316 100.053 266.675 101.55C266.39 102.121 266.319 102.763 266.247 103.333C266.034 105.401 266.247 107.47 266.675 109.466L268.527 117.881C268.883 119.379 269.168 121.019 267.814 122.303C267.031 123.087 265.82 123.301 264.752 123.159C262.544 122.731 261.048 120.948 259.979 119.094C258.27 116.241 257.202 113.032 256.774 109.68" fill="white"/>
<path d="M243.526 105.901C250.221 97.9135 259.053 91.7805 268.883 88.2861C270.806 87.6443 272.729 87.0025 274.724 86.7886C282.844 85.7188 291.32 90.7108 294.311 98.3414C297.303 105.972 294.596 115.385 287.972 120.235C286.69 121.162 285.265 121.946 283.627 121.661C282.701 121.518 281.918 120.948 281.561 120.163C280.778 118.381 282.274 116.74 283.485 115.314C285.55 112.961 287.046 110.108 287.901 107.042C286.334 109.68 284.695 112.39 282.487 114.53C280.992 115.956 279.211 117.168 277.288 117.739C275.507 118.309 274.011 116.384 274.866 114.815C276.433 111.82 280.137 109.252 280.351 105.687C279.425 110.037 276.148 113.888 271.874 115.385C270.45 115.885 268.812 115.385 268.099 114.102C266.888 111.962 269.025 110.108 270.521 108.611C271.874 107.256 272.943 105.544 273.655 103.761C274.51 101.55 272.943 99.0545 270.592 99.0545C270.592 99.0545 270.592 99.0545 270.521 99.0545C268.883 99.0545 267.316 100.053 266.675 101.55C266.39 102.121 266.319 102.763 266.247 103.333C266.034 105.401 266.247 107.47 266.675 109.466L268.527 117.881C268.883 119.379 269.168 121.019 267.814 122.303C267.031 123.087 265.82 123.301 264.752 123.159C262.544 122.731 261.048 120.948 259.979 119.094C258.27 116.241 257.202 113.032 256.774 109.68" stroke="#0637A3" stroke-miterlimit="10" stroke-linecap="round" stroke-linejoin="round"/>
<path d="M468.962 250.953L208.838 286.823V313.566H531.5C531.5 278.979 503.507 250.953 468.962 250.953Z" fill="#0637A3"/>
<path d="M379.072 86.432L298.442 58.1204C294.026 56.5515 291.676 51.6308 293.172 47.2094L307.346 6.77448C308.913 2.35303 313.828 -0.000324607 318.244 1.49726L398.945 29.7375C403.361 31.3064 405.712 36.2271 404.216 40.6485L390.041 81.0834C388.403 85.5762 383.56 88.0009 379.072 86.432Z" fill="#0637A3"/>
<path d="M339.042 40.2204C341.25 34.0161 346.45 29.7373 352.504 28.5963C350.51 26.3142 347.946 24.4601 344.883 23.3904C335.623 20.11 325.509 25.0306 322.232 34.3014C318.956 43.5722 323.871 53.6987 333.13 56.9792C336.193 58.0489 339.327 58.2628 342.319 57.6923C338.33 53.0569 336.834 46.4247 339.042 40.2204Z" fill="#00C6F0"/>
<path d="M361.693 29.3096C358.63 28.2398 355.496 28.0259 352.504 28.5964C356.493 33.2318 357.989 39.864 355.781 46.0683C353.573 52.2726 348.373 56.5514 342.319 57.6924C344.313 59.9745 346.877 61.8286 349.94 62.8983C359.2 66.1788 369.314 61.2581 372.591 51.9873C375.796 42.7165 370.952 32.59 361.693 29.3096Z" fill="white"/>
<path d="M355.759 46.1206C358.565 38.0906 357.078 30.2627 352.437 28.6366C347.795 27.0105 341.757 32.2018 338.951 40.2319C336.144 48.2619 337.632 56.0897 342.273 57.7159C346.915 59.342 352.952 54.1506 355.759 46.1206Z" fill="#B8E56B"/>
<path d="M149.932 239.471H153.992C175.717 239.471 193.31 257.086 193.31 278.836V313.352H150.004V239.471H149.932Z" fill="#B8E56B"/>
<path d="M156.557 239.686C180.489 239.686 199.863 259.083 199.863 283.044V313.567H156.557V239.686Z" fill="#0A1179"/>
<path d="M15.6679 287.466C24.0469 287.466 30.8394 280.665 30.8394 272.276C30.8394 263.887 24.0469 257.086 15.6679 257.086C7.28886 257.086 0.496338 263.887 0.496338 272.276C0.496338 280.665 7.28886 287.466 15.6679 287.466Z" fill="#0A1179"/>
<path d="M60.6126 287.466C68.9916 287.466 75.7841 280.665 75.7841 272.276C75.7841 263.887 68.9916 257.086 60.6126 257.086C52.2336 257.086 45.441 263.887 45.441 272.276C45.441 280.665 52.2336 287.466 60.6126 287.466Z" fill="#66CFFA"/>
<path d="M105.486 287.466C113.865 287.466 120.658 280.665 120.658 272.276C120.658 263.887 113.865 257.086 105.486 257.086C97.1071 257.086 90.3146 263.887 90.3146 272.276C90.3146 280.665 97.1071 287.466 105.486 287.466Z" fill="#B8E56B"/>
<path d="M522.169 253.093L516.756 254.305C490.686 234.48 463.477 226.92 430.784 226.92V171.581C430.784 143.697 453.363 121.091 481.213 121.091H494.176C514.833 121.091 531.642 137.85 531.642 158.602L531.286 244.606C531.286 249.883 526.3 256.23 522.169 253.093Z" fill="#0A1179"/>
<path d="M442.821 122.944C413.547 127.794 385.34 115.314 368.816 92.9927C361.835 83.5793 340.111 84.1498 343.245 103.333C350.154 145.052 389.543 173.292 431.282 166.375C469.674 159.956 465.329 119.236 442.821 122.944Z" fill="#0A1179"/>
<path d="M340.752 77.8743C338.757 75.9488 337.76 73.1676 336.834 70.529C335.908 67.8904 334.982 65.1091 333.059 63.1123C332.276 62.3279 331.278 61.6147 330.139 61.5434C328.216 61.4721 326.72 63.3976 326.292 65.3231C325.295 69.5306 327.575 73.7381 329.925 77.3038C331.635 79.9424 333.486 82.581 335.41 85.1483C337.262 87.6443 339.327 90.1402 342.105 91.5665" fill="white"/>
<path d="M340.752 77.8743C338.757 75.9488 337.76 73.1676 336.834 70.529C335.908 67.8904 334.982 65.1091 333.059 63.1123C332.276 62.3279 331.278 61.6147 330.139 61.5434C328.216 61.4721 326.72 63.3976 326.292 65.3231C325.295 69.5306 327.575 73.7381 329.925 77.3038C331.635 79.9424 333.486 82.581 335.41 85.1483C337.262 87.6443 339.327 90.1402 342.105 91.5665" stroke="#0637A3" stroke-miterlimit="10" stroke-linecap="round" stroke-linejoin="round"/>
<path d="M421.951 123.587L481.142 121.091L458.634 148.047L421.951 123.587Z" fill="#0A1179"/>
<path d="M421.168 242.395C441.183 226.991 466.754 221.001 491.684 217.506C489.903 207.095 488.051 196.255 486.27 185.843C485.059 178.426 483.777 170.939 484.703 163.451C485.487 157.532 486.484 151.541 489.048 146.121C492.538 138.705 497.952 131.217 506 129.648C513.551 128.15 521.386 132.643 525.802 138.99C530.218 145.337 531.856 153.181 532.711 160.883C533.85 171.509 533.779 182.277 533.637 192.974C533.494 208.949 533.281 224.994 533.138 240.969C533.138 244.178 533.067 247.458 532.141 250.596C531.215 253.662 529.292 256.658 526.372 258.013C524.306 259.011 522.027 259.154 519.747 259.296C503.65 260.295 451.511 262.006 441.61 259.51C437.123 258.369 431.71 257.727 429.502 253.591C428.362 251.38 427.935 248.742 426.225 247.03C424.302 245.034 420.669 244.106 420.669 241.325C421.026 242.395 420.883 241.325 421.168 242.395Z" fill="#0A1179"/>
<path d="M425.442 239.114C444.673 226.135 468.321 220.716 491.399 217.506C489.618 207.095 487.766 196.255 485.985 185.843C484.774 178.426 483.492 170.939 484.418 163.451C485.202 157.532 486.199 151.541 488.763 146.121C492.253 138.705 497.667 131.217 505.715 129.648C513.266 128.15 521.101 132.643 525.517 138.99C529.933 145.337 531.571 153.181 532.426 160.883C533.565 171.509 533.494 182.277 533.352 192.974C533.209 208.949 532.996 224.994 532.853 240.969C532.853 244.178 532.782 247.458 531.856 250.596C530.93 253.662 529.007 256.658 526.087 258.013C524.021 259.011 521.742 259.154 519.462 259.296C503.365 260.295 451.226 262.006 441.325 259.51" stroke="white" stroke-miterlimit="10"/>
<path d="M318.742 195.685L347.234 267.64L418.533 258.155" stroke="#66CFFA" stroke-width="10" stroke-miterlimit="10" stroke-linecap="round" stroke-linejoin="round"/>
<path d="M392.321 265.429C390.683 251.737 400.441 239.329 414.117 237.76C427.792 236.191 440.186 245.889 441.753 259.582" fill="white"/>
<path d="M392.321 265.429C390.683 251.737 400.441 239.329 414.117 237.76C427.792 236.191 440.186 245.889 441.753 259.582" stroke="#0637A3" stroke-miterlimit="10"/>
<path d="M399.8 265.287C398.518 254.661 406.139 244.962 416.823 243.679" stroke="#0637A3" stroke-miterlimit="10"/>
<path d="M409.914 265.287C408.917 256.872 414.9 249.241 423.305 248.243" stroke="#0637A3" stroke-miterlimit="10"/>
<path d="M418.604 265.287C417.892 259.012 422.308 253.378 428.576 252.593" stroke="#0637A3" stroke-miterlimit="10"/>
<path d="M232.557 19.1833L236.759 27.741C237.471 29.1672 238.896 30.237 240.463 30.4509L249.936 31.8059C253.996 32.3764 255.635 37.3683 252.643 40.2209L245.805 46.9244C244.665 48.0654 244.096 49.7056 244.38 51.2745L246.019 60.6879C246.731 64.7528 242.457 67.8193 238.825 65.8938L230.349 61.4724C228.924 60.6879 227.215 60.6879 225.719 61.4724L217.243 65.8938C213.61 67.8193 209.408 64.7528 210.049 60.6879L211.687 51.2745C211.972 49.6343 211.402 48.0654 210.262 46.9244L203.424 40.2209C200.504 37.3683 202.142 32.3764 206.131 31.8059L215.604 30.4509C217.243 30.237 218.596 29.2386 219.308 27.741L223.511 19.1833C225.505 15.5463 230.776 15.5463 232.557 19.1833Z" fill="#B8E56B"/>
</g>
<defs>
<clipPath id="clip0">
<rect width="583" height="312.853" fill="white" transform="translate(0.425049 0.712891)"/>
</clipPath>
</defs>
</svg>
