<svg width="579" height="314" viewBox="0 0 579 314" fill="none" xmlns="http://www.w3.org/2000/svg">
<path d="M216.138 43.5839C227.127 43.5839 236.036 34.6756 236.036 23.6867C236.036 12.6978 227.127 3.78955 216.138 3.78955C205.149 3.78955 196.241 12.6978 196.241 23.6867C196.241 34.6756 205.149 43.5839 216.138 43.5839Z" fill="white" stroke="#0637A3" stroke-miterlimit="10"/>
<path d="M313.349 244.555C313.349 244.555 304.913 237.588 299.755 236.5C294.463 235.384 288.923 236.5 283.899 238.528C273.753 242.548 265.627 250.419 257.049 257.174C250.57 262.283 242.755 266.423 234.517 266.028C219.24 265.321 209.264 250.222 201.823 236.853C194.383 223.485 184.286 208.442 168.996 207.884C159.81 207.552 151.176 212.978 145.297 220.058C139.419 227.138 135.801 235.772 132.091 244.195C128.212 253.02 124.065 261.894 117.734 269.165C111.403 276.436 102.542 282.025 92.9118 282.35C70.0965 283.127 55.2019 256.249 32.7399 252.151C26.8933 251.168 20.8898 251.786 15.3656 253.938C9.84141 256.09 5.00223 259.696 1.36084 264.374V313.566H313.229L313.349 244.555Z" fill="#F4F5F7"/>
<path d="M275.83 35.6348H286.881C297.388 35.6348 305.909 58.4996 305.909 86.7061C305.909 114.913 297.388 137.77 286.881 137.77H275.47" fill="#0A1179"/>
<path d="M394.203 41.061L546.985 73.9733" stroke="#B8E56B" stroke-width="30" stroke-miterlimit="10"/>
<path d="M578.449 201.645C578.449 139.968 528.283 89.9634 466.591 89.9634C436.972 89.9634 408.565 101.73 387.621 122.674C366.677 143.618 354.91 172.025 354.91 201.645C354.91 231.264 366.677 259.671 387.621 280.615C408.565 301.56 436.972 313.326 466.591 313.326H578.457V204.393C578.457 204.393 578.449 202.69 578.449 201.645Z" fill="#66CFFA"/>
<path d="M1.26183 99.0423C1.26044 117.814 6.826 136.165 17.2546 151.774C27.6833 167.383 42.5065 179.548 59.8496 186.732C77.1928 193.916 96.2768 195.795 114.688 192.132C133.099 188.469 150.011 179.429 163.284 166.154C176.556 152.879 185.595 135.966 189.255 117.554C192.915 99.1426 191.033 80.0589 183.847 62.7168C176.66 45.3748 164.492 30.5533 148.882 20.127C133.272 9.70073 114.92 4.1379 96.1479 4.14209H1.07812V96.7035C1.07812 96.7035 1.26183 98.1873 1.26183 99.0423Z" fill="#B8E56B"/>
<path d="M382.615 269.165H347.032V240.661C347.045 220.245 355.158 200.669 369.591 186.229C384.024 171.79 403.597 163.667 424.013 163.645H551.352V206.039H424.013C380.601 206.074 382.615 269.165 382.615 269.165Z" fill="#0A1179"/>
<path d="M537.312 47.0391C547.821 47.0391 556.34 38.5199 556.34 28.011C556.34 17.5021 547.821 8.98291 537.312 8.98291C526.803 8.98291 518.284 17.5021 518.284 28.011C518.284 38.5199 526.803 47.0391 537.312 47.0391Z" fill="white" stroke="#0637A3" stroke-miterlimit="10"/>
<path d="M251.009 176.8L223.727 159.54C219.77 157.036 214.532 158.214 212.028 162.172L205.716 172.149C203.212 176.107 204.391 181.344 208.348 183.848L235.63 201.108C239.587 203.612 244.825 202.433 247.328 198.476L253.641 188.498C256.144 184.541 254.966 179.303 251.009 176.8Z" fill="#0637A3"/>
<path d="M225.593 177.529C226.392 176.262 227.511 175.229 228.837 174.533C230.163 173.837 231.65 173.503 233.146 173.565C232.451 172.237 231.419 171.115 230.152 170.312C228.886 169.51 227.431 169.055 225.933 168.993C224.436 168.931 222.948 169.265 221.62 169.961C220.292 170.657 219.171 171.691 218.37 172.958C217.568 174.224 217.115 175.68 217.054 177.178C216.994 178.676 217.329 180.163 218.026 181.49C218.723 182.817 219.758 183.938 221.025 184.738C222.293 185.538 223.748 185.991 225.246 186.05C224.551 184.724 224.217 183.239 224.278 181.743C224.339 180.247 224.792 178.794 225.593 177.529Z" fill="#66CFFA"/>
<path d="M237.364 174.879C236.093 174.072 234.63 173.619 233.125 173.565C233.82 174.889 234.154 176.373 234.095 177.867C234.035 179.362 233.584 180.814 232.786 182.079C231.988 183.344 230.871 184.377 229.548 185.074C228.224 185.771 226.741 186.107 225.247 186.05C225.855 187.207 226.722 188.209 227.779 188.977C228.836 189.746 230.056 190.262 231.344 190.484C232.632 190.706 233.954 190.629 235.208 190.259C236.462 189.889 237.614 189.236 238.575 188.35C239.536 187.464 240.281 186.369 240.751 185.149C241.222 183.93 241.406 182.618 241.289 181.316C241.172 180.014 240.757 178.757 240.076 177.641C239.396 176.524 238.468 175.58 237.364 174.879Z" fill="white"/>
<path d="M48.7084 101.403L49.203 101.452C52.8333 101.729 56.4641 100.923 59.6367 99.1374C62.8093 97.3512 65.3811 94.6647 67.0273 91.4172C68.6734 88.1698 69.3198 84.5073 68.8849 80.8925C68.45 77.2778 66.9533 73.8731 64.5839 71.1088C62.2145 68.3445 59.0787 66.3447 55.573 65.362C52.0673 64.3794 48.349 64.4581 44.888 65.5882C41.4271 66.7182 38.3788 68.849 36.1284 71.711C33.8781 74.5731 32.5268 78.0381 32.2452 81.668L30.832 100.039L48.7437 101.452L48.7084 101.403Z" fill="#0A1179"/>
<path d="M108.237 79.2305C118.746 79.2305 127.265 70.7113 127.265 60.2024C127.265 49.6935 118.746 41.1743 108.237 41.1743C97.7281 41.1743 89.209 49.6935 89.209 60.2024C89.209 70.7113 97.7281 79.2305 108.237 79.2305Z" fill="white" stroke="#0637A3" stroke-miterlimit="10"/>
<path d="M275.47 137.77C285.979 137.77 294.498 114.908 294.498 86.7058C294.498 58.5038 285.979 35.6416 275.47 35.6416C264.961 35.6416 256.442 58.5038 256.442 86.7058C256.442 114.908 264.961 137.77 275.47 137.77Z" fill="white" stroke="#0637A3" stroke-miterlimit="10"/>
<path d="M1.61475 264.374C5.25613 259.696 10.0953 256.089 15.6195 253.937C21.1437 251.785 27.1472 251.168 32.9938 252.15C55.4558 256.249 70.3504 283.127 93.1728 282.356C102.803 282.031 111.671 276.442 117.995 269.172C124.319 261.901 128.473 253.027 132.359 244.201C136.062 235.779 139.68 227.152 145.558 220.065C151.437 212.978 160.064 207.558 169.264 207.89C184.547 208.442 194.651 223.485 202.084 236.86C209.518 250.236 219.501 265.314 234.785 266.035C243.016 266.43 250.838 262.29 257.31 257.181C265.881 250.426 274.007 242.555 284.16 238.535C289.184 236.542 294.724 235.39 300.016 236.507C305.174 237.595 309.434 241.354 313.617 244.562" stroke="#0A1179" stroke-width="3" stroke-linecap="round" stroke-linejoin="round"/>
<path d="M165.018 213.162C167.894 213.162 170.225 210.83 170.225 207.954C170.225 205.078 167.894 202.747 165.018 202.747C162.142 202.747 159.811 205.078 159.811 207.954C159.811 210.83 162.142 213.162 165.018 213.162Z" fill="white" stroke="#0A1179" stroke-width="3" stroke-linecap="round" stroke-linejoin="round"/>
<path d="M199.859 218.786H165.773C161.091 218.786 157.294 222.582 157.294 227.265V229.109C157.294 233.791 161.091 237.588 165.773 237.588H199.859C204.541 237.588 208.337 233.791 208.337 229.109V227.265C208.337 222.582 204.541 218.786 199.859 218.786Z" fill="#B8E56B"/>
<path d="M171.014 228.547H168.782V230.731H168.026V228.547H165.794V227.839H168.026V225.643H168.782V227.839H171.014V228.547Z" fill="#0A1179"/>
<path d="M175.102 227.587C175.982 227.635 176.65 227.875 177.106 228.307C177.57 228.731 177.802 229.287 177.802 229.975C177.802 230.455 177.686 230.883 177.454 231.259C177.222 231.627 176.878 231.919 176.422 232.135C175.966 232.351 175.41 232.459 174.754 232.459C174.146 232.459 173.57 232.363 173.026 232.171C172.49 231.971 172.058 231.707 171.73 231.379L172.15 230.695C172.43 230.983 172.802 231.219 173.266 231.403C173.73 231.579 174.226 231.667 174.754 231.667C175.442 231.667 175.974 231.519 176.35 231.223C176.726 230.919 176.914 230.503 176.914 229.975C176.914 229.455 176.726 229.047 176.35 228.751C175.974 228.455 175.406 228.307 174.646 228.307H174.046V227.671L176.374 224.755H172.078V223.987H177.478V224.599L175.102 227.587Z" fill="#0A1179"/>
<path d="M182.5 227.359C183.052 227.359 183.54 227.463 183.964 227.671C184.396 227.879 184.732 228.175 184.972 228.559C185.212 228.935 185.332 229.375 185.332 229.879C185.332 230.391 185.208 230.843 184.96 231.235C184.712 231.627 184.368 231.931 183.928 232.147C183.496 232.355 183.008 232.459 182.464 232.459C181.352 232.459 180.5 232.095 179.908 231.367C179.316 230.631 179.02 229.595 179.02 228.259C179.02 227.323 179.18 226.531 179.5 225.883C179.82 225.235 180.268 224.747 180.844 224.419C181.42 224.083 182.092 223.915 182.86 223.915C183.692 223.915 184.356 224.067 184.852 224.371L184.504 225.067C184.104 224.803 183.56 224.671 182.872 224.671C181.944 224.671 181.216 224.967 180.688 225.559C180.16 226.143 179.896 226.995 179.896 228.115C179.896 228.315 179.908 228.543 179.932 228.799C180.14 228.343 180.472 227.991 180.928 227.743C181.384 227.487 181.908 227.359 182.5 227.359ZM182.428 231.727C183.036 231.727 183.528 231.563 183.904 231.235C184.288 230.899 184.48 230.455 184.48 229.903C184.48 229.351 184.288 228.911 183.904 228.583C183.528 228.255 183.016 228.091 182.368 228.091C181.944 228.091 181.568 228.171 181.24 228.331C180.92 228.491 180.668 228.711 180.484 228.991C180.3 229.271 180.208 229.583 180.208 229.927C180.208 230.247 180.292 230.543 180.46 230.815C180.636 231.087 180.892 231.307 181.228 231.475C181.564 231.643 181.964 231.727 182.428 231.727Z" fill="#0A1179"/>
<path d="M188.54 227.431C189.756 227.431 190.64 227.651 191.192 228.091C191.752 228.523 192.032 229.131 192.032 229.915C192.032 230.403 191.916 230.839 191.684 231.223C191.46 231.607 191.12 231.911 190.664 232.135C190.208 232.351 189.648 232.459 188.984 232.459C188.384 232.459 187.812 232.363 187.268 232.171C186.732 231.971 186.3 231.707 185.972 231.379L186.392 230.695C186.672 230.983 187.04 231.219 187.496 231.403C187.952 231.579 188.444 231.667 188.972 231.667C189.668 231.667 190.204 231.511 190.58 231.199C190.964 230.887 191.156 230.471 191.156 229.951C191.156 229.375 190.94 228.939 190.508 228.643C190.084 228.347 189.364 228.199 188.348 228.199H186.56L186.992 223.987H191.588V224.755H187.748L187.46 227.431H188.54Z" fill="#0A1179"/>
<path d="M196.477 232.459C195.829 232.459 195.249 232.287 194.737 231.943C194.233 231.599 193.837 231.107 193.549 230.467C193.269 229.819 193.129 229.059 193.129 228.187C193.129 227.315 193.269 226.559 193.549 225.919C193.837 225.271 194.233 224.775 194.737 224.431C195.249 224.087 195.829 223.915 196.477 223.915C197.125 223.915 197.701 224.087 198.205 224.431C198.717 224.775 199.117 225.271 199.405 225.919C199.693 226.559 199.837 227.315 199.837 228.187C199.837 229.059 199.693 229.819 199.405 230.467C199.117 231.107 198.717 231.599 198.205 231.943C197.701 232.287 197.125 232.459 196.477 232.459ZM196.477 231.667C196.965 231.667 197.393 231.531 197.761 231.259C198.137 230.987 198.429 230.591 198.637 230.071C198.845 229.551 198.949 228.923 198.949 228.187C198.949 227.451 198.845 226.823 198.637 226.303C198.429 225.783 198.137 225.387 197.761 225.115C197.393 224.843 196.965 224.707 196.477 224.707C195.989 224.707 195.557 224.843 195.181 225.115C194.813 225.387 194.525 225.783 194.317 226.303C194.109 226.823 194.005 227.451 194.005 228.187C194.005 228.923 194.109 229.551 194.317 230.071C194.525 230.591 194.813 230.987 195.181 231.259C195.557 231.531 195.989 231.667 196.477 231.667Z" fill="#0A1179"/>
<path d="M222.462 27.7724C222.462 28.9838 221.998 30.0142 221.069 30.8638C220.141 31.6976 218.78 32.1617 216.987 32.2561V34.9698H215.807V32.2797C214.659 32.2167 213.573 31.9965 212.55 31.6189C211.544 31.2256 210.749 30.73 210.167 30.1322L210.851 28.7871C211.402 29.322 212.118 29.7704 212.999 30.1322C213.895 30.4941 214.832 30.7064 215.807 30.7694V24.5631C214.721 24.2956 213.817 24.0124 213.093 23.7135C212.369 23.3989 211.764 22.9505 211.276 22.3684C210.804 21.7706 210.568 20.984 210.568 20.0086C210.568 18.7973 211.009 17.7825 211.89 16.9645C212.771 16.1307 214.076 15.643 215.807 15.5014V12.7876H216.987V15.4778C217.884 15.5092 218.749 15.6587 219.583 15.9261C220.432 16.1779 221.164 16.5161 221.777 16.9409L221.187 18.3332C220.542 17.9241 219.858 17.6016 219.134 17.3656C218.411 17.1297 217.695 16.9959 216.987 16.9645V23.218C218.151 23.5012 219.103 23.7922 219.842 24.0911C220.582 24.3743 221.203 24.8148 221.706 25.4126C222.21 26.0104 222.462 26.797 222.462 27.7724ZM212.291 19.9614C212.291 20.7795 212.59 21.4009 213.188 21.8257C213.801 22.2505 214.674 22.6123 215.807 22.9112V17.0117C214.643 17.1061 213.762 17.4286 213.164 17.9792C212.582 18.5141 212.291 19.1748 212.291 19.9614ZM216.987 30.7694C218.23 30.675 219.166 30.3682 219.795 29.849C220.424 29.3299 220.739 28.6691 220.739 27.8668C220.739 27.0173 220.416 26.3801 219.771 25.9554C219.126 25.5306 218.198 25.1688 216.987 24.8698V30.7694Z" fill="#0637A3"/>
<path d="M387.712 5.13951L360.93 21.5321C356.936 23.9767 355.68 29.1963 358.125 33.1903L394.982 93.4069C397.427 97.4009 402.646 98.6568 406.64 96.2122L433.422 79.8196C437.416 77.375 438.672 72.1554 436.227 68.1614L399.37 7.94486C396.925 3.95086 391.706 2.69486 387.712 5.13951Z" fill="#0637A3"/>
<path d="M411.464 52.0838C409.886 53.0518 408.069 53.5595 406.218 53.5498C404.366 53.5401 402.555 53.0133 400.987 52.0288C399.419 51.0443 398.157 49.6414 397.344 47.9781C396.531 46.3149 396.199 44.4576 396.386 42.6157L380.551 52.3099C379.719 52.8229 379.124 53.6442 378.895 54.5946C378.666 55.545 378.822 56.5475 379.329 57.3832L388.62 72.5675C389.135 73.4002 389.957 73.996 390.909 74.2249C391.86 74.4539 392.864 74.2975 393.701 73.7898L419.328 58.0968C420.164 57.5851 420.762 56.7625 420.991 55.8098C421.221 54.8571 421.062 53.8523 420.551 53.0165L416.021 45.5904C415.751 46.9287 415.207 48.1965 414.422 49.314C413.638 50.4315 412.631 51.3746 411.464 52.0838Z" fill="white"/>
<path d="M411.464 52.0833C412.631 51.374 413.638 50.431 414.422 49.3135C415.207 48.1959 415.751 46.9281 416.022 45.5899L411.273 37.8175C410.754 36.9881 409.926 36.3988 408.972 36.179C408.019 35.9591 407.017 36.1265 406.186 36.6446L396.386 42.6434C396.2 44.4853 396.532 46.3426 397.345 48.0059C398.158 49.6691 399.419 51.0721 400.987 52.0565C402.555 53.041 404.366 53.5678 406.218 53.5775C408.069 53.5873 409.886 53.0795 411.464 52.1116V52.0833Z" fill="#66CFFA"/>
<path d="M384.812 39.7121C390.307 39.7121 394.761 35.258 394.761 29.7635C394.761 24.2691 390.307 19.8149 384.812 19.8149C379.318 19.8149 374.864 24.2691 374.864 29.7635C374.864 35.258 379.318 39.7121 384.812 39.7121Z" fill="white"/>
<path d="M422.469 62.9012L396.693 78.6777C394.953 79.7432 394.405 82.0181 395.471 83.7588L396.522 85.4763C397.587 87.217 399.862 87.7644 401.603 86.699L427.378 70.9225C429.119 69.857 429.666 67.5821 428.601 65.8414L427.55 64.1239C426.484 62.3831 424.209 61.8357 422.469 62.9012Z" fill="#B8E56B"/>
<path d="M393.201 61.7951C393.409 62.1346 393.455 62.5029 393.341 62.9001C393.223 63.2929 392.922 63.6562 392.435 63.9902L392.901 64.7507L392.57 64.9529L392.109 64.1991C391.776 64.3783 391.434 64.5027 391.083 64.5722C390.733 64.6346 390.426 64.6319 390.16 64.5642L390.121 64.0699C390.367 64.1254 390.645 64.1283 390.954 64.0787C391.267 64.0264 391.566 63.9254 391.85 63.7758L390.786 62.0366C390.436 62.1478 390.134 62.2235 389.88 62.2638C389.623 62.2997 389.376 62.2779 389.14 62.1983C388.905 62.1117 388.704 61.9318 388.537 61.6584C388.329 61.3189 388.279 60.9591 388.385 60.5788C388.489 60.1941 388.772 59.8336 389.232 59.4972L388.767 58.7367L389.098 58.5344L389.559 59.2883C389.816 59.1434 390.084 59.0369 390.363 58.9689C390.644 58.8938 390.907 58.8632 391.152 58.8771L391.225 59.3684C390.975 59.3643 390.728 59.3913 390.484 59.4492C390.241 59.5071 390.018 59.5924 389.814 59.7049L390.886 61.4574C391.261 61.3372 391.577 61.2555 391.836 61.2125C392.091 61.1651 392.341 61.182 392.585 61.2633C392.828 61.3445 393.034 61.5218 393.201 61.7951ZM389.012 61.3499C389.152 61.5791 389.342 61.702 389.582 61.7186C389.827 61.7324 390.134 61.6841 390.503 61.5737L389.491 59.9204C389.181 60.1465 388.99 60.3879 388.916 60.6447C388.845 60.8944 388.877 61.1294 389.012 61.3499ZM392.18 63.5735C392.513 63.334 392.722 63.0876 392.81 62.8342C392.897 62.5808 392.872 62.3417 392.734 62.1169C392.589 61.8788 392.389 61.7556 392.135 61.7471C391.882 61.7387 391.56 61.7964 391.169 61.9203L392.18 63.5735Z" fill="#0A1179"/>
<path d="M394.151 59.1415C394.822 58.7315 395.383 58.5548 395.835 58.6111C396.29 58.6604 396.649 58.9011 396.913 59.3331C397.078 59.602 397.161 59.8814 397.162 60.1713C397.168 60.4584 397.084 60.7405 396.908 61.0177C396.729 61.2905 396.457 61.5388 396.091 61.7627C395.761 61.9649 395.413 62.1049 395.048 62.1825C394.686 62.2529 394.359 62.2531 394.067 62.1829L394.068 61.6644C394.32 61.7287 394.602 61.7347 394.915 61.6824C395.226 61.6256 395.527 61.5082 395.818 61.3302C396.201 61.0956 396.444 60.8289 396.546 60.5302C396.652 60.2288 396.618 59.9348 396.443 59.6483C396.248 59.3309 395.982 59.1634 395.645 59.1459C395.311 59.1258 394.864 59.2869 394.305 59.6295L393.319 60.2323L392.137 57.7654L394.67 56.216L394.929 56.6392L392.813 57.9338L393.556 59.5056L394.151 59.1415Z" fill="#0A1179"/>
<path d="M400.22 59.2366C399.863 59.455 399.486 59.5558 399.088 59.5388C398.694 59.5192 398.31 59.3815 397.935 59.1259C397.563 58.8632 397.229 58.4916 396.935 58.011C396.641 57.5305 396.463 57.0667 396.402 56.6196C396.342 56.1654 396.393 55.7586 396.555 55.3991C396.721 55.0369 396.983 54.7466 397.34 54.5281C397.697 54.3096 398.072 54.2102 398.466 54.2299C398.864 54.2469 399.252 54.3853 399.629 54.6453C400.004 54.9009 400.338 55.269 400.632 55.7496C400.926 56.2301 401.103 56.6975 401.162 57.1517C401.22 57.6015 401.165 58.0074 400.999 58.3696C400.837 58.7291 400.578 59.0181 400.22 59.2366ZM399.953 58.8001C400.222 58.6356 400.412 58.4163 400.523 58.1424C400.639 57.8657 400.666 57.549 400.606 57.1924C400.545 56.8357 400.391 56.4545 400.142 56.0489C399.894 55.6433 399.625 55.3323 399.335 55.1159C399.045 54.8994 398.751 54.7797 398.452 54.7565C398.158 54.7307 397.876 54.8 397.607 54.9646C397.338 55.1291 397.146 55.3497 397.03 55.6263C396.919 55.9003 396.894 56.2156 396.955 56.5723C397.015 56.929 397.17 57.3101 397.418 57.7157C397.666 58.1213 397.935 58.4323 398.225 58.6488C398.515 58.8652 398.807 58.9864 399.102 59.0122C399.401 59.0353 399.685 58.9646 399.953 58.8001Z" fill="#0A1179"/>
<path d="M404.599 56.5579C404.242 56.7764 403.864 56.8771 403.466 56.8602C403.072 56.8405 402.688 56.7029 402.314 56.4473C401.941 56.1846 401.608 55.813 401.314 55.3324C401.02 54.8519 400.842 54.3881 400.781 53.941C400.721 53.4868 400.772 53.0799 400.934 52.7204C401.1 52.3583 401.361 52.0679 401.719 51.8495C402.076 51.631 402.451 51.5316 402.845 51.5513C403.243 51.5682 403.631 51.7067 404.008 51.9667C404.382 52.2223 404.716 52.5904 405.01 53.0709C405.304 53.5515 405.481 54.0188 405.541 54.473C405.598 54.9228 405.543 55.3288 405.377 55.691C405.216 56.0505 404.956 56.3395 404.599 56.5579ZM404.332 56.1215C404.601 55.9569 404.791 55.7377 404.902 55.4637C405.018 55.1871 405.045 54.8704 404.984 54.5137C404.924 54.157 404.769 53.7759 404.521 53.3703C404.273 52.9647 404.004 52.6537 403.714 52.4372C403.424 52.2208 403.13 52.101 402.831 52.0779C402.536 52.0521 402.254 52.1214 401.986 52.2859C401.717 52.4504 401.524 52.671 401.409 52.9477C401.298 53.2217 401.273 53.537 401.333 53.8937C401.394 54.2504 401.548 54.6315 401.796 55.0371C402.045 55.4427 402.314 55.7537 402.604 55.9701C402.893 56.1866 403.186 56.3077 403.48 56.3336C403.779 56.3567 404.063 56.286 404.332 56.1215Z" fill="#0A1179"/>
<path d="M393.742 67.8942L394.738 67.8592L394.754 68.1938L393.741 68.2145L394.26 69.0618L393.985 69.2297L393.473 68.3788L392.993 69.2707L392.697 69.1076L393.187 68.2337L392.186 68.2723L392.172 67.9281L393.188 67.9133L392.664 67.0697L392.938 66.9018L393.457 67.7491L393.932 66.8512L394.227 67.0238L393.742 67.8942Z" fill="#0A1179"/>
<path d="M396.16 66.4148L397.156 66.3798L397.172 66.7144L396.16 66.7351L396.678 67.5824L396.403 67.7503L395.891 66.8994L395.412 67.7912L395.115 67.6282L395.605 66.7542L394.604 66.7929L394.59 66.4487L395.606 66.4339L395.082 65.5903L395.356 65.4223L395.875 66.2697L396.351 65.3718L396.645 65.5444L396.16 66.4148Z" fill="#0A1179"/>
<path d="M398.579 64.9354L399.574 64.9004L399.59 65.235L398.578 65.2557L399.096 66.103L398.822 66.2709L398.309 65.4199L397.83 66.3118L397.533 66.1488L398.024 65.2748L397.022 65.3134L397.009 64.9693L398.025 64.9545L397.5 64.1109L397.775 63.9429L398.293 64.7902L398.769 63.8924L399.063 64.065L398.579 64.9354Z" fill="#0A1179"/>
<path d="M400.997 63.4559L401.992 63.421L402.008 63.7556L400.996 63.7763L401.514 64.6236L401.24 64.7915L400.728 63.9405L400.248 64.8324L399.952 64.6694L400.442 63.7954L399.441 63.834L399.427 63.4898L400.443 63.4751L399.919 62.6314L400.193 62.4635L400.711 63.3108L401.187 62.413L401.481 62.5856L400.997 63.4559Z" fill="#0A1179"/>
<path d="M403.415 61.9765L404.411 61.9416L404.427 62.2761L403.414 62.2969L403.933 63.1442L403.658 63.3121L403.146 62.4611L402.666 63.353L402.37 63.19L402.86 62.316L401.859 62.3546L401.845 62.0104L402.861 61.9957L402.337 61.152L402.611 60.9841L403.13 61.8314L403.605 60.9336L403.9 61.1062L403.415 61.9765Z" fill="#0A1179"/>
<path d="M406.362 58.1875L406.485 58.3891L406.896 61.6627L406.588 61.8513L406.189 58.6412L404.766 59.5117L405.083 60.0294L404.802 60.2011L404.33 59.4304L406.362 58.1875Z" fill="#0A1179"/>
<path d="M409.054 58.3496C409.263 58.3011 409.449 58.3067 409.613 58.3662C409.778 58.4241 409.911 58.5348 410.011 58.6981C410.109 58.8589 410.152 59.0264 410.139 59.2008C410.125 59.3726 410.056 59.5414 409.933 59.7072C409.811 59.8688 409.641 60.0165 409.422 60.1503C409.09 60.3534 408.786 60.4418 408.509 60.4156C408.232 60.3894 408.019 60.2537 407.869 60.0087C407.767 59.8427 407.727 59.6756 407.747 59.5075C407.768 59.3351 407.848 59.1668 407.987 59.0024C407.81 59.0341 407.654 59.0212 407.517 58.9635C407.379 58.9033 407.266 58.802 407.179 58.6597C407.042 58.4357 407.021 58.2047 407.114 57.9665C407.21 57.7268 407.405 57.5166 407.7 57.3361C407.895 57.2168 408.084 57.1431 408.266 57.1151C408.449 57.0828 408.615 57.097 408.765 57.1577C408.914 57.2184 409.034 57.3225 409.124 57.4701C409.211 57.6123 409.249 57.7596 409.237 57.9117C409.223 58.0612 409.162 58.2072 409.054 58.3496ZM407.469 58.4935C407.562 58.6464 407.697 58.7305 407.873 58.7459C408.049 58.7614 408.244 58.7038 408.457 58.5732C408.671 58.4427 408.811 58.2955 408.877 58.1318C408.946 57.9664 408.935 57.8086 408.843 57.6584C408.748 57.503 408.609 57.4191 408.428 57.4069C408.25 57.3931 408.056 57.4498 407.848 57.5772C407.637 57.7062 407.497 57.8533 407.428 58.0187C407.362 58.1824 407.375 58.3407 407.469 58.4935ZM409.275 59.9092C409.52 59.7593 409.68 59.5923 409.756 59.4084C409.834 59.2228 409.821 59.0444 409.716 58.8731C409.611 58.7018 409.459 58.6102 409.26 58.5981C409.062 58.5818 408.84 58.6486 408.595 58.7985C408.353 58.9468 408.192 59.1138 408.114 59.2993C408.037 59.4806 408.05 59.6569 408.155 59.8282C408.261 60.0021 408.414 60.0972 408.612 60.1135C408.809 60.1272 409.03 60.0591 409.275 59.9092Z" fill="#0A1179"/>
<path d="M384.056 57.249C384.997 57.249 385.759 56.4866 385.759 55.5461C385.759 54.6057 384.997 53.8433 384.056 53.8433C383.116 53.8433 382.354 54.6057 382.354 55.5461C382.354 56.4866 383.116 57.249 384.056 57.249Z" fill="#B8E56B"/>
<path d="M385.78 56.1957C386.72 56.1957 387.483 55.4333 387.483 54.4929C387.483 53.5524 386.72 52.79 385.78 52.79C384.84 52.79 384.077 53.5524 384.077 54.4929C384.077 55.4333 384.84 56.1957 385.78 56.1957Z" fill="#66CFFA"/>
<path d="M408.624 49.6244C411.036 49.6244 412.991 47.6694 412.991 45.2578C412.991 42.8461 411.036 40.8911 408.624 40.8911C406.212 40.8911 404.257 42.8461 404.257 45.2578C404.257 47.6694 406.212 49.6244 408.624 49.6244Z" fill="#B8E56B"/>
<path d="M384.105 28.5827C384.514 28.3318 384.838 27.9656 385.039 27.5301C385.239 27.0947 385.305 26.6097 385.23 26.1365C385.155 25.6632 384.941 25.223 384.615 24.8713C384.289 24.5197 383.867 24.2724 383.401 24.1608C382.935 24.0493 382.446 24.0784 381.997 24.2445C381.547 24.4105 381.157 24.7062 380.875 25.094C380.594 25.4818 380.434 25.9443 380.415 26.4232C380.396 26.9021 380.52 27.3757 380.77 27.7843C380.937 28.0558 381.155 28.2919 381.413 28.479C381.671 28.6661 381.963 28.8006 382.272 28.8747C382.582 28.9489 382.903 28.9613 383.218 28.9112C383.532 28.8611 383.834 28.7494 384.105 28.5827Z" fill="#0637A3"/>
<path d="M389.412 34.1014L386.692 35.7689C386.362 35.9703 385.997 36.1048 385.615 36.1647C385.234 36.2247 384.844 36.209 384.469 36.1184C384.094 36.0279 383.74 35.8643 383.428 35.637C383.116 35.4098 382.852 35.1233 382.65 34.7939C382.449 34.4645 382.314 34.0986 382.254 33.7172C382.194 33.3359 382.21 32.9464 382.301 32.5711C382.391 32.1958 382.555 31.842 382.782 31.5299C383.009 31.2179 383.296 30.9536 383.625 30.7522L386.346 29.0847C387.011 28.6771 387.811 28.5505 388.569 28.7327C389.328 28.9149 389.983 29.391 390.391 30.0563C390.798 30.7215 390.925 31.5214 390.743 32.2801C390.561 33.0387 390.085 33.6938 389.419 34.1014H389.412Z" fill="#B8E56B"/>
<path d="M408.405 88.8047L425.73 78.1919" stroke="white" stroke-linecap="round" stroke-linejoin="round"/>
<path d="M368.427 23.5027L385.759 12.897" stroke="white" stroke-linecap="round" stroke-linejoin="round"/>
<path d="M422.152 67.4687L401.089 80.3607C400.613 80.652 400.463 81.2727 400.753 81.747C401.043 82.2212 401.665 82.3695 402.141 82.0782L423.203 69.1863C423.679 68.8949 423.83 68.2743 423.539 67.8C423.249 67.3257 422.628 67.1774 422.152 67.4687Z" fill="#0637A3"/>
<path d="M528.692 18.2172C533.031 20.5206 537.878 21.9196 541.919 24.6823C544.497 26.4654 546.689 28.7485 548.367 31.3958C550.044 34.0432 551.172 37.0007 551.684 40.0928C552.864 40.1846 553.804 39.1671 554.468 38.1921C560.573 29.1903 559.11 15.8431 551.197 8.38164C550.1 7.30228 548.832 6.41176 547.445 5.74612C545.912 5.12336 544.299 4.71902 542.654 4.54494C538.909 4.021 535.13 3.78478 531.349 3.83836C528.89 3.88076 522.34 3.30137 520.503 5.01834C516.03 9.18714 525.619 16.585 528.692 18.2172Z" fill="#0A1179"/>
<path d="M578.472 217.606H503.079C498.49 217.606 494.77 221.326 494.77 225.915C494.77 230.504 498.49 234.225 503.079 234.225H578.472V217.606Z" fill="white"/>
<path d="M427.065 313.559C427.065 304.594 430.627 295.996 436.966 289.657C443.305 283.318 451.903 279.757 460.868 279.757H484.637V313.559H427.065Z" fill="#B8E56B"/>
<path d="M427.285 308.415C427.285 299.45 430.846 290.852 437.185 284.513C443.524 278.174 452.122 274.612 461.087 274.612H484.856V308.415H427.285Z" fill="#0A1179"/>
<path d="M325.319 313.559C325.319 304.594 328.88 295.996 335.219 289.657C341.559 283.318 350.156 279.757 359.121 279.757H382.891V313.559H325.319Z" fill="#B8E56B"/>
<path d="M325.538 308.415C325.538 299.45 329.099 290.852 335.439 284.513C341.778 278.174 350.376 274.612 359.341 274.612H383.11V308.415H325.538Z" fill="#0A1179"/>
<path d="M484.477 266.72H454.401L412.576 221.188C394.096 201.079 408.293 168.499 435.535 168.499H557.187C562.832 168.499 568.246 170.752 572.238 174.763C576.23 178.774 578.472 184.215 578.472 189.887C578.472 192.842 577.863 195.764 576.683 198.47C575.503 201.177 573.777 203.608 571.616 205.611C569.454 207.613 566.903 209.144 564.123 210.107C561.343 211.07 558.395 211.444 555.464 211.204L454.641 200.987C453.761 200.916 452.879 201.089 452.09 201.487C451.302 201.885 450.637 202.493 450.169 203.245C449.701 203.996 449.448 204.863 449.437 205.749C449.425 206.636 449.656 207.509 450.105 208.272L484.477 266.72Z" fill="#0637A3"/>
<path d="M578.478 189.887L491.837 168.245V101.212C491.839 89.6792 496.422 78.6192 504.578 70.4648C512.733 62.3105 523.794 57.7295 535.327 57.7295C541.052 57.7285 546.72 58.8579 552.007 61.0529C557.294 63.2478 562.096 66.4651 566.136 70.5202C570.177 74.5752 573.377 79.3882 575.553 84.683C577.729 89.9778 578.838 95.6502 578.817 101.375L578.478 189.887Z" fill="#B8E56B"/>
<path d="M454.573 88.1189C447.728 75.1023 436.122 65.2306 422.176 60.5624C420.897 60.1385 419.35 59.7781 418.368 60.9864C418.081 61.3584 417.9 61.8011 417.844 62.2675C417.788 62.7339 417.859 63.2067 418.05 63.636C418.799 65.4873 420.622 66.2857 422.289 67.1124C427.892 69.8925 432.823 73.8587 436.739 78.7356C433.912 75.5913 430.577 72.228 426.691 71.1187C426.27 70.9948 425.824 70.9903 425.4 71.1057C424.977 71.221 424.594 71.4517 424.295 71.7719C423.995 72.0922 423.79 72.4894 423.703 72.9193C423.616 73.3491 423.65 73.7948 423.801 74.2064C425.087 77.5061 428.21 80.2194 431.114 82.5087C429.383 80.3183 427.108 78.6225 424.861 76.955C423.837 76.1919 422.741 75.4005 421.385 75.5418C421.072 75.5726 420.771 75.6795 420.509 75.8531C420.246 76.0267 420.03 76.2619 419.88 76.5381C419.364 77.5768 420.064 78.5165 420.721 79.3008L427.539 87.4476C425.679 84.5844 423.15 82.2174 420.17 80.5515C419.272 80.0498 418.17 79.6047 417.287 80.4031C417.041 80.6415 416.853 80.9328 416.737 81.2548C416.62 81.5767 416.579 81.921 416.615 82.2614C416.806 84.6849 418.205 86.7269 419.64 88.6206C425.245 96.0569 431.953 102.595 439.53 108.009L454.573 88.1189Z" fill="white" stroke="#0637A3" stroke-linecap="round" stroke-linejoin="round"/>
<path d="M532.048 171.714C529.161 171.716 526.343 170.833 523.972 169.184L439.113 110.32C432.704 105.861 449.747 83.1165 456.155 87.5679L522.573 133.799L533.221 82.9963C533.594 81.1725 534.324 79.4403 535.368 77.8993C536.412 76.3582 537.751 75.0386 539.306 74.0163C540.862 72.9941 542.604 72.2892 544.433 71.9424C546.262 71.5955 548.142 71.6133 549.964 71.995C551.786 72.3766 553.514 73.1144 555.05 74.1661C556.586 75.2178 557.899 76.5626 558.914 78.1232C559.929 79.6839 560.625 81.4296 560.963 83.2602C561.301 85.0908 561.274 86.9701 560.884 88.7903L545.876 160.486C545.21 163.661 543.472 166.509 540.954 168.553C538.436 170.597 535.292 171.713 532.048 171.714Z" fill="#B8E56B"/>
<path d="M531.54 171.714C528.655 171.714 525.839 170.831 523.471 169.184L438.632 110.32C432.224 105.861 449.231 83.1165 455.675 87.5679L522.093 133.799L532.741 82.9963C533.114 81.1725 533.843 79.4403 534.888 77.8993C535.932 76.3582 537.27 75.0386 538.826 74.0163C540.382 72.9941 542.124 72.2892 543.953 71.9424C545.782 71.5955 547.661 71.6133 549.483 71.995C551.305 72.3766 553.034 73.1144 554.57 74.1661C556.106 75.2178 557.419 76.5626 558.434 78.1232C559.448 79.6839 560.145 81.4296 560.483 83.2602C560.821 85.0908 560.794 86.9701 560.404 88.7903L545.375 160.486C544.708 163.662 542.969 166.511 540.45 168.555C537.93 170.6 534.784 171.715 531.54 171.714V171.714Z" stroke="#0637A3" stroke-linecap="round" stroke-linejoin="round"/>
<path d="M384.402 64.7808C385.047 64.7694 385.672 64.557 386.19 64.1732C386.525 63.7886 386.715 63.2989 386.726 62.7892C386.738 62.2794 386.571 61.7816 386.254 61.3822C385.599 60.6002 384.762 59.9912 383.816 59.6087C382.544 58.9728 381.27 58.3463 379.993 57.7292C376.058 55.8356 371.84 53.9985 367.494 54.4224C366.279 54.4779 365.111 54.9101 364.152 55.6589C355.885 63.0002 381.188 65.127 384.402 64.7808Z" fill="white" stroke="#0637A3" stroke-linecap="round" stroke-linejoin="round"/>
<path d="M380.121 55.3342C380.765 55.3228 381.39 55.1104 381.908 54.7265C382.252 54.3397 382.448 53.8437 382.461 53.3263C382.474 52.809 382.303 52.3038 381.979 51.9002C381.318 51.1213 380.48 50.513 379.534 50.1267C378.263 49.4908 376.988 48.8643 375.712 48.2472C371.776 46.3536 367.558 44.5165 363.212 44.9405C361.996 44.9952 360.827 45.4302 359.87 46.184C351.603 53.5536 376.913 55.7228 380.121 55.3342Z" fill="white" stroke="#0637A3" stroke-linecap="round" stroke-linejoin="round"/>
<path d="M373.571 45.6397C374.215 45.6283 374.84 45.4159 375.358 45.032C375.694 44.6483 375.885 44.1591 375.898 43.6493C375.911 43.1395 375.745 42.6413 375.429 42.2411C374.771 41.4588 373.932 40.8498 372.984 40.4676C371.719 39.8316 370.44 39.2028 369.161 38.5881C365.226 36.6944 361.008 34.8574 356.669 35.2813C355.451 35.3354 354.281 35.7676 353.32 36.5178C345.053 43.8591 370.363 45.9859 373.571 45.6397Z" fill="white" stroke="#0637A3" stroke-linecap="round" stroke-linejoin="round"/>
<path d="M281.143 65.0779C280.741 63.5305 278.875 62.6685 277.314 63.0359C276.544 63.2642 275.837 63.6656 275.247 64.2094C274.657 64.7532 274.199 65.4249 273.908 66.1731C273.342 67.6751 273.008 69.2549 272.919 70.8577C272.587 74.0514 272.594 77.9729 275.357 79.6051C276.325 80.1845 277.476 80.3541 278.444 80.9759C279.971 81.9721 280.564 83.887 280.953 85.6746C282.13 91.1839 282.248 96.8672 281.299 102.42C281.063 104.264 280.465 106.044 279.54 107.656C279.067 108.458 278.415 109.138 277.633 109.644C276.852 110.149 275.964 110.465 275.039 110.567C273.187 110.666 271.244 109.366 270.997 107.529" stroke="#0637A3" stroke-width="5" stroke-linecap="round" stroke-linejoin="round"/>
<path d="M277.074 58.0615L277.307 62.8521" stroke="#0637A3" stroke-width="5" stroke-linecap="round" stroke-linejoin="round"/>
<path d="M275.138 115.866C275.279 114.22 275.261 112.563 275.081 110.92" stroke="#0637A3" stroke-width="5" stroke-linecap="round" stroke-linejoin="round"/>
<path d="M82.2861 76.7065C86.7842 74.1095 87.7054 67.2839 84.3435 61.461C80.9817 55.6381 74.61 53.023 70.1118 55.62C65.6137 58.217 64.6926 65.0426 68.0544 70.8655C71.4163 76.6884 77.788 79.3035 82.2861 76.7065Z" fill="#0A1179"/>
<path d="M88.9619 66.8371L127.075 53.2355C127.075 53.2355 120.941 31.5507 99.2001 39.8105C80.1862 47.0247 88.9619 66.8371 88.9619 66.8371Z" fill="#0A1179"/>
<path d="M63.5254 66.3281L69.9835 77.0751" stroke="white" stroke-width="5" stroke-linecap="round" stroke-linejoin="round"/>
<path d="M84.228 56.8672L88.2343 68.7447" stroke="white" stroke-width="5" stroke-linecap="round" stroke-linejoin="round"/>
<path d="M350.126 126.691C356.663 126.691 361.961 121.393 361.961 114.856C361.961 108.32 356.663 103.021 350.126 103.021C343.59 103.021 338.291 108.32 338.291 114.856C338.291 121.393 343.59 126.691 350.126 126.691Z" fill="white" stroke="#0637A3" stroke-miterlimit="10"/>
<path d="M354.34 117.525C354.34 118.355 354.022 119.062 353.386 119.644C352.749 120.216 351.817 120.534 350.587 120.598V122.459H349.778V120.615C348.991 120.571 348.247 120.42 347.546 120.162C346.856 119.892 346.312 119.552 345.913 119.143L346.382 118.221C346.759 118.587 347.25 118.895 347.854 119.143C348.468 119.391 349.11 119.536 349.778 119.579V115.325C349.034 115.142 348.414 114.948 347.918 114.743C347.422 114.527 347.007 114.22 346.673 113.821C346.349 113.411 346.188 112.872 346.188 112.203C346.188 111.373 346.49 110.678 347.093 110.117C347.697 109.545 348.592 109.211 349.778 109.114V107.254H350.587V109.098C351.202 109.119 351.795 109.222 352.366 109.405C352.949 109.578 353.45 109.81 353.871 110.101L353.466 111.055C353.024 110.775 352.555 110.554 352.059 110.392C351.563 110.23 351.072 110.138 350.587 110.117V114.403C351.385 114.597 352.038 114.797 352.544 115.002C353.051 115.196 353.477 115.498 353.822 115.908C354.167 116.317 354.34 116.857 354.34 117.525ZM347.368 112.171C347.368 112.732 347.573 113.158 347.983 113.449C348.404 113.74 349.002 113.988 349.778 114.193V110.149C348.98 110.214 348.377 110.435 347.967 110.812C347.568 111.179 347.368 111.632 347.368 112.171ZM350.587 119.579C351.439 119.515 352.081 119.304 352.512 118.949C352.943 118.593 353.159 118.14 353.159 117.59C353.159 117.008 352.938 116.571 352.496 116.28C352.054 115.988 351.418 115.74 350.587 115.536V119.579Z" fill="#0637A3"/>
<path d="M143.368 181.295C135.977 166.676 136.302 149.068 141.072 133.397C143.594 125.094 147.332 116.983 147.707 108.32C148.081 99.6576 143.877 89.9493 135.561 87.4409C131.971 86.3669 119.514 86.1055 114.363 86.2821C108.951 86.4729 103.1 95.0013 99.1224 98.6825C94.7485 102.652 90.6856 106.951 86.9693 111.542C69.7077 133.305 63.08 163.122 69.4957 190.106C69.4957 190.106 86.8421 196.084 108.605 193.18C130.007 190.325 143.368 181.295 143.368 181.295Z" fill="#66CFFA"/>
<path d="M114.314 86.2817C104.916 86.7057 95.4694 87.1296 86.2769 89.108C83.8949 89.569 81.5754 90.309 79.3666 91.3126C71.8274 94.9656 67.4184 103.487 67.1428 111.853C66.8672 120.219 70.2164 128.372 74.9151 135.325C82.3342 146.376 92.954 154.805 103.397 163.058C112.109 169.933 121.217 177.006 132.049 179.408C137.051 180.525 142.231 180.581 147.353 180.405C163.428 179.825 180.308 176.462 192.27 165.715C193.356 164.864 194.212 163.753 194.757 162.486C195.464 160.409 194.553 158.034 192.998 156.473C191.444 154.911 189.366 154.007 187.345 153.209C181.865 151.084 176.203 149.46 170.43 148.354C157.86 145.945 144.16 145.768 133.745 138.335C126.834 133.389 122.249 125.758 119.528 117.724C116.808 109.691 116.073 101.155 114.78 92.7681C114.667 92.3795 114.314 86.2817 114.314 86.2817Z" fill="#66CFFA"/>
<path d="M196.856 149.203C202.721 148.412 208.705 149.139 214.457 150.545C221.756 152.333 229.203 155.555 233.4 161.787C233.888 162.494 234.333 163.455 233.902 164.211C233.28 165.285 231.662 164.917 230.539 164.359L215.467 157.208C218.481 158.557 221.185 160.513 223.409 162.953C224.116 163.73 224.822 164.776 224.462 165.779C223.967 167.143 222.038 167.143 220.632 166.775C217.711 166 214.93 164.767 212.394 163.122C215.04 164.315 217.49 165.904 219.657 167.835C220.562 168.648 221.494 169.764 221.184 170.944C220.724 172.697 218.223 172.675 216.499 172.103C214.267 171.354 212.132 170.341 210.14 169.086C213.188 170.27 215.806 172.349 217.651 175.049C218.004 175.47 218.204 175.998 218.216 176.547C218.159 177.424 217.29 178.003 216.471 178.314C213.235 179.543 209.56 178.759 206.36 177.424C203.159 176.088 200.191 174.202 196.891 173.184C193.041 171.955 188.773 171.856 185.318 169.771C181.545 167.496 177.687 160.381 180.838 156.269C183.989 152.156 191.988 149.853 196.856 149.203Z" fill="white" stroke="#0637A3" stroke-miterlimit="10"/>
<path d="M87.7042 148.87C97.787 159.85 119.599 177.903 144.838 180.525C136.967 184.997 119.33 182.213 104.316 174.582C84.1713 164.344 70.0327 146.016 70.0327 146.016C70.0327 146.016 71.0572 142.066 71.8133 139.847C72.3785 138.194 73.933 134.039 73.933 134.039C73.933 134.039 85.111 146.058 87.7042 148.87Z" fill="#0637A3"/>
<path d="M95.7026 110.835C100.31 115.478 104.613 120.459 109.608 124.684C137.059 147.959 166.212 146.447 176.097 149.845" stroke="#0637A3" stroke-linecap="round" stroke-linejoin="round"/>
</svg>
