<svg width="587" height="314" viewBox="0 0 587 314" fill="none" xmlns="http://www.w3.org/2000/svg">
<g clip-path="url(#clip0)">
<path d="M482.328 51.2793H378.47C373.729 51.2793 369.886 55.1224 369.886 59.8632V120.63C369.886 125.371 373.729 129.214 378.47 129.214H482.328C487.069 129.214 490.912 125.371 490.912 120.63V59.8632C490.912 55.1224 487.069 51.2793 482.328 51.2793Z" fill="white" stroke="#0637A3" stroke-miterlimit="10"/>
<path d="M329.783 145.752L263.445 131.893C258.805 130.924 254.257 133.9 253.288 138.54L248.847 159.798C247.877 164.439 250.853 168.987 255.494 169.956L321.831 183.815C326.472 184.784 331.02 181.808 331.989 177.168L336.43 155.91C337.4 151.269 334.424 146.721 329.783 145.752Z" fill="#F4F5F7"/>
<path d="M269.977 165.53C276.508 165.53 281.801 160.236 281.801 153.706C281.801 147.176 276.508 141.882 269.977 141.882C263.447 141.882 258.153 147.176 258.153 153.706C258.153 160.236 263.447 165.53 269.977 165.53Z" fill="white"/>
<path d="M270.134 152.433C270.611 152.531 271.106 152.487 271.557 152.304C272.008 152.122 272.395 151.809 272.668 151.407C272.942 151.005 273.09 150.53 273.094 150.044C273.098 149.557 272.958 149.08 272.691 148.673C272.424 148.267 272.043 147.948 271.595 147.758C271.147 147.568 270.653 147.515 270.175 147.606C269.697 147.696 269.256 147.927 268.909 148.268C268.562 148.609 268.324 149.045 268.225 149.521C268.159 149.838 268.156 150.164 268.216 150.482C268.276 150.8 268.399 151.103 268.576 151.373C268.753 151.643 268.982 151.876 269.25 152.058C269.517 152.24 269.818 152.367 270.134 152.433Z" fill="#0637A3"/>
<path d="M270.213 160.23L267.066 159.514C266.291 159.352 265.612 158.889 265.179 158.226C264.745 157.563 264.593 156.756 264.755 155.981C264.917 155.206 265.381 154.527 266.044 154.094C266.706 153.66 267.514 153.508 268.289 153.67L271.458 154.328C272.24 154.493 272.925 154.963 273.362 155.633C273.799 156.303 273.951 157.119 273.786 157.901C273.621 158.684 273.152 159.369 272.482 159.806C271.812 160.242 270.996 160.395 270.213 160.23Z" fill="#66CFFA"/>
<path d="M327.277 155.217L292.553 147.963C291.324 147.706 290.118 148.495 289.861 149.725C289.605 150.954 290.393 152.16 291.623 152.417L326.346 159.671C327.576 159.927 328.781 159.139 329.038 157.909C329.295 156.679 328.506 155.474 327.277 155.217Z" fill="#0A1179"/>
<path d="M325.712 162.673L290.989 155.419C289.759 155.162 288.554 155.951 288.297 157.181C288.04 158.411 288.829 159.616 290.059 159.873L324.782 167.127C326.011 167.384 327.217 166.595 327.474 165.365C327.73 164.135 326.942 162.93 325.712 162.673Z" fill="#0A1179"/>
<path d="M304.015 165.926L289.437 162.88C288.207 162.623 287.002 163.412 286.745 164.642C286.488 165.871 287.277 167.077 288.506 167.334L303.085 170.379C304.314 170.636 305.519 169.847 305.776 168.618C306.033 167.388 305.245 166.183 304.015 165.926Z" fill="#0A1179"/>
<path d="M354.095 112.185L310.978 90.6123C306.738 88.4911 301.582 90.2084 299.46 94.4481L293.747 105.867C291.626 110.107 293.343 115.263 297.583 117.385L340.7 138.957C344.94 141.078 350.096 139.361 352.218 135.121L357.931 123.702C360.052 119.463 358.335 114.306 354.095 112.185Z" fill="#F4F5F7"/>
<path d="M309.814 116.338C314.843 116.338 318.92 112.261 318.92 107.232C318.92 102.202 314.843 98.1255 309.814 98.1255C304.784 98.1255 300.708 102.202 300.708 107.232C300.708 112.261 304.784 116.338 309.814 116.338Z" fill="white"/>
<path d="M310.179 106.316C310.514 106.484 310.891 106.549 311.263 106.502C311.635 106.456 311.985 106.3 312.268 106.055C312.551 105.81 312.756 105.486 312.855 105.125C312.955 104.763 312.945 104.381 312.827 104.025C312.709 103.669 312.489 103.356 312.193 103.126C311.897 102.896 311.54 102.758 311.166 102.731C310.792 102.703 310.419 102.787 310.093 102.972C309.767 103.157 309.503 103.435 309.335 103.769C309.11 104.219 309.073 104.74 309.231 105.217C309.39 105.694 309.73 106.089 310.179 106.316Z" fill="#0637A3"/>
<path d="M308.712 112.117L306.487 111.002C306.217 110.867 305.976 110.68 305.778 110.452C305.581 110.224 305.429 109.96 305.334 109.673C305.238 109.387 305.2 109.085 305.221 108.784C305.242 108.483 305.322 108.189 305.457 107.918C305.592 107.648 305.779 107.408 306.007 107.21C306.235 107.012 306.499 106.861 306.785 106.765C307.072 106.669 307.374 106.631 307.675 106.652C307.976 106.673 308.27 106.754 308.54 106.888L310.772 108.011C311.059 108.137 311.317 108.319 311.531 108.547C311.745 108.775 311.91 109.044 312.017 109.338C312.123 109.632 312.169 109.945 312.151 110.257C312.133 110.569 312.051 110.875 311.911 111.154C311.771 111.434 311.575 111.682 311.336 111.884C311.097 112.085 310.819 112.236 310.52 112.327C310.221 112.418 309.906 112.447 309.595 112.412C309.284 112.377 308.984 112.279 308.712 112.125V112.117Z" fill="#B8E56B"/>
<path d="M352.146 119.627L327.728 107.41C326.862 106.977 325.81 107.326 325.378 108.19C324.946 109.053 325.297 110.105 326.163 110.538L350.581 122.755C351.447 123.188 352.499 122.839 352.931 121.975C353.363 121.111 353.012 120.06 352.146 119.627Z" fill="#0A1179"/>
<path d="M349.527 124.865L325.108 112.648C324.243 112.215 323.191 112.565 322.758 113.428C322.326 114.292 322.678 115.344 323.543 115.777L347.961 127.994C348.827 128.427 349.879 128.078 350.311 127.214C350.743 126.35 350.392 125.299 349.527 124.865Z" fill="#0A1179"/>
<path d="M332.731 123.019L322.483 117.892C321.617 117.459 320.565 117.808 320.133 118.672C319.701 119.535 320.052 120.587 320.918 121.02L331.166 126.147C332.032 126.58 333.084 126.231 333.516 125.367C333.948 124.504 333.597 123.452 332.731 123.019Z" fill="#0A1179"/>
<path d="M294.928 55.7927C310.137 55.7927 322.468 43.4627 322.468 28.2528C322.468 13.0429 310.137 0.712891 294.928 0.712891C279.718 0.712891 267.388 13.0429 267.388 28.2528C267.388 43.4627 279.718 55.7927 294.928 55.7927Z" fill="#0A1179"/>
<path d="M289.319 19.8193V37.9528L305.886 28.8896L289.319 19.8193Z" fill="white"/>
<path d="M261.723 59.4196C265.897 45.1203 275.433 32.9858 288.34 25.549C289.534 24.8766 290.965 24.2114 292.21 25.2128C292.568 25.5239 292.836 25.9262 292.985 26.377C293.133 26.8278 293.157 27.3104 293.054 27.7737C292.682 29.7623 291.037 30.914 289.542 32.0656C284.541 35.9491 280.443 40.8718 277.531 46.4937C279.677 42.8098 282.345 38.804 285.979 36.9298C286.371 36.7214 286.813 36.6261 287.255 36.6546C287.698 36.6831 288.124 36.8342 288.486 37.0911C288.847 37.3481 289.13 37.7006 289.303 38.1092C289.475 38.5179 289.531 38.9665 289.463 39.4048C288.848 42.9385 286.294 46.2576 283.869 49.1118C285.149 46.5867 287.067 44.455 288.962 42.352C289.828 41.3934 290.758 40.3848 292.138 40.2704C292.457 40.2404 292.778 40.2901 293.073 40.4149C293.367 40.5398 293.626 40.7359 293.826 40.9857C294.542 41.9156 294.041 42.9886 293.547 43.8971L288.411 53.3465C289.685 50.1339 291.72 47.2789 294.341 45.0273C295.135 44.3549 296.137 43.6896 297.203 44.3119C297.495 44.4979 297.741 44.7489 297.921 45.0454C298.101 45.3419 298.21 45.676 298.24 46.0216C298.533 48.4608 297.525 50.7713 296.516 52.9459C292.44 61.4464 287.092 69.2761 280.657 76.1653" fill="white"/>
<path d="M261.723 59.4196C265.897 45.1203 275.433 32.9858 288.34 25.549C289.534 24.8766 290.965 24.2114 292.21 25.2128C292.568 25.5239 292.836 25.9262 292.985 26.377C293.133 26.8278 293.157 27.3104 293.054 27.7737C292.682 29.7623 291.037 30.914 289.542 32.0656C284.541 35.9491 280.443 40.8718 277.531 46.4937C279.677 42.8098 282.345 38.804 285.979 36.9298C286.371 36.7214 286.813 36.6261 287.255 36.6546C287.698 36.6831 288.124 36.8342 288.486 37.0911C288.847 37.3481 289.13 37.7006 289.303 38.1092C289.475 38.5179 289.531 38.9665 289.463 39.4048C288.848 42.9385 286.294 46.2576 283.869 49.1118C285.149 46.5867 287.067 44.455 288.962 42.352C289.828 41.3934 290.758 40.3848 292.138 40.2704C292.457 40.2404 292.778 40.2901 293.073 40.4149C293.367 40.5398 293.626 40.7359 293.826 40.9857C294.542 41.9156 294.041 42.9886 293.547 43.8971L288.411 53.3465C289.685 50.1339 291.72 47.2789 294.341 45.0273C295.135 44.3549 296.137 43.6896 297.203 44.3119C297.495 44.4979 297.741 44.7489 297.921 45.0454C298.101 45.3419 298.21 45.676 298.24 46.0216C298.533 48.4608 297.525 50.7713 296.516 52.9459C292.44 61.4464 287.092 69.2761 280.657 76.1653" stroke="#0637A3" stroke-linecap="round" stroke-linejoin="round"/>
<path d="M1.13034 121.603C1.1261 140.607 6.75761 159.185 17.3127 174.989C27.8677 190.792 42.8722 203.111 60.4286 210.386C77.9849 217.662 97.3045 219.568 115.944 215.863C134.584 212.158 151.706 203.009 165.145 189.572C178.585 176.136 187.738 159.015 191.447 140.377C195.156 121.738 193.254 102.418 185.983 84.8601C178.711 67.3021 166.396 52.2948 150.595 41.7362C134.794 31.1777 116.217 25.542 97.2125 25.542H0.96582V119.249C0.96582 119.249 1.13034 120.751 1.13034 121.603Z" fill="#66CFFA"/>
<path d="M57.1116 131.402C53.9927 133.162 50.8525 135.05 48.5277 137.84C45.6163 141.345 44.3502 145.938 43.6993 150.458C40.8022 170.487 48.5849 190.974 60.8026 207.141C62.6768 209.616 64.8871 212.148 67.9558 212.863C71.0246 213.579 74.0575 212.148 76.5397 210.302C84.1579 204.751 88.0636 195.567 91.6187 186.84L116.254 126.395C118.4 121.18 125.697 107.003 114.945 106.759C106.598 106.573 96.3971 112.918 88.9148 116.094C78.0367 120.6 67.4191 125.711 57.1116 131.402Z" fill="#0A1179"/>
<path d="M585.985 203.55C585.985 202.541 586.064 201.525 586.064 200.51C586.065 178.147 579.435 156.287 567.013 137.693C554.59 119.098 536.932 104.606 516.273 96.0471C495.613 87.4884 472.879 85.2484 450.947 89.6101C429.014 93.9719 408.867 104.74 393.054 120.552C377.241 136.364 366.472 156.51 362.109 178.442C357.746 200.375 359.985 223.108 368.542 243.768C377.099 264.429 391.591 282.087 410.184 294.511C428.778 306.935 450.638 313.566 473 313.566H586.257V203.285L585.985 203.55Z" fill="#0637A3"/>
<path d="M113.529 90.8578C124.168 90.8578 132.792 82.2332 132.792 71.5942C132.792 60.9552 124.168 52.3306 113.529 52.3306C102.89 52.3306 94.2651 60.9552 94.2651 71.5942C94.2651 82.2332 102.89 90.8578 113.529 90.8578Z" fill="white" stroke="#0637A3" stroke-miterlimit="10"/>
<path d="M498.53 78.4472C509.169 78.4472 517.794 69.8226 517.794 59.1836C517.794 48.5445 509.169 39.9199 498.53 39.9199C487.891 39.9199 479.267 48.5445 479.267 59.1836C479.267 69.8226 487.891 78.4472 498.53 78.4472Z" fill="white" stroke="#0637A3" stroke-miterlimit="10"/>
<path d="M47.3618 292.987C57.7401 292.987 66.1534 284.574 66.1534 274.195C66.1534 263.817 57.7401 255.404 47.3618 255.404C36.9836 255.404 28.5703 263.817 28.5703 274.195C28.5703 284.574 36.9836 292.987 47.3618 292.987Z" fill="#66CFFA"/>
<path d="M102.849 292.987C113.227 292.987 121.641 284.574 121.641 274.195C121.641 263.817 113.227 255.404 102.849 255.404C92.4709 255.404 84.0576 263.817 84.0576 274.195C84.0576 284.574 92.4709 292.987 102.849 292.987Z" fill="#66CFFA"/>
<path d="M158.344 292.987C168.722 292.987 177.135 284.574 177.135 274.195C177.135 263.817 168.722 255.404 158.344 255.404C147.965 255.404 139.552 263.817 139.552 274.195C139.552 284.574 147.965 292.987 158.344 292.987Z" fill="#66CFFA"/>
<path d="M129.667 60.0848C126.888 56.2818 122.859 53.5795 118.286 52.4528C113.713 51.326 108.889 51.8468 104.662 53.9236C100.435 56.0004 97.0746 59.5005 95.172 63.8088C93.2693 68.1172 92.9458 72.9582 94.2582 77.4814C102.985 73.1179 121.369 64.1406 129.667 60.0848Z" fill="#0A1179"/>
<path d="M84.2366 66.1864L107.842 65.4711C108.028 65.4655 108.209 65.4151 108.371 65.3242C108.533 65.2332 108.671 65.1045 108.772 64.9489L121.212 45.7783C121.357 45.5648 121.426 45.3086 121.408 45.051C121.39 44.7934 121.286 44.5493 121.113 44.3578C120.94 44.1664 120.707 44.0387 120.453 43.9954C120.198 43.952 119.936 43.9955 119.709 44.1187L83.6428 64.0262C83.4159 64.1509 83.2377 64.3484 83.1368 64.5869C83.036 64.8254 83.0185 65.091 83.0871 65.3406C83.1557 65.5903 83.3065 65.8096 83.515 65.963C83.7236 66.1165 83.9778 66.1952 84.2366 66.1864Z" fill="#0A1179"/>
<path d="M284.949 73.4328C284.949 72.1381 283.819 71.1724 282.76 70.4213L259.784 54.0762C246.322 71.0293 227.151 84.5132 205.613 86.8451C198.052 87.6606 190.419 87.1026 182.822 86.9095C170.304 86.5876 157.672 87.2528 145.533 90.3001C119.559 96.8095 96.7977 114.364 82.7773 137.168C69.0575 159.515 63.6139 186.568 66.3678 212.642C84.4478 218.743 103.934 219.33 122.348 214.328C140.763 209.326 157.274 198.961 169.782 184.551C169.274 170.452 170.104 156.253 176.721 144.007C178.867 139.994 181.728 136.217 185.569 133.77C188.76 131.732 192.472 130.716 196.113 129.693C208.25 126.283 220.289 122.554 232.23 118.505C240.22 115.801 248.253 112.911 255.313 108.298C267.61 100.257 276.057 87.6463 284.141 75.3928C284.58 74.8232 284.859 74.1465 284.949 73.4328Z" fill="#0637A3"/>
<path d="M141.691 200.567H87.584C86.1065 200.567 84.9087 201.765 84.9087 203.242V203.249C84.9087 204.727 86.1065 205.925 87.584 205.925H141.691C143.169 205.925 144.366 204.727 144.366 203.249V203.242C144.366 201.765 143.169 200.567 141.691 200.567Z" fill="white" stroke="#0637A3" stroke-miterlimit="10"/>
<path d="M144.161 204.237L165.831 154.659C166.423 153.305 165.805 151.728 164.451 151.136L164.444 151.133C163.091 150.541 161.513 151.159 160.922 152.513L139.251 202.091C138.659 203.445 139.277 205.022 140.631 205.614L140.638 205.617C141.992 206.208 143.569 205.591 144.161 204.237Z" fill="white" stroke="#0637A3" stroke-miterlimit="10"/>
<path d="M37.7476 270.976L46.7606 279.989L63.7567 257.378" stroke="#0A1179" stroke-width="6" stroke-linecap="round" stroke-linejoin="round"/>
<path d="M93.6714 270.976L102.677 279.989L119.681 257.378" stroke="#0A1179" stroke-width="6" stroke-linecap="round" stroke-linejoin="round"/>
<path d="M149.767 270.976L158.773 279.989L175.769 257.378" stroke="#0A1179" stroke-width="6" stroke-linecap="round" stroke-linejoin="round"/>
<path d="M59.8013 63.9114C59.8013 63.7469 59.8013 63.5752 59.8013 63.4036C59.8013 59.6403 58.6853 55.9615 56.5945 52.8324C54.5038 49.7033 51.5321 47.2645 48.0552 45.8244C44.5784 44.3842 40.7526 44.0074 37.0616 44.7416C33.3706 45.4758 29.9802 47.288 27.3192 49.949C24.6581 52.6101 22.8459 56.0005 22.1117 59.6915C21.3775 63.3825 21.7543 67.2083 23.1945 70.6851C24.6346 74.1619 27.0735 77.1336 30.2025 79.2244C33.3316 81.3152 37.0104 82.4311 40.7737 82.4311H59.8442V63.8685L59.8013 63.9114Z" fill="white"/>
<path d="M47.7336 63.3967C47.7303 62.4997 47.5068 61.6171 47.0827 60.8266C46.6587 60.0361 46.047 59.3618 45.3015 58.863C44.5559 58.3641 43.6993 58.0559 42.8068 57.9654C41.9143 57.875 41.0132 58.005 40.1828 58.3442C39.3523 58.6833 38.6178 59.2212 38.0437 59.9105C37.4697 60.5998 37.0736 61.4196 36.8904 62.2977C36.7072 63.1759 36.7424 64.0856 36.9929 64.947C37.2434 65.8084 37.7015 66.5951 38.3271 67.238C39.2558 68.1956 39.7698 69.4806 39.7578 70.8146C39.7578 71.3838 39.9839 71.9296 40.3863 72.332C40.7887 72.7345 41.3346 72.9606 41.9037 72.9606H42.197C42.5172 72.9616 42.8343 72.8985 43.1297 72.7749C43.425 72.6514 43.6926 72.4699 43.9167 72.2412C44.1407 72.0124 44.3167 71.7412 44.4341 71.4433C44.5516 71.1455 44.6081 70.8271 44.6005 70.507C44.6118 69.9115 44.7446 69.3246 44.9906 68.7822C45.2365 68.2398 45.5906 67.7533 46.0311 67.3524C46.569 66.8435 46.9975 66.2303 47.2902 65.5501C47.5829 64.8699 47.7338 64.1372 47.7336 63.3967Z" fill="white" stroke="#0637A3" stroke-miterlimit="10"/>
<path d="M44.5074 72.188H39.9151C39.3067 72.188 38.8135 72.6812 38.8135 73.2896V73.2967C38.8135 73.9051 39.3067 74.3983 39.9151 74.3983H44.5074C45.1158 74.3983 45.609 73.9051 45.609 73.2967V73.2896C45.609 72.6812 45.1158 72.188 44.5074 72.188Z" fill="#0A1179"/>
<path d="M44.5074 69.5986H39.9151C39.3067 69.5986 38.8135 70.0918 38.8135 70.7002V70.7074C38.8135 71.3158 39.3067 71.809 39.9151 71.809H44.5074C45.1158 71.809 45.609 71.3158 45.609 70.7074V70.7002C45.609 70.0918 45.1158 69.5986 44.5074 69.5986Z" fill="#0A1179"/>
<path d="M41.4313 63.9829C41.3386 63.6074 41.1707 63.2545 40.9377 62.9457C40.8183 62.7891 40.6613 62.665 40.4813 62.585C40.3013 62.505 40.104 62.4716 39.9077 62.4879C39.8101 62.4965 39.7154 62.5251 39.6293 62.5718C39.5433 62.6186 39.4677 62.6825 39.4074 62.7596C39.347 62.8367 39.3031 62.9254 39.2785 63.0202C39.2538 63.1149 39.2488 63.2138 39.2639 63.3105C39.3119 63.481 39.4031 63.6362 39.5286 63.7612C40.2101 64.5069 41.1265 64.9966 42.1252 65.1489C42.642 65.2554 43.1769 65.2358 43.6846 65.0917C43.9375 65.0193 44.171 64.8911 44.3678 64.7165C44.5646 64.542 44.7198 64.3255 44.8219 64.0831C44.9242 63.8354 44.9417 63.5608 44.8719 63.3021C44.802 63.0434 44.6487 62.815 44.4357 62.6524C44.2997 62.556 44.1374 62.5036 43.9707 62.5022C43.8245 62.513 43.6832 62.5589 43.5586 62.6361C43.434 62.7134 43.33 62.8196 43.2554 62.9457C43.1175 63.1989 43.0186 63.4714 42.9621 63.754C42.8548 64.1832 42.4971 66.8943 42.1538 66.8872C41.8104 66.88 41.5672 64.4407 41.4313 63.9829Z" fill="white" stroke="#0637A3" stroke-miterlimit="10"/>
<path d="M33.1553 57.3662C33.9066 57.673 34.6255 58.054 35.3012 58.5036" stroke="#0637A3" stroke-linecap="round" stroke-linejoin="round"/>
<path d="M37.0322 53.2104C37.397 53.9758 37.7476 54.7341 38.1768 55.4852" stroke="#0637A3" stroke-linecap="round" stroke-linejoin="round"/>
<path d="M42.4976 55.6569C42.5977 54.8128 42.6621 53.9616 42.6907 53.1104" stroke="#0637A3" stroke-linecap="round" stroke-linejoin="round"/>
<path d="M46.1455 56.5798C46.6085 55.9736 47.1309 55.4153 47.7049 54.9131" stroke="#0637A3" stroke-linecap="round" stroke-linejoin="round"/>
<path d="M48.8926 59.8702C49.6433 59.5534 50.3619 59.1654 51.0386 58.7114" stroke="#0637A3" stroke-linecap="round" stroke-linejoin="round"/>
<path d="M327.132 199.587H217.329C212.589 199.587 208.746 203.43 208.746 208.171V249.137C208.746 253.878 212.589 257.721 217.329 257.721H327.132C331.872 257.721 335.715 253.878 335.715 249.137V208.171C335.715 203.43 331.872 199.587 327.132 199.587Z" fill="#F4F5F7"/>
<path d="M237.816 247.177C247.578 247.177 255.492 239.264 255.492 229.502C255.492 219.74 247.578 211.826 237.816 211.826C228.054 211.826 220.141 219.74 220.141 229.502C220.141 239.264 228.054 247.177 237.816 247.177Z" fill="white"/>
<path d="M237.652 227.599C238.38 227.599 239.093 227.383 239.698 226.978C240.304 226.573 240.776 225.998 241.055 225.325C241.334 224.652 241.407 223.911 241.265 223.196C241.123 222.482 240.772 221.825 240.257 221.31C239.741 220.795 239.085 220.444 238.37 220.302C237.656 220.16 236.915 220.233 236.242 220.511C235.569 220.79 234.993 221.262 234.589 221.868C234.184 222.474 233.968 223.186 233.968 223.915C233.968 224.892 234.356 225.829 235.047 226.52C235.738 227.211 236.675 227.599 237.652 227.599Z" fill="#0637A3"/>
<path d="M240.148 238.915H235.313C234.129 238.915 232.994 238.445 232.156 237.608C231.319 236.771 230.849 235.636 230.849 234.452C230.849 233.268 231.319 232.133 232.156 231.296C232.994 230.459 234.129 229.988 235.313 229.988H240.148C241.332 229.988 242.467 230.459 243.305 231.296C244.142 232.133 244.612 233.268 244.612 234.452C244.612 235.636 244.142 236.771 243.305 237.608C242.467 238.445 241.332 238.915 240.148 238.915Z" fill="#B8E56B"/>
<path d="M322.124 214.208H269.09C267.214 214.208 265.692 215.729 265.692 217.606C265.692 219.482 267.214 221.004 269.09 221.004H322.124C324.001 221.004 325.522 219.482 325.522 217.606C325.522 215.729 324.001 214.208 322.124 214.208Z" fill="#0A1179"/>
<path d="M322.124 225.596H269.09C267.214 225.596 265.692 227.117 265.692 228.994C265.692 230.871 267.214 232.392 269.09 232.392H322.124C324.001 232.392 325.522 230.871 325.522 228.994C325.522 227.117 324.001 225.596 322.124 225.596Z" fill="#0A1179"/>
<path d="M291.358 236.984H269.09C267.214 236.984 265.692 238.505 265.692 240.382C265.692 242.258 267.214 243.779 269.09 243.779H291.358C293.235 243.779 294.756 242.258 294.756 240.382C294.756 238.505 293.235 236.984 291.358 236.984Z" fill="#0A1179"/>
<path d="M511.313 83.104C520.798 95.3217 532.486 106.91 535.698 122.039C537.286 129.507 536.635 137.247 537.408 144.836C538.18 152.426 540.805 160.438 547.057 164.808C553.495 169.308 562.637 168.721 569.397 164.687C576.157 160.652 580.756 153.699 583.539 146.331C592.123 123.634 583.217 95.615 563.138 81.9953C551.271 73.9479 536.185 70.5501 526.428 60.0134C522.136 55.421 519.181 49.7271 514.703 45.3421C505.004 35.8641 497.185 39.7769 497.772 52.4954C498.301 63.7617 504.553 74.3914 511.313 83.104Z" fill="#0A1179"/>
<path d="M495.39 36.9796C491.908 36.7082 488.42 37.4143 485.318 39.0182C482.872 40.2414 480.554 42.0583 479.56 44.6049C478.566 47.1514 479.288 50.5063 481.706 51.8082C482.28 52.109 482.902 52.3075 483.544 52.3948C485.181 52.6464 486.852 52.2625 488.215 51.3218C488.883 50.8449 489.434 50.2222 489.826 49.5009C490.217 48.7796 490.44 47.9786 490.476 47.1586C490.441 46.8346 490.506 46.5079 490.662 46.2215C490.879 45.9849 491.173 45.8329 491.491 45.7923C493.352 45.2433 495.323 45.1842 497.214 45.6207C499.46 46.2716 501.642 48.0671 503.866 47.3446C506.728 46.4004 506.306 42.8738 504.582 41.0998C502.264 38.7178 498.63 37.2871 495.39 36.9796Z" fill="#0A1179"/>
<path d="M571.078 313.566C558.667 277.908 561.779 237.542 547.022 203.199C545.015 198.273 542.369 193.631 539.153 189.393C533.237 181.981 524.97 176.807 515.717 174.727C506.464 172.646 496.778 173.782 488.258 177.948C476.055 184.014 466.133 196.404 461.569 211.297C458.35 221.776 457.742 233.157 457.993 244.33C458.479 268.086 462.685 291.799 470.868 313.438L571.078 313.566Z" fill="#66CFFA"/>
<path d="M421.532 117.096C420.211 102.249 413.204 88.486 401.976 78.683C400.938 77.7888 399.658 76.8661 398.242 77.6029C397.83 77.8385 397.49 78.1809 397.257 78.5939C397.024 79.0069 396.907 79.4751 396.918 79.9491C396.918 81.9735 398.292 83.4256 399.529 84.8491C403.682 89.6179 406.749 95.2313 408.521 101.301C407.09 97.2671 405.287 92.8321 402.083 90.2784C401.737 90.0008 401.321 89.8242 400.881 89.7682C400.442 89.7122 399.995 89.7789 399.591 89.9611C399.186 90.1432 398.84 90.4336 398.591 90.8002C398.341 91.1668 398.198 91.5952 398.177 92.0381C398.098 95.6147 399.958 99.3773 401.79 102.646C401.024 99.9209 399.558 97.4531 398.106 95.0281C397.44 93.9122 396.718 92.7462 395.395 92.3743C395.09 92.2781 394.767 92.2592 394.453 92.3191C394.14 92.3791 393.846 92.516 393.599 92.7176C392.712 93.4902 393.005 94.6418 393.306 95.629L396.539 105.951C395.916 102.555 394.472 99.3626 392.333 96.6519C391.689 95.8364 390.831 94.9924 389.693 95.3929C389.371 95.521 389.081 95.7208 388.847 95.9774C388.612 96.2339 388.44 96.5404 388.342 96.8736C387.583 99.2056 388.098 101.666 388.692 104.027C391.045 113.163 394.771 121.89 399.744 129.907" fill="white"/>
<path d="M421.532 117.096C420.211 102.249 413.204 88.486 401.976 78.683C400.938 77.7888 399.658 76.8661 398.242 77.6029C397.83 77.8385 397.49 78.1809 397.257 78.5939C397.024 79.0069 396.907 79.4751 396.918 79.9491C396.918 81.9735 398.292 83.4256 399.529 84.8491C403.682 89.6179 406.749 95.2313 408.521 101.301C407.09 97.2671 405.287 92.8321 402.083 90.2784C401.737 90.0008 401.321 89.8242 400.881 89.7682C400.442 89.7122 399.995 89.7789 399.591 89.9611C399.186 90.1432 398.84 90.4336 398.591 90.8002C398.341 91.1668 398.198 91.5952 398.177 92.0381C398.098 95.6147 399.958 99.3773 401.79 102.646C401.024 99.9209 399.558 97.4531 398.106 95.0281C397.44 93.9122 396.718 92.7462 395.395 92.3743C395.09 92.2781 394.767 92.2592 394.453 92.3191C394.14 92.3791 393.846 92.516 393.599 92.7176C392.712 93.4902 393.005 94.6418 393.306 95.629L396.539 105.951C395.916 102.555 394.472 99.3626 392.333 96.6519C391.689 95.8364 390.831 94.9924 389.693 95.3929C389.371 95.521 389.081 95.7208 388.847 95.9774C388.612 96.2339 388.44 96.5404 388.342 96.8736C387.583 99.2056 388.098 101.666 388.692 104.027C391.045 113.163 394.771 121.89 399.744 129.907" stroke="#0637A3" stroke-linecap="round" stroke-linejoin="round"/>
<path d="M385.866 71.9305C389.619 71.9305 392.662 68.888 392.662 65.1349C392.662 61.3818 389.619 58.3394 385.866 58.3394C382.113 58.3394 379.071 61.3818 379.071 65.1349C379.071 68.888 382.113 71.9305 385.866 71.9305Z" fill="#66CFFA"/>
<path d="M467.113 60.7144H405.924C403.858 60.7144 402.183 62.3893 402.183 64.4555C402.183 66.5217 403.858 68.1966 405.924 68.1966H467.113C469.179 68.1966 470.854 66.5217 470.854 64.4555C470.854 62.3893 469.179 60.7144 467.113 60.7144Z" fill="#F4F5F7"/>
<path d="M421.812 117.038C435.238 131.724 429.137 155.88 438.178 173.606C441.29 154.321 446.14 135.356 452.671 116.945C456.19 107.045 462.134 95.7862 472.599 94.8706C480.468 94.191 487.671 100.236 490.69 107.503C493.709 114.771 493.38 122.961 492.464 130.78C489.492 156.08 481.093 180.441 467.843 202.198C462.964 210.188 457.02 218.149 448.422 221.862C433.693 228.235 415.817 219.38 407.212 205.831C398.607 192.283 397.255 175.445 397.348 159.4C397.419 148.82 398.013 138.241 399.136 127.725L421.812 117.038Z" fill="#B8E56B"/>
<path d="M506.348 206.411C516.856 200.188 525.762 189.615 537.214 186.611C534.568 180.67 532.894 174.342 532.257 167.87C531.399 159.286 532.314 150.545 531.821 141.903C531.105 129.45 527.357 117.132 520.59 107.661C513.823 98.1901 503.966 91.7737 493.601 91.0226C489.624 90.7364 485.446 91.3373 482.12 93.9697C480.223 95.6045 478.604 97.5373 477.328 99.6923C472.111 107.977 468.595 117.217 466.984 126.875C463.407 148.005 468.415 170.273 464.573 191.339C463.715 196.039 459.838 203.815 462.642 207.484C465.253 210.896 473.679 211.726 477.292 212.227C487.357 213.644 497.604 211.593 506.348 206.411Z" fill="#B8E56B"/>
<path d="M421.812 117.038C435.238 131.724 429.137 155.88 438.178 173.606C441.29 154.321 446.14 135.356 452.671 116.945C456.19 107.045 462.134 95.7862 472.599 94.8706C480.468 94.191 487.671 100.236 490.69 107.503C493.709 114.771 493.38 122.961 492.464 130.78C489.492 156.08 481.093 180.441 467.843 202.198C462.964 210.188 457.02 218.149 448.422 221.862C433.693 228.235 415.817 219.38 407.212 205.831C398.607 192.283 397.255 175.445 397.348 159.4C397.419 148.82 398.013 138.241 399.136 127.725L421.812 117.038Z" stroke="#0637A3" stroke-linecap="round" stroke-linejoin="round"/>
<path d="M529.897 202.434C535.519 213.879 539.346 227.871 533.087 238.958C530.999 242.664 527.937 245.704 525.355 249.08C514.074 263.752 512.379 283.58 513.194 302.064" stroke="#0637A3" stroke-linecap="round" stroke-linejoin="round"/>
</g>
<defs>
<clipPath id="clip0">
<rect width="585.821" height="312.854" fill="white" transform="translate(0.96582 0.712891)"/>
</clipPath>
</defs>
</svg>
