<svg width="583" height="313" viewBox="0 0 583 313" fill="none" xmlns="http://www.w3.org/2000/svg">
<g clip-path="url(#clip0)">
<path d="M286.008 310.98H202.203C198.993 310.98 196.426 308.426 196.426 305.235C196.426 302.043 198.993 299.49 202.203 299.49H286.008C289.218 299.49 291.785 302.043 291.785 305.235C291.785 308.426 289.218 310.98 286.008 310.98Z" fill="#B8E56B"/>
<path d="M240.361 310.98H151.919C148.71 310.98 146.142 308.426 146.142 305.235C146.142 302.043 148.71 299.49 151.919 299.49H240.361C243.57 299.49 246.138 302.043 246.138 305.235C246.138 308.426 243.499 310.98 240.361 310.98Z" fill="#B8E56B"/>
<path d="M7.41767 111.822C7.41767 164.448 50.2832 207.074 103.205 207.074C156.128 207.074 198.993 164.448 198.993 111.822C198.993 59.1954 156.128 16.5693 103.205 16.5693H7.27502V109.481C7.27502 109.481 7.41767 110.971 7.41767 111.822Z" fill="#6DC5EE"/>
<path d="M239.576 68.1319C239.576 68.2738 239.576 68.4156 239.576 68.4866C239.576 76.2174 245.924 82.5297 253.698 82.5297H309.688C317.462 82.5297 323.81 76.2174 323.81 68.4866C323.81 60.7557 317.462 54.4434 309.688 54.4434H239.576V68.1319Z" fill="white" stroke="#0637A3" stroke-miterlimit="10"/>
<path d="M287.862 30.4706C287.862 30.3287 287.862 30.1869 287.862 30.1159C287.862 22.3851 281.515 16.0728 273.74 16.0728H217.751C209.977 16.0728 203.629 22.3851 203.629 30.1159C203.629 37.8468 209.977 44.1591 217.751 44.1591H287.862V30.4706Z" fill="white" stroke="#0637A3" stroke-miterlimit="10"/>
<path d="M103.633 184.307L170.963 208.138C186.583 213.67 196.996 228.352 196.996 244.806V298.71L285.937 298.639L239.148 203.386C232.872 190.62 221.46 181.045 207.766 177.002L115.116 149.909L75.3892 147.781" fill="white"/>
<path d="M103.633 184.307L170.963 208.138C186.583 213.67 196.996 228.352 196.996 244.806V298.71L285.937 298.639L239.148 203.386C232.872 190.62 221.46 181.045 207.766 177.002L115.116 149.909L75.3892 147.781" stroke="#0637A3" stroke-miterlimit="10"/>
<path d="M365.32 137.071C361.968 136.574 358.616 135.227 355.691 133.596C353.124 132.177 350.841 130.546 348.773 128.489C343.994 123.879 339.43 118.134 339.358 111.538C339.287 109.41 340.071 106.928 342.069 106.219C343.994 105.58 345.991 106.928 347.275 108.488C349.058 110.616 350.128 113.24 351.626 115.652C353.052 118.063 355.049 120.333 357.688 121.184C354.764 120.474 352.41 118.134 350.913 115.51C349.486 112.885 348.773 109.836 348.06 106.928C347.774 105.793 347.56 104.658 347.703 103.523C347.846 102.389 348.559 101.254 349.629 100.899C350.841 100.474 352.125 101.041 353.124 101.892C357.189 105.155 357.831 111.893 362.467 114.233C358.188 112.673 355.477 108.417 354.407 104.02C353.837 101.892 353.837 99.1969 355.691 97.9203C357.617 96.5727 360.327 97.7784 362.039 99.3388C364.464 101.537 366.033 104.516 368.387 106.786C372.238 110.545 377.73 112.105 382.081 115.297C385.647 117.921 388.5 121.751 389 126.148C389.499 130.12 387.502 135.794 383.222 137.071C377.873 138.56 370.741 137.922 365.32 137.071Z" fill="#6DC5EE"/>
<path d="M381.582 139.128C376.589 139.837 371.525 140.546 366.604 139.624C362.253 138.773 358.259 136.574 354.907 133.808C351.483 130.971 348.559 127.212 347.846 122.886C347.774 122.46 347.703 121.964 347.988 121.609C348.202 121.255 348.559 121.042 348.987 120.9C351.982 119.836 355.549 120.474 357.902 122.602C358.972 123.524 359.971 124.801 361.397 124.872C362.681 124.943 363.68 123.95 364.678 123.24C367.317 121.325 370.812 120.474 374.022 121.113C377.231 121.68 380.227 123.666 382.01 126.432" stroke="#0637A3" stroke-miterlimit="10"/>
<path d="M582.643 217.5C582.643 216.649 582.715 215.798 582.715 214.947C582.715 162.32 539.849 119.694 486.927 119.694C434.005 119.694 391.139 162.32 391.139 214.947C391.139 267.573 434.005 310.199 486.927 310.199H582.857V217.287L582.643 217.5Z" fill="#0637A3"/>
<path d="M387.93 32.1013C387.93 17.5617 376.09 5.78809 361.469 5.78809C346.847 5.78809 335.007 17.5617 335.007 32.1013C335.007 46.641 361.469 84.2314 361.469 84.2314C361.469 84.2314 387.93 46.641 387.93 32.1013Z" fill="#0A1179"/>
<path d="M361.968 42.8819C368.625 42.8819 374.022 37.5154 374.022 30.8955C374.022 24.2757 368.625 18.9092 361.968 18.9092C355.311 18.9092 349.914 24.2757 349.914 30.8955C349.914 37.5154 355.311 42.8819 361.968 42.8819Z" fill="white"/>
<path d="M504.33 178.278H428.727C397.63 178.278 372.381 203.315 372.381 234.309V262.892" stroke="#6DC5EE" stroke-width="43" stroke-miterlimit="10"/>
<path d="M502.761 156.93V232.891C502.761 263.815 527.938 288.922 559.107 288.922H582.857" stroke="#6DC5EE" stroke-width="43" stroke-miterlimit="10"/>
<path d="M348.916 271.049H391.211C394.563 271.049 397.202 273.744 397.202 277.007V304.455C397.202 307.788 394.491 310.412 391.211 310.412H319.459C316.677 310.412 314.395 308.143 314.395 305.377C314.324 286.44 329.801 271.049 348.916 271.049Z" fill="#0A1179"/>
<path d="M486.428 49.4073C497.024 49.4073 505.614 40.8654 505.614 30.3284C505.614 19.7914 497.024 11.2495 486.428 11.2495C475.832 11.2495 467.242 19.7914 467.242 30.3284C467.242 40.8654 475.832 49.4073 486.428 49.4073Z" fill="#6DC5EE"/>
<path d="M505.828 30.6121C508.324 20.3279 501.976 10.0438 491.634 7.5614C481.292 5.07902 470.95 11.3914 468.454 21.6755" fill="#0637A3"/>
<path d="M505.685 33.3071L467.313 24.1578C465.601 23.7322 464.531 21.9591 464.888 20.2569C465.316 18.5547 467.099 17.4908 468.811 17.8454L507.183 26.9948C508.895 27.4204 509.965 29.1935 509.608 30.8957C509.18 32.6688 507.397 33.7327 505.685 33.3071Z" fill="#0637A3"/>
<path d="M111.978 44.8682C122.574 44.8682 131.164 36.3263 131.164 25.7893C131.164 15.2524 122.574 6.71045 111.978 6.71045C101.382 6.71045 92.7922 15.2524 92.7922 25.7893C92.7922 36.3263 101.382 44.8682 111.978 44.8682Z" fill="white" stroke="#0637A3" stroke-miterlimit="10"/>
<path d="M69.398 150.05C57.9862 146.717 46.1464 154.732 45.6472 166.505C45.6472 166.789 45.6472 167.073 45.6472 167.356C45.6472 167.64 45.6472 167.924 45.6472 168.136C45.9325 175.513 50.9251 181.825 57.9148 184.307L125.244 208.138C140.864 213.67 151.278 228.352 151.278 244.807V298.71L240.218 298.639L193.43 203.386C187.153 190.62 175.742 181.045 162.047 177.002L69.398 150.05Z" fill="white" stroke="#0637A3" stroke-miterlimit="10"/>
<path d="M524.158 156.93H447.414V88.4163C447.414 72.0325 460.751 58.7695 477.227 58.7695H494.345C510.82 58.7695 524.158 72.0325 524.158 88.4163V156.93Z" fill="#B8E56B"/>
<path d="M125.886 153.738L45.6472 164.235C45.6472 164.235 44.72 58.6274 106.058 58.6274C106.486 58.6274 106.914 58.6274 107.414 58.6274C131.878 59.4076 148.567 82.8129 141.364 105.296L125.886 153.738Z" fill="#0637A3"/>
<path d="M450.623 139.695H380.655V111.325H450.623C471.521 111.325 488.425 94.5157 488.425 73.7347C488.425 69.1954 492.134 65.5073 496.698 65.5073H508.609C513.174 65.5073 516.883 69.1954 516.883 73.7347C516.954 110.19 487.284 139.695 450.623 139.695Z" fill="#B8E56B"/>
<path d="M502.404 90.0478C510.44 90.0478 516.954 83.57 516.954 75.5791C516.954 67.5882 510.44 61.1104 502.404 61.1104C494.368 61.1104 487.854 67.5882 487.854 75.5791C487.854 83.57 494.368 90.0478 502.404 90.0478Z" fill="#B8E56B"/>
<path d="M514.458 91.7495C506.612 119.41 481.007 139.695 450.623 139.695H428.727" stroke="#0637A3" stroke-miterlimit="10" stroke-linecap="round" stroke-linejoin="round"/>
<path d="M490.35 76.9263C484.716 96.7853 466.386 111.325 444.632 111.325H423.734" stroke="#0637A3" stroke-miterlimit="10" stroke-linecap="round" stroke-linejoin="round"/>
<path d="M490.35 76.9263C491.42 74.0184 491.848 72.7417 492.989 70.8976C493.917 69.3373 494.986 67.706 496.342 66.4294C499.979 62.7412 505.756 61.4646 510.749 62.8831C515.742 64.3016 519.736 68.9827 520.021 74.1602" stroke="#0637A3" stroke-miterlimit="10"/>
<path d="M314.894 311.689C312.897 308.355 313.254 303.745 315.821 300.837C319.53 296.511 326.306 296.369 331.869 297.717C337.432 298.993 343.067 301.334 348.702 300.554C354.907 299.703 360.755 295.234 366.818 296.866C370.099 297.717 372.666 300.27 376.019 300.908C379.442 301.547 383.151 299.844 384.863 296.866C386.931 293.177 386.004 288.425 387.93 284.737C389.998 280.695 395.062 278.851 399.555 279.56" stroke="white" stroke-miterlimit="10" stroke-linecap="round" stroke-linejoin="round"/>
<path d="M342.069 269.985C341.569 274.95 341.641 279.985 342.354 284.879C342.568 286.298 342.782 287.716 343.566 288.993C344.351 290.199 345.706 291.192 347.132 291.05C348.559 290.908 349.7 289.702 350.199 288.426C350.699 287.078 350.699 285.659 350.699 284.241C350.627 279.489 350.413 274.666 349.914 269.914" stroke="white" stroke-miterlimit="10" stroke-linecap="round" stroke-linejoin="round"/>
<path d="M354.978 269.985C354.479 274.95 354.55 279.985 355.263 284.879C355.477 286.298 355.691 287.716 356.476 288.993C357.26 290.199 358.616 291.192 360.042 291.05C361.469 290.908 362.61 289.702 363.109 288.426C363.608 287.078 363.608 285.659 363.608 284.241C363.537 279.489 363.323 274.666 362.824 269.914" stroke="white" stroke-miterlimit="10" stroke-linecap="round" stroke-linejoin="round"/>
<path d="M346.776 288.213C347.958 288.213 348.916 287.26 348.916 286.085C348.916 284.91 347.958 283.957 346.776 283.957C345.594 283.957 344.636 284.91 344.636 286.085C344.636 287.26 345.594 288.213 346.776 288.213Z" stroke="white" stroke-miterlimit="10" stroke-linecap="round" stroke-linejoin="round"/>
<path d="M359.543 288.213C360.725 288.213 361.682 287.26 361.682 286.085C361.682 284.91 360.725 283.957 359.543 283.957C358.361 283.957 357.403 284.91 357.403 286.085C357.403 287.26 358.361 288.213 359.543 288.213Z" stroke="white" stroke-miterlimit="10" stroke-linecap="round" stroke-linejoin="round"/>
<path d="M348.844 69.9757C347.204 64.5854 348.702 58.4149 352.553 54.2303C354.55 52.0316 357.974 50.4713 360.47 52.0316C362.681 53.3792 363.323 56.7127 365.748 57.5638C367.816 58.2731 370.027 56.7836 371.097 54.9396C372.167 53.0955 372.452 50.8968 373.094 48.84C373.95 46.1448 375.519 43.6625 377.659 41.6766C379.014 40.3999 380.726 39.2651 382.58 39.1232C384.435 38.9814 386.503 39.9744 387.145 41.7475" stroke="white" stroke-miterlimit="10"/>
<path d="M583 82.8131C583 74.9404 576.581 68.5571 568.664 68.5571C560.747 68.5571 554.328 74.9404 554.328 82.8131C554.328 90.6858 568.664 111.183 568.664 111.183C568.664 111.183 583 90.7567 583 82.8131Z" fill="#6DC5EE"/>
<path d="M568.949 88.7001C572.573 88.7001 575.511 85.7787 575.511 82.175C575.511 78.5713 572.573 75.6499 568.949 75.6499C565.325 75.6499 562.387 78.5713 562.387 82.175C562.387 85.7787 565.325 88.7001 568.949 88.7001Z" fill="#0A1179"/>
<path d="M327.162 227.501C327.162 219.628 320.743 213.245 312.826 213.245C304.909 213.245 298.49 219.628 298.49 227.501C298.49 235.373 312.826 255.871 312.826 255.871C312.826 255.871 327.162 235.444 327.162 227.501Z" fill="#B8E56B"/>
<path d="M313.111 233.388C316.735 233.388 319.673 230.466 319.673 226.863C319.673 223.259 316.735 220.337 313.111 220.337C309.487 220.337 306.549 223.259 306.549 226.863C306.549 230.466 309.487 233.388 313.111 233.388Z" fill="#0637A3"/>
<path d="M52.9935 300.128C44.6486 300.128 36.6604 299.064 29.1 296.865C13.4088 292.326 -2.28239 272.822 0.285266 251.97C2.85292 231.118 17.7596 219.273 28.8147 212.11C40.5832 204.521 53.4214 199.698 65.8317 195.017C67.6148 194.379 69.3979 193.669 71.181 193.031C94.2186 184.307 116.971 173.952 138.653 162.249C142.79 160.051 146.927 157.639 148.282 154.873C149.352 152.675 148.853 149.199 146.998 146.433C144.858 143.241 141.15 140.475 135.872 138.135C121.036 131.681 103.134 132.532 87.5855 134.234C66.545 136.574 43.5074 150.263 24.9633 166.576C24.9633 166.576 19.6853 159.271 16.9037 153.171C12.5529 143.596 11.1978 138.56 11.1978 138.56C34.592 118.063 59.5553 111.751 81.8083 109.268C100.21 107.211 125.03 110.119 144.43 118.63C153.489 122.602 160.336 127.993 164.758 134.66C170.892 143.88 171.89 155.228 167.397 164.306C162.903 173.314 154.059 178.137 148.71 180.974C126.172 193.102 102.635 203.812 78.67 212.89C76.8869 213.599 75.0325 214.238 73.1781 214.947C61.3383 219.415 50.0692 223.6 40.2979 229.912C28.1728 237.785 22.4669 245.161 21.3258 254.523C20.0419 265.091 29.528 274.808 34.8773 276.368C49.9979 280.765 67.1869 279.347 87.5141 272.113C94.1472 269.772 101.066 266.439 109.268 261.545C138.011 244.665 162.261 222.323 187.938 198.705C203.986 183.882 220.676 168.562 238.364 154.802C246.495 148.49 256.123 141.61 268.106 139.553C281.087 137.284 297.562 142.249 304.053 156.079C308.903 166.434 310.115 179.555 295.637 197.216C283.369 212.606 253.199 231.26 253.199 231.26L239.862 204.095L265.609 189.059C271.743 185.442 278.091 181.754 282.014 176.86C285.081 173.03 286.293 168.136 284.867 165.157C283.226 161.682 277.449 159.625 272.029 160.618C264.896 161.895 258.049 166.789 251.701 171.682C234.726 184.804 218.464 199.84 202.702 214.379C177.311 237.785 151.135 261.97 120.394 279.985C110.98 285.517 102.849 289.418 94.9318 292.255C80.0965 297.504 66.0457 300.128 52.9935 300.128Z" fill="#0A1179"/>
<path d="M18.1875 153.03C19.3287 152.178 20.3985 151.256 21.5397 150.405" stroke="white" stroke-miterlimit="10"/>
<path d="M28.4581 145.299C45.0052 133.525 63.1928 124.092 83.4487 121.893C101.565 119.907 124.745 121.255 141.435 128.489C147.569 131.184 153.417 135.085 157.126 140.618C160.835 146.221 162.119 153.668 159.123 159.696C156.342 165.299 150.493 168.704 144.93 171.683C122.748 183.598 99.7105 194.095 76.1737 203.032C62.3369 208.28 48.2148 213.103 35.8045 221.118C23.3941 229.132 13.8368 238.778 12.0537 253.318C10.1279 269.276 23.1088 283.745 33.2368 286.652C52.7795 292.327 73.3207 288.993 92.5068 282.184C100.78 279.276 108.555 275.234 116.115 270.765C164.758 242.253 201.703 197.783 246.281 163.243C253.841 157.427 261.901 151.682 271.315 150.051C280.73 148.419 291.714 151.966 295.708 160.618C298.989 167.64 304.909 182.747 254.768 213.741" stroke="white" stroke-miterlimit="10" stroke-dasharray="12.05 12.05"/>
<path d="M251.202 216.011C249.99 216.72 248.777 217.429 247.493 218.209" stroke="white" stroke-miterlimit="10"/>
<path d="M113.119 18.129C110.266 18.4836 107.342 19.2638 105.131 21.1788C102.064 23.8739 101.066 28.2004 98.5694 31.4629C96.073 34.6546 92.2929 36.6405 88.3701 37.5625C84.4473 38.4845 80.3105 38.4845 76.245 38.4136C74.1053 38.3427 71.7516 38.2008 70.3252 36.6405C69.2553 35.5057 68.8987 33.7325 69.3266 32.1722C69.7546 30.6828 70.9671 29.4061 72.3936 28.6259C71.181 28.555 70.1112 29.477 68.97 29.548C66.9016 29.6898 65.4752 27.1365 66.0457 25.1506C66.6163 23.1647 68.5421 21.888 70.4678 21.1079C68.8987 21.959 66.759 21.2497 65.7604 19.6894C64.7619 18.129 64.9759 16.1431 65.8318 14.5827C66.6877 13.0224 68.2568 11.8876 69.8259 11.1074C74.034 9.1215 78.9553 9.4052 83.3774 7.9867C84.8752 7.49022 86.3017 6.78097 87.7282 6.07172C94.7179 2.80916 102.207 0.25585 109.91 -0.0987766C111.836 -0.169702 113.761 -0.0987765 115.616 0.3977C119.966 1.5325 128.097 6.63912 128.597 11.6039C129.524 18.9801 117.399 17.6325 113.119 18.129Z" fill="#0A1179"/>
<path d="M218.108 34.1587C220.274 34.1587 222.031 32.4122 222.031 30.2578C222.031 28.1034 220.274 26.3569 218.108 26.3569C215.941 26.3569 214.185 28.1034 214.185 30.2578C214.185 32.4122 215.941 34.1587 218.108 34.1587Z" fill="#B8E56B"/>
<path d="M273.027 33.9458H230.732C228.664 33.9458 226.952 32.2436 226.952 30.1868C226.952 28.1299 228.664 26.4277 230.732 26.4277H273.027C275.096 26.4277 276.807 28.1299 276.807 30.1868C276.807 32.2436 275.096 33.9458 273.027 33.9458Z" fill="#6DC5EE"/>
<path d="M254.768 72.458C256.935 72.458 258.691 70.7115 258.691 68.5571C258.691 66.4027 256.935 64.6562 254.768 64.6562C252.602 64.6562 250.845 66.4027 250.845 68.5571C250.845 70.7115 252.602 72.458 254.768 72.458Z" fill="#6DC5EE"/>
<path d="M309.616 72.1743H267.321C265.253 72.1743 263.541 70.4721 263.541 68.4153C263.541 66.3585 265.253 64.6562 267.321 64.6562H309.616C311.685 64.6562 313.396 66.3585 313.396 68.4153C313.396 70.5431 311.756 72.1743 309.616 72.1743Z" fill="#B8E56B"/>
<path d="M256.337 134.588C260.046 138.489 263.256 142.887 266.893 146.858C267.892 147.922 268.962 148.986 270.317 149.412C271.672 149.837 273.455 149.483 274.168 148.277C274.596 147.426 274.525 146.433 274.382 145.511C273.455 140.688 270.103 136.645 266.608 133.099C267.535 132.957 268.462 133.666 269.104 134.305C272.528 137.567 275.167 141.61 276.736 146.078C277.735 148.986 278.376 152.178 280.373 154.518C281.158 155.44 282.371 156.221 283.583 155.866C285.152 155.299 285.223 153.1 284.938 151.469C283.654 144.021 281.372 136.503 276.736 130.475C279.803 134.305 282.87 138.206 284.439 142.816C285.437 145.724 285.865 148.844 287.577 151.327C288.005 151.894 288.504 152.532 289.218 152.674C290.287 152.958 291.5 152.178 291.999 151.185C292.499 150.192 292.499 148.986 292.356 147.851C291.714 139.624 288.219 131.61 282.513 125.652C285.152 128.134 287.934 130.688 289.36 134.021C290.43 136.432 290.715 139.128 292.213 141.326C292.855 142.248 293.996 143.099 294.924 142.532C295.565 142.177 295.708 141.326 295.779 140.546C296.279 135.085 295.494 129.34 292.57 124.73C289.075 119.198 283.012 115.935 277.093 113.098C271.101 110.261 265.039 107.637 258.905 105.225C257.336 104.587 255.767 104.02 254.126 103.878C249.348 103.523 245.068 107.353 243.499 111.821C242.358 115.084 241.359 123.453 244.284 126.077C245.995 127.567 248.92 128.276 250.774 129.695C252.843 131.042 254.626 132.744 256.337 134.588Z" fill="white" stroke="#0637A3" stroke-miterlimit="10"/>
<path d="M7.20367 82.3878C31.0971 70.4014 56.2031 62.3159 82.5928 57.8476C90.4384 56.5001 121.393 55.9327 128.953 56.8547C145.072 58.6987 161.12 61.6067 176.74 65.9331C205.626 74.0186 234.013 86.7851 258.263 104.445L245.853 127.496L112.763 96.8565L7.63162 118.347L7.20367 82.3878Z" fill="#0637A3"/>
<path d="M61.909 263.531L93.4341 251.119C95.0745 250.481 96.8576 251.261 97.4995 252.892L102.207 264.737C102.849 266.368 102.064 268.141 100.424 268.779L68.8987 281.191C67.2583 281.829 65.4752 281.049 64.8333 279.418L60.1259 267.574C59.5553 266.013 60.3399 264.169 61.909 263.531Z" fill="#B8E56B"/>
<path d="M100.281 248.424C108.412 245.232 117.684 249.204 120.965 257.289C121.607 258.921 120.822 260.694 119.182 261.332L107.342 266.013C105.702 266.651 103.919 265.871 103.277 264.24L98.5694 252.395C97.9275 250.906 98.712 249.062 100.281 248.424Z" fill="#66CFFA"/>
<path d="M105.916 251.19C108.555 250.126 111.622 251.474 112.62 254.098C112.834 254.594 112.549 255.233 112.05 255.445L108.198 256.935C107.699 257.148 107.057 256.864 106.843 256.367L105.345 252.538C105.131 252.041 105.345 251.403 105.916 251.19Z" fill="#0A1179"/>
<path d="M95.2885 274.524C97.3369 274.524 98.9974 272.873 98.9974 270.836C98.9974 268.799 97.3369 267.148 95.2885 267.148C93.2402 267.148 91.5797 268.799 91.5797 270.836C91.5797 272.873 93.2402 274.524 95.2885 274.524Z" fill="#0A1179"/>
<path d="M97.0716 275.233C94.6466 276.226 91.7937 275.021 90.8665 272.538C89.8679 270.127 91.0804 267.29 93.5768 266.368C96.0018 265.375 98.8547 266.581 99.7819 269.063C100.78 271.474 99.568 274.24 97.0716 275.233ZM94.3613 268.354C93.0062 268.921 92.2929 270.481 92.8635 271.829C93.4341 273.177 95.0032 273.886 96.3584 273.318C97.7135 272.751 98.4268 271.191 97.8562 269.843C97.2856 268.425 95.7165 267.786 94.3613 268.354Z" fill="white"/>
<path d="M112.478 267.715C114.526 267.715 116.186 266.064 116.186 264.027C116.186 261.991 114.526 260.339 112.478 260.339C110.429 260.339 108.769 261.991 108.769 264.027C108.769 266.064 110.429 267.715 112.478 267.715Z" fill="#0A1179"/>
<path d="M114.261 268.496C111.836 269.489 108.983 268.283 108.055 265.801C107.057 263.389 108.269 260.552 110.766 259.63C113.262 258.708 116.044 259.843 116.971 262.325C117.898 264.737 116.686 267.503 114.261 268.496ZM111.479 261.545C110.124 262.112 109.411 263.673 109.981 265.02C110.552 266.368 112.121 267.077 113.476 266.51C114.831 265.942 115.544 264.382 114.974 263.034C114.475 261.687 112.905 261.049 111.479 261.545Z" fill="white"/>
<path d="M74.8186 282.539C76.8669 282.539 78.5274 280.888 78.5274 278.851C78.5274 276.814 76.8669 275.163 74.8186 275.163C72.7702 275.163 71.1097 276.814 71.1097 278.851C71.1097 280.888 72.7702 282.539 74.8186 282.539Z" fill="#0A1179"/>
<path d="M76.6017 283.319C74.1767 284.312 71.3237 283.106 70.3965 280.624C69.398 278.212 70.6105 275.375 73.1068 274.453C75.6032 273.531 78.3848 274.666 79.312 277.148C80.2392 279.56 79.0267 282.326 76.6017 283.319ZM73.8201 276.368C72.4649 276.936 71.7517 278.496 72.3223 279.844C72.8929 281.191 74.462 281.9 75.8171 281.333C77.1723 280.766 77.8855 279.205 77.3149 277.858C76.7444 276.51 75.1752 275.872 73.8201 276.368Z" fill="white"/>
</g>
<defs>
<clipPath id="clip0">
<rect width="583" height="312" fill="white" transform="translate(0 0.043457)"/>
</clipPath>
</defs>
</svg>
